<svg xmlns="http://www.w3.org/2000/svg" width="1884.76" height="470.203" viewBox="0 0 498.676 124.408"><path d="M39.849-55.912A13.551 13.551 0 0 0 26.268-42.33v97.245a13.551 13.551 0 0 0 13.581 13.581h471.514a13.55 13.55 0 0 0 13.581-13.58V-42.33a13.55 13.55 0 0 0-13.581-13.581H39.849Z" style="fill:#25265c;fill-opacity:1;stroke:none;stroke-width:1.32292;stroke-linecap:round;stroke-linejoin:round;stroke-dasharray:none;stroke-opacity:1" transform="translate(-26.268 55.912)"/><path d="M384.282-26.95c-.428 0-1.01.258-1.296.573-.5.552-.47 1.019.8 12.926 1.23 11.532 1.36 12.389 1.95 12.867.831.673 1.59.648 2.314-.077.53-.531.57-.808.388-2.809l-.201-2.22.84.533c.462.293 1.766 1.231 2.896 2.086 2.878 2.176 4.617 2.084 4.395-.233-.081-.842-.454-1.229-3.047-3.167l-2.954-2.208 2.16-2.02c2.346-2.193 2.667-3.027 1.581-4.113-.973-.973-1.598-.712-4.273 1.777-1 .93-1.917 1.691-2.04 1.691-.121 0-.563-3.263-.98-7.251-.818-7.828-.978-8.355-2.533-8.355zm-120.372.153c-1.945-.01-2.567.117-3.922.782-1.824.896-4.016 2.923-5.24 4.844-1.13 1.775-2.451 6.04-2.86 9.236-1.106 8.62 3.761 14.652 11.89 14.734 1.039.011 2.656-.18 3.595-.425 2.092-.545 3.394-1.325 4.388-2.628.642-.842.799-1.444 1.024-3.926.146-1.612.19-3.237.095-3.611-.207-.823-1.302-1.378-2.252-1.14-.983.247-1.371 1.331-1.371 3.834 0 1.195-.127 2.409-.281 2.697-.716 1.338-4.739 2.05-7.551 1.337-2.385-.605-3.91-1.72-5.013-3.664-.858-1.514-.883-1.662-.869-5.171.013-3.287.1-3.868.958-6.447.859-2.58 1.105-2.998 2.732-4.646 2.554-2.586 4.506-3.031 7.351-1.675.86.41.927.536.762 1.418-.337 1.797 1.204 2.631 3.072 1.665 1.04-.537 1.439-1.246 1.439-2.549 0-1.364-1.19-2.577-3.664-3.734-1.69-.79-2.3-.923-4.283-.93zm-119.486 1.233c-2.624-.033-4.05.576-5.608 2.395-1.961 2.292-2.033 2.749-2.147 13.614-.1 9.516-.09 9.75.493 10.332.697.697 1.419.758 2.202.186.53-.387.57-.933.712-9.898.133-8.37.214-9.634.684-10.722.762-1.764 1.666-2.38 3.496-2.38 4.107 0 6.103 2.051 6.511 6.693.216 2.453.744 3.423 1.864 3.423 1.4 0 1.734-.63 1.9-3.582.12-2.158.281-2.932.74-3.545 1.15-1.54 2.021-1.96 4.319-2.076 2.12-.107 2.164-.095 3.136.877 1.703 1.703 1.91 3 1.91 11.977 0 5.331.108 8.118.332 8.612.636 1.395 2.532 1.333 3.126-.101.26-.627.32-3.009.228-9.036-.136-8.97-.305-10.053-1.988-12.704-2.161-3.405-6.571-4.313-10.875-2.239-1.129.522-2.025 1.165-2.749 2.135l-1.335-1.331c-1.75-1.746-3.988-2.592-6.951-2.63zm86.078 1.657c-.71-.01-1.452.507-2.12 1.49-.868 1.277-.894 1.482-.293 2.34.728 1.039 2.18.871 3.277-.38 1.251-1.425 1.193-2.554-.167-3.27a1.505 1.505 0 0 0-.697-.18zm-24.918 1.292c-.966 0-1.781 1.146-1.529 2.15.312 1.244 3.15 2.602 4.105 1.965.566-.378 1.02-1.52.835-2.101-.23-.723-2.415-2.014-3.411-2.014zm205.92 6.075c-.428 0-.933.103-1.122.222-.506.323-.997 1.793-.802 2.407.145.458-.063.411-1.467-.328-5.794-3.047-11.983 2.87-9.08 8.681.608 1.215 1.84 2.493 2.96 3.073 2.187 1.13 5.683.622 7.296-1.062.453-.472.914-.86 1.025-.86.112 0 .286.443.388.983.411 2.195 2.304 3.221 3.5 1.899.51-.564.512-.666.038-2.529-.66-2.591-1.038-5.74-1.048-8.741-.012-2.83-.427-3.752-1.688-3.745zm-135.81.38c-.34.006-.567.02-.652.048-1.263.4-1.328 2.761-.086 3.155.292.092 1.999.287 3.794.43 1.795.145 3.332.33 3.414.412.082.082-.191.73-.607 1.44l-.757 1.29-1.145-.29c-1.507-.383-2.596.25-2.596 1.508 0 .834.178 1.093 1.271 1.848.524.362.491.481-.772 2.727-1.73 3.078-1.783 3.281-1.06 4.199.599.762.63.767 4.268.737 2.015-.017 5.007-.114 6.65-.217 2.49-.155 3.053-.279 3.395-.747.568-.778.512-1.504-.168-2.185-.528-.528-.963-.578-5.058-.578-2.463 0-4.479-.074-4.479-.165 0-.09.343-.75.762-1.464.753-1.285.772-1.296 1.95-1.088 1.61.285 2.22.222 2.719-.277 1-1 .044-3.075-1.416-3.075-.3 0-.547-.085-.547-.189 0-.103.586-1.202 1.3-2.442 1.43-2.479 1.566-3.174.77-3.969-.444-.445-1.382-.59-5.759-.893a99.108 99.108 0 0 0-3.872-.199c-.53-.015-.98-.02-1.319-.015zm22.628.635c-3.183.083-5.463 3.35-5.491 8.23-.014 2.513.555 4.347 1.804 5.806 1.687 1.97 2.793 2.33 6.701 2.181 1.828-.07 3.79-.27 4.36-.445 1.41-.434 1.996-1.517 1.396-2.58-.486-.86-.713-.88-5.467-.485-3.393.282-4.52-.267-5.048-2.455-.172-.716-.155-.723 1.918-.79 4.756-.153 7.442-3.04 5.705-6.132-.79-1.406-2.615-2.7-4.463-3.166a5.231 5.231 0 0 0-1.415-.164zm-78.433.179a8.845 8.845 0 0 0-.83.046c-3.407.352-5.1 2.68-5.069 6.964.022 2.953.467 4.931 1.421 6.315 1.818 2.637 6.068 3.86 8.905 2.565 1.514-.692 3.612-2.975 3.612-3.932 0-.88-.932-1.885-1.75-1.885-.336 0-1.104.559-1.764 1.284-1.325 1.456-2.285 1.778-3.954 1.329-1.258-.339-2.647-1.722-2.647-2.636 0-.472.212-.555 1.409-.555 2.807 0 5.546-1.476 6.283-3.384 1.167-3.026-1.187-5.756-4.819-6.08a8.248 8.248 0 0 0-.797-.031zm138.712.397a7.91 7.91 0 0 0-6.122 2.677c-5.5 6.25 1.445 15.522 9.142 12.206 2.583-1.113 4.209-3.588 4.398-6.698.14-2.299-.217-3.518-1.544-5.256-1.452-1.901-3.643-2.882-5.874-2.93zm-31.855.165c-.213-.021-.424.077-.785.279-.7.392-.79.623-.867 2.241-.105 2.187.525 5.973 1.362 8.182.753 1.988 2.248 3.586 3.786 4.047 1.459.437 3.828-.039 5.354-1.074l1.053-.714 1.113 1.005c.612.553 1.608 1.133 2.213 1.288l1.678.43c1.017.26 3.156-.09 3.901-.637 1.165-.856 1.956-2.251 2.785-4.916 1.606-5.167.533-10.79-1.91-10.015-1.08.343-1.51 1.356-1.18 2.784.478 2.074.31 4.281-.514 6.755-.727 2.262-.226 2.315-2.464 2.304-1.483-.01-1.78-.108-2.375-.8-.862-1.002-1.297-2.6-1.54-5.656-.163-2.052-.294-2.5-.864-2.962-.846-.686-1.238-.684-2.093.01-.652.53-.678.69-.593 3.697.078 2.799.023 3.225-.498 3.888-.803 1.022-2.85 1.546-3.552.911-.864-.782-1.687-3.517-2.057-6.833-.328-2.943-.413-3.221-1.155-3.775-.37-.276-.585-.417-.798-.439zm47.84.201c-5.06.045-7.525 4.321-6.362 11.037.641 3.704 1.62 4.763 3.31 3.58.609-.426.657-.62.488-1.95-.735-5.789-.489-7.94.998-8.709 2.907-1.503 4.995.998 5.313 6.363.114 1.923.242 2.396.763 2.818.828.67 1.395.639 2.204-.122.807-.757.894-2.747.253-5.772-.981-4.63-3.525-7.276-6.966-7.245zm-62.398.03c-.566-.014-1.13.213-1.435.682-.374.576-.348 1.353.218 6.757.402 3.83.785 6.28 1.03 6.575.491.592 2.153.61 2.636.027.437-.527.455-1.11.15-4.939-.282-2.32-.575-2.582.961-4.118.938-.937 1.41-1.195 2.19-1.195 1.194.113 2.4.93 3.39.1.67-.606.681-1.895.021-2.492-1.365-1.235-4.216-1.48-6.092-.523l-1.15.587-.467-.715c-.317-.484-.886-.734-1.452-.747zm-80.535.61c-.65 0-1.702.98-1.702 1.584 0 .236 1.04 5.123 2.312 10.861 2.405 10.852 2.66 12.887 1.84 14.618-.619 1.303-1.717 1.837-3.776 1.837-3.42 0-5.119-1.961-5.137-5.928-.011-2.35-.373-3.03-1.612-3.03-1.038 0-1.646.617-1.89 1.916-.66 3.519 1.402 8.208 4.249 9.66 2.498 1.275 5.915 1.381 8.236.258 1.472-.713 2.576-1.932 3.39-3.742 1.075-2.391.825-4.661-1.808-16.474-2.456-11.022-2.647-11.56-4.102-11.56zM193.34-12.47c-.607.014-1.17.092-1.639.247-3.386 1.117-4.775 7.037-2.452 10.45 2.179 3.2 5.849 4.66 9.303 3.702 1.445-.401 3.654-2.419 3.654-3.337 0-.819-.94-1.842-1.693-1.842-.296 0-1.034.394-1.638.874-1.393 1.107-2.218 1.31-3.618.89-2.496-.747-3.906-2.713-3.59-5.004.351-2.56 1.577-3.074 4.621-1.935.943.353 1.908.533 2.315.43.875-.22 1.396-1.16 1.16-2.095-.3-1.195-3.277-2.262-5.803-2.373a9.333 9.333 0 0 0-.62-.007zm-10.07.199c-.499 0-1 .205-1.32.601-.477.588-.538.593-1.607.147-2.59-1.082-5.862.054-7.703 2.673-1.93 2.747-1.106 6.864 1.77 8.844 1.693 1.164 4.257 1.44 6.26.675 1.232-.47 1.29-.466 1.867.11.719.72 1.662.765 2.379.117.603-.545.646-1.588.338-8.027-.147-3.052-.301-4.108-.668-4.561-.316-.39-.816-.584-1.315-.58zm23.563.2c-.483.01-.954.3-1.345.897-.4.611-.373.852.315 2.846.549 1.59.802 3.05.937 5.41.147 2.584.29 3.336.715 3.761.65.65 1.353.676 2.201.081.58-.406.643-.692.641-2.962 0-3.136-.42-5.773-1.242-7.838-.573-1.44-1.416-2.21-2.222-2.195zm91.749.151c1.268 0 2.802 1.21 2.248 1.773-.484.491-4.118.73-4.118.27 0-.186.2-.721.442-1.19.357-.692.626-.853 1.428-.853zm-78.742.162c1.097.01 2.308.392 2.308.968 0 .927-2.497 1.694-4.13 1.27-.579-.15-.45-1.066.255-1.807.29-.306.909-.436 1.567-.431zm185.106.271c1.157 0 1.467.134 2.191.944 1.502 1.681.994 4.008-1.063 4.867-1.158.484-1.18.484-2.32-.013-2-.87-2.48-3.198-1-4.854.724-.81 1.034-.944 2.192-.944zm-47.02.176c1.183-.064 2.453.236 3.114.854 1.64 1.532 2.035 3.69.99 5.404-1.176 1.929-3.652 2.63-5.708 1.617-2.722-1.342-2.887-5.717-.277-7.357.495-.31 1.172-.48 1.882-.518zm-179.813 2.96c.817.003 1.641.357 2.256 1.087 2.334 2.775-1.367 6.476-4.141 4.141-1.108-.932-1.412-2.324-.775-3.555.506-.978 1.384-1.542 2.31-1.652.116-.014.233-.021.35-.02zm17.238 40.085-2.18 6.454h.622l2.178-6.454h-.62zm13.414.144v2.52a1.436 1.436 0 0 0-.47-.591 1.206 1.206 0 0 0-.771-.257c-.494 0-.903.194-1.226.583-.323.383-.484.91-.484 1.58 0 .38.05.714.151 1.007.106.287.242.514.409.68.171.162.353.283.545.364a1.5 1.5 0 0 0 .605.129c.293 0 .547-.08.764-.242a1.5 1.5 0 0 0 .492-.629v.735h.56v-5.88h-.575zm48.434 0v5.879h.575v-2.414c0-.353.116-.658.348-.915.232-.258.504-.386.817-.386.565 0 .847.393.847 1.18v2.535h.576v-2.633c0-1.05-.44-1.574-1.317-1.574-.288 0-.545.078-.772.234a1.416 1.416 0 0 0-.484.56h-.015v-2.466h-.575zm14.874 0v2.52a1.436 1.436 0 0 0-.47-.591 1.206 1.206 0 0 0-.77-.257c-.495 0-.904.194-1.226.583-.323.383-.485.91-.485 1.58 0 .38.05.714.152 1.007.106.287.242.514.408.68.171.162.353.283.545.364.196.086.398.129.605.129.293 0 .547-.08.764-.242a1.5 1.5 0 0 0 .492-.629v.735h.56v-5.88h-.575zm41.028 0v2.52a1.435 1.435 0 0 0-.47-.591 1.207 1.207 0 0 0-.771-.257c-.495 0-.903.194-1.226.583-.322.383-.484.91-.484 1.58 0 .38.05.714.151 1.007.106.287.243.514.409.68.171.162.353.283.545.364a1.5 1.5 0 0 0 .605.129c.292 0 .547-.08.764-.242a1.5 1.5 0 0 0 .492-.629v.735h.56v-5.88h-.575zm13.565 0v5.879h.575v-.727c.096.237.254.441.476.613.222.166.477.25.764.25.207 0 .406-.043.598-.13a1.66 1.66 0 0 0 .545-.37c.171-.166.307-.393.408-.68a2.92 2.92 0 0 0 .159-1c0-.67-.159-1.197-.477-1.58a1.52 1.52 0 0 0-1.233-.583c-.302 0-.567.09-.794.273-.227.181-.376.378-.446.59v-2.535h-.575zm9.033 0v2.52a1.436 1.436 0 0 0-.47-.591 1.206 1.206 0 0 0-.77-.257c-.495 0-.904.194-1.226.583-.323.383-.485.91-.485 1.58 0 .38.05.714.152 1.007.106.287.242.514.408.68.172.162.353.283.545.364.196.086.399.129.605.129.293 0 .547-.08.764-.242a1.5 1.5 0 0 0 .492-.629v.735h.56v-5.88h-.575zm14.223 0v5.879h.575v-5.88h-.575zm-131.194.129v.764h.742v-.764h-.742zm42.867 0v.764h.741v-.764h-.741zm20.442 0v.764h.741v-.764h-.741zm-97.996.083v3.616c0 .701.174 1.24.522 1.62.353.377.845.567 1.475.567.646 0 1.142-.192 1.49-.576.348-.388.522-.925.522-1.61V32.09h-.605v3.601c0 .55-.131.968-.394 1.256-.257.282-.594.424-1.013.424-.409 0-.744-.139-1.006-.416-.257-.278-.386-.699-.386-1.264V32.09h-.605zm4.849 0 1.77 2.754-1.861 2.913h.742l.885-1.423c.191-.313.39-.648.598-1.006h.03c.04.065.134.222.28.47l.325.536.893 1.423h.741l-1.876-2.913 1.785-2.754h-.756l-.832 1.37-.272.438c-.127.207-.223.368-.288.484h-.03a23.443 23.443 0 0 0-.243-.409 27.868 27.868 0 0 0-.302-.514l-.832-1.37h-.757zm7.755 0v3.616c0 .701.173 1.24.521 1.62.354.377.845.567 1.476.567.645 0 1.142-.192 1.49-.576.348-.388.522-.925.522-1.61V32.09h-.605v3.601c0 .55-.131.968-.393 1.256-.257.282-.596.424-1.014.424-.409 0-.744-.139-1.006-.416-.258-.278-.386-.699-.386-1.264V32.09h-.605zm5.56 0v5.667h.606V32.09h-.606zm9.964 1.46c-.545 0-.989.2-1.332.598-.342.393-.514.908-.514 1.543 0 .66.172 1.193.514 1.596.343.404.797.606 1.362.606.419 0 .77-.096 1.052-.288.282-.191.487-.436.613-.734l-.5-.151a1.311 1.311 0 0 1-.469.5 1.326 1.326 0 0 1-.696.18c-.403 0-.719-.146-.946-.438a1.664 1.664 0 0 1-.34-1.052h3.027c.01-.13.015-.231.015-.302 0-.6-.16-1.092-.477-1.475-.318-.389-.754-.583-1.309-.583zm4.025 0c-.474 0-.847.106-1.12.317a.998.998 0 0 0-.408.825c0 .177.035.333.106.47.075.136.181.251.317.347.137.091.268.164.394.22.126.055.277.11.454.166.202.066.345.114.43.144.092.025.205.068.341.129.137.055.23.108.28.159a.688.688 0 0 1 .151.181c.046.07.069.151.069.242a.531.531 0 0 1-.28.484c-.181.111-.427.167-.734.167-.51 0-.913-.235-1.21-.704l-.44.258c.172.297.399.53.681.696.283.161.606.242.969.242.5 0 .89-.109 1.173-.326.287-.221.43-.494.43-.817a.806.806 0 0 0-.09-.378.902.902 0 0 0-.227-.295 1.664 1.664 0 0 0-.34-.227 2.902 2.902 0 0 0-.379-.167 8.578 8.578 0 0 0-.385-.128c-.172-.056-.31-.1-.416-.136-.101-.04-.215-.094-.34-.16a.807.807 0 0 1-.273-.241.583.583 0 0 1-.091-.318c0-.202.078-.36.234-.476.162-.122.396-.182.704-.182.242 0 .461.065.658.196.202.127.356.278.462.454l.393-.257c-.121-.237-.32-.444-.598-.62a1.672 1.672 0 0 0-.915-.265zm5.962 0c-.495 0-.898.194-1.211.583-.313.383-.469.89-.469 1.52 0 .61.154 1.112.462 1.506.307.388.718.582 1.233.582.282 0 .522-.073.718-.219.202-.146.356-.333.462-.56v.583c0 .469-.101.842-.303 1.12-.197.282-.474.423-.832.423-.434 0-.807-.177-1.12-.53l-.408.265c.358.495.863.742 1.513.742.6 0 1.036-.19 1.309-.568.277-.373.416-.946.416-1.717v-3.594h-.575v.666a1.379 1.379 0 0 0-.431-.56c-.197-.161-.452-.242-.764-.242zm4.88 0c-.328 0-.61.088-.848.265-.237.176-.385.365-.446.567h-.008v-.696h-.575v4.07h.59v-2.428c0-.353.114-.656.341-.908.227-.252.497-.378.81-.378.564 0 .847.393.847 1.18v2.535h.59v-2.633c0-.575-.124-.981-.37-1.218-.243-.237-.553-.356-.931-.356zm4.04 0c-.545 0-.99.2-1.332.598-.343.393-.515.908-.515 1.543 0 .66.172 1.193.515 1.596.343.404.797.606 1.362.606.418 0 .769-.096 1.051-.288.283-.191.487-.436.613-.734l-.5-.151a1.311 1.311 0 0 1-.468.5 1.326 1.326 0 0 1-.696.18c-.404 0-.72-.146-.946-.438a1.664 1.664 0 0 1-.34-1.052h3.025c.01-.13.016-.231.016-.302 0-.6-.16-1.092-.477-1.475-.318-.389-.754-.583-1.308-.583zm4.387 0c-.292 0-.532.076-.718.227-.187.151-.32.318-.401.5v-.59h-.56v4.07h.59v-2.27c0-.424.096-.764.287-1.022.192-.257.46-.386.802-.386.202 0 .394.036.576.106v-.529a1.462 1.462 0 0 0-.576-.106zm7.12 0c-.495 0-.898.194-1.21.583-.314.383-.47.89-.47 1.52 0 .61.154 1.112.461 1.506.308.388.72.582 1.234.582.282 0 .521-.073.718-.219.202-.146.356-.333.462-.56v.583c0 .469-.101.842-.303 1.12-.196.282-.474.423-.832.423-.434 0-.807-.177-1.12-.53l-.408.265c.358.495.862.742 1.513.742.6 0 1.036-.19 1.309-.568.277-.373.416-.946.416-1.717v-3.594h-.575v.666a1.379 1.379 0 0 0-.431-.56c-.197-.161-.452-.242-.765-.242zm4.683 0c-.293 0-.532.076-.72.227-.186.151-.32.318-.4.5v-.59h-.56v4.07h.59v-2.27c0-.424.096-.764.288-1.022.191-.257.459-.386.802-.386.202 0 .393.036.574.106v-.529a1.46 1.46 0 0 0-.574-.106zm2.572 0c-.318 0-.62.073-.908.22a2.436 2.436 0 0 0-.726.567l.378.317c.156-.191.345-.342.567-.453.227-.116.462-.174.704-.174.333 0 .59.083.772.25a.816.816 0 0 1 .272.627v.235c-.171.055-.52.126-1.044.212-1.17.181-1.755.65-1.755 1.407 0 .333.123.605.37.817.252.212.603.318 1.052.318.343 0 .64-.079.893-.235.252-.161.418-.35.499-.567v.666h.56v-2.61c0-1.065-.545-1.597-1.634-1.597zm4.668 0c-.283 0-.535.08-.757.242a1.507 1.507 0 0 0-.5.628v-.734h-.559v5.848h.575v-2.481c.1.242.257.444.47.605.21.156.468.235.77.235.465 0 .866-.187 1.204-.56.338-.378.507-.918.507-1.62 0-.655-.162-1.18-.485-1.573-.322-.393-.731-.59-1.225-.59zm10.652 0c-.555 0-.996.202-1.324.605-.328.399-.492.92-.492 1.566 0 .66.167 1.188.5 1.581.337.394.777.59 1.316.59.373 0 .698-.105.976-.317.282-.217.476-.477.582-.78l-.499-.158c-.08.202-.22.38-.416.537a1.011 1.011 0 0 1-.643.227c-.353 0-.646-.152-.878-.454-.232-.303-.348-.711-.348-1.226 0-.484.111-.885.333-1.202.222-.318.52-.477.893-.477.222 0 .416.068.583.204.171.136.294.305.37.507l.5-.144a1.471 1.471 0 0 0-.523-.742 1.415 1.415 0 0 0-.93-.317zm10.32 0c-.545 0-.99.2-1.332.598-.343.393-.514.908-.514 1.543 0 .66.17 1.193.514 1.596.343.404.797.606 1.361.606.42 0 .77-.096 1.052-.288.283-.191.487-.436.613-.734l-.5-.151a1.311 1.311 0 0 1-.468.5 1.326 1.326 0 0 1-.697.18c-.403 0-.718-.146-.945-.438a1.664 1.664 0 0 1-.34-1.052h3.026c.01-.13.015-.231.015-.302 0-.6-.159-1.092-.477-1.475-.317-.389-.754-.583-1.309-.583zm4.024 0c-.474 0-.847.106-1.12.317a.998.998 0 0 0-.408.825c0 .177.035.333.106.47.076.136.182.251.318.347.136.091.267.164.393.22.126.055.278.11.454.166.202.066.345.114.431.144.091.025.205.068.34.129a.89.89 0 0 1 .28.159.688.688 0 0 1 .152.181c.045.07.068.151.068.242a.532.532 0 0 1-.28.484c-.182.111-.426.167-.734.167-.51 0-.913-.235-1.21-.704l-.439.258c.172.297.398.53.68.696.283.161.606.242.969.242.5 0 .89-.109 1.173-.326.288-.221.431-.494.431-.817a.806.806 0 0 0-.09-.378.902.902 0 0 0-.228-.295 1.663 1.663 0 0 0-.34-.227 2.901 2.901 0 0 0-.379-.167 8.578 8.578 0 0 0-.385-.128c-.172-.056-.31-.1-.417-.136-.1-.04-.214-.094-.34-.16a.807.807 0 0 1-.272-.241.583.583 0 0 1-.09-.318c0-.202.077-.36.234-.476.161-.122.395-.182.703-.182.242 0 .462.065.658.196.202.127.356.278.462.454l.393-.257c-.12-.237-.32-.444-.597-.62a1.672 1.672 0 0 0-.916-.265zm5.962 0c-.494 0-.898.194-1.21.583-.314.383-.47.89-.47 1.52 0 .61.154 1.112.462 1.506.308.388.718.582 1.233.582.282 0 .522-.073.719-.219.202-.146.355-.333.461-.56v.583c0 .469-.1.842-.303 1.12-.196.282-.473.423-.832.423-.433 0-.807-.177-1.12-.53l-.408.265c.358.495.863.742 1.513.742.6 0 1.037-.19 1.309-.568.277-.373.416-.946.416-1.717v-3.594h-.575v.666a1.38 1.38 0 0 0-.431-.56c-.197-.161-.451-.242-.764-.242zm4.88 0c-.328 0-.61.088-.847.265-.237.176-.386.365-.447.567h-.007v-.696h-.576v4.07h.591v-2.428c0-.353.114-.656.34-.908.228-.252.497-.378.81-.378.565 0 .847.393.847 1.18v2.535h.59v-2.633c0-.575-.123-.981-.37-1.218-.243-.237-.552-.356-.93-.356zm4.04 0c-.545 0-.989.2-1.332.598-.343.393-.515.908-.515 1.543 0 .66.172 1.193.515 1.596.343.404.797.606 1.362.606.418 0 .769-.096 1.051-.288.283-.191.487-.436.613-.734l-.499-.151a1.311 1.311 0 0 1-.47.5 1.326 1.326 0 0 1-.695.18c-.404 0-.719-.146-.946-.438a1.664 1.664 0 0 1-.34-1.052h3.026c.01-.13.015-.231.015-.302 0-.6-.159-1.092-.477-1.475-.317-.389-.753-.583-1.308-.583zm4.388 0c-.293 0-.533.076-.72.227-.186.151-.32.318-.4.5v-.59h-.56v4.07h.59v-2.27c0-.424.096-.764.288-1.022.191-.257.459-.386.802-.386.201 0 .393.036.575.106v-.529a1.463 1.463 0 0 0-.575-.106zm4.501 0c-.318 0-.62.073-.908.22a2.438 2.438 0 0 0-.726.567l.378.317c.156-.191.346-.342.568-.453.227-.116.461-.174.703-.174.333 0 .59.083.772.25a.816.816 0 0 1 .272.627v.235c-.171.055-.52.126-1.044.212-1.17.181-1.755.65-1.755 1.407 0 .333.124.605.37.817.253.212.603.318 1.052.318.343 0 .64-.079.893-.235.252-.161.419-.35.5-.567v.666h.56v-2.61c0-1.065-.545-1.597-1.635-1.597zm4.684 0c-.328 0-.61.088-.848.265-.237.176-.386.365-.446.567h-.008v-.696h-.575v4.07h.59v-2.428c0-.353.114-.656.34-.908.228-.252.498-.378.81-.378.565 0 .848.393.848 1.18v2.535h.59v-2.633c0-.575-.124-.981-.37-1.218-.243-.237-.553-.356-.931-.356zm15.955 0c-.545 0-.989.2-1.332.598-.343.393-.514.908-.514 1.543 0 .66.172 1.193.515 1.596.343.404.796.606 1.361.606.419 0 .77-.096 1.052-.288.282-.191.487-.436.613-.734l-.5-.151a1.31 1.31 0 0 1-.469.5 1.326 1.326 0 0 1-.696.18c-.403 0-.719-.146-.945-.438a1.664 1.664 0 0 1-.341-1.052h3.026c.01-.13.015-.231.015-.302 0-.6-.159-1.092-.476-1.475-.318-.389-.754-.583-1.31-.583zm15.192 0c-.545 0-.99.2-1.332.598-.343.393-.515.908-.515 1.543 0 .66.172 1.193.515 1.596.343.404.797.606 1.362.606.418 0 .769-.096 1.051-.288.283-.191.487-.436.613-.734l-.5-.151a1.311 1.311 0 0 1-.468.5 1.326 1.326 0 0 1-.696.18c-.404 0-.72-.146-.946-.438a1.664 1.664 0 0 1-.34-1.052h3.025c.01-.13.016-.231.016-.302 0-.6-.16-1.092-.477-1.475-.318-.389-.754-.583-1.308-.583zm8.019 0c-.545 0-.988.2-1.331.598-.343.393-.515.908-.515 1.543 0 .66.172 1.193.515 1.596.343.404.796.606 1.361.606.419 0 .77-.096 1.052-.288.282-.191.487-.436.613-.734l-.5-.151a1.31 1.31 0 0 1-.469.5 1.326 1.326 0 0 1-.696.18c-.403 0-.719-.146-.945-.438a1.664 1.664 0 0 1-.341-1.052h3.026c.01-.13.015-.231.015-.302 0-.6-.159-1.092-.476-1.475-.318-.389-.754-.583-1.31-.583zm6.234 0c-.58 0-1.032.207-1.354.62-.318.414-.477.93-.477 1.551 0 .267.035.525.106.772.07.247.174.48.31.696.141.212.333.383.575.514.247.126.527.19.84.19.318 0 .598-.066.84-.197.247-.131.438-.303.574-.515.142-.216.245-.448.31-.696.072-.247.107-.502.107-.764 0-.62-.162-1.137-.484-1.55-.323-.414-.772-.62-1.347-.62zm4.63 0c-.283 0-.535.08-.757.242a1.507 1.507 0 0 0-.5.628v-.734h-.559v5.848h.575v-2.481c.1.242.257.444.47.605.211.156.468.235.77.235.465 0 .866-.187 1.204-.56.338-.378.507-.918.507-1.62 0-.655-.162-1.18-.485-1.573-.322-.393-.731-.59-1.225-.59zm4.222 0c-.545 0-.99.2-1.332.598-.343.393-.515.908-.515 1.543 0 .66.172 1.193.515 1.596.343.404.797.606 1.362.606.418 0 .769-.096 1.051-.288.283-.191.487-.436.613-.734l-.5-.151a1.311 1.311 0 0 1-.468.5 1.326 1.326 0 0 1-.696.18c-.404 0-.72-.146-.946-.438a1.664 1.664 0 0 1-.34-1.052h3.026c.01-.13.015-.231.015-.302 0-.6-.16-1.092-.477-1.475-.318-.389-.754-.583-1.308-.583zm4.387 0c-.292 0-.532.076-.718.227-.187.151-.32.318-.401.5v-.59h-.56v4.07h.59v-2.27c0-.424.096-.764.287-1.022.192-.257.46-.386.802-.386.202 0 .394.036.576.106v-.529a1.463 1.463 0 0 0-.576-.106zm-147.777.136v4.07h.575v-4.07h-.575zm42.867 0v4.07h.574v-4.07h-.574zm20.442 0v4.07h.574v-4.07h-.574zm34.15 0 1.12 4.07h.734l.613-2.45c.025-.097.098-.43.22-1h.03c.01.051.083.384.219 1l.613 2.45h.734l1.119-4.07h-.65l-.598 2.527c-.131.61-.205.946-.22 1.006h-.03a25.56 25.56 0 0 0-.121-.53l-.106-.446-.628-2.557h-.696l-.62 2.527c-.02.096-.058.257-.114.484-.055.227-.096.401-.12.522h-.031l-.22-1.006-.597-2.527h-.65zm24.99 0 1.497 4.07h.711l1.498-4.07h-.65l-.863 2.55c-.035.116-.09.285-.166.507-.076.222-.132.39-.167.507h-.015l-.151-.485c-.07-.226-.126-.403-.167-.53l-.877-2.549h-.65zm-133.669.356c.328 0 .606.151.833.454.232.302.348.708.348 1.218 0 .514-.116.925-.348 1.233-.227.302-.505.454-.833.454-.353 0-.64-.154-.862-.462-.222-.308-.333-.716-.333-1.225 0-.505.109-.908.326-1.21.222-.309.511-.462.87-.462zm4.57 0c.363 0 .653.138.87.416.217.272.325.608.325 1.006h-2.436c.01-.383.126-.716.348-.999a1.09 1.09 0 0 1 .893-.423zm10.062 0c.328 0 .595.144.802.431.212.283.318.67.318 1.165 0 .51-.103.905-.31 1.188a.96.96 0 0 1-.825.424c-.343 0-.62-.147-.832-.44-.212-.297-.318-.685-.318-1.164 0-.47.106-.853.318-1.15.212-.303.494-.454.847-.454zm8.845 0c.363 0 .652.138.87.416.216.272.325.608.325 1.006h-2.436c.01-.383.126-.716.348-.999a1.09 1.09 0 0 1 .893-.423zm11.582 0c.328 0 .596.144.802.431.212.283.318.67.318 1.165 0 .51-.104.905-.31 1.188a.96.96 0 0 1-.825.424c-.343 0-.62-.147-.832-.44-.212-.297-.318-.685-.318-1.164 0-.47.106-.853.318-1.15.212-.303.494-.454.847-.454zm11.772 0c.368 0 .658.156.87.469.217.313.325.714.325 1.203 0 .52-.113.93-.34 1.233-.227.302-.512.454-.855.454a.977.977 0 0 1-.855-.462c-.207-.313-.31-.72-.31-1.225 0-.484.109-.883.325-1.195.217-.318.497-.477.84-.477zm16.478 0c.328 0 .605.151.832.454.232.302.348.708.348 1.218 0 .514-.116.925-.348 1.233-.227.302-.504.454-.832.454-.353 0-.64-.154-.863-.462-.222-.308-.333-.716-.333-1.225 0-.505.109-.908.326-1.21.221-.309.512-.462.87-.462zm4.57 0c.363 0 .652.138.87.416.216.272.325.608.325 1.006h-2.436c.01-.383.126-.716.348-.999a1.09 1.09 0 0 1 .892-.423zm10.061 0c.328 0 .596.144.802.431.212.283.318.67.318 1.165 0 .51-.103.905-.31 1.188a.96.96 0 0 1-.825.424c-.343 0-.62-.147-.832-.44-.212-.297-.317-.685-.317-1.164 0-.47.105-.853.317-1.15.212-.303.494-.454.847-.454zm8.845 0c.363 0 .653.138.87.416.216.272.325.608.325 1.006h-2.436c.01-.383.126-.716.348-.999a1.09 1.09 0 0 1 .893-.423zm17.552 0c.328 0 .605.151.832.454.232.302.348.708.348 1.218 0 .514-.116.925-.348 1.233-.227.302-.504.454-.832.454-.353 0-.64-.154-.863-.462-.222-.308-.333-.716-.333-1.225 0-.505.109-.908.325-1.21.222-.309.513-.462.87-.462zm11.976 0c.363 0 .653.138.87.416.217.272.325.608.325 1.006h-2.436c.01-.383.126-.716.348-.999a1.09 1.09 0 0 1 .893-.423zm4.494 0c.353 0 .64.151.862.454.222.302.333.708.333 1.218 0 .524-.113.938-.34 1.24-.222.298-.507.447-.855.447-.328 0-.608-.152-.84-.454-.227-.308-.34-.719-.34-1.233 0-.51.113-.916.34-1.218.232-.303.512-.454.84-.454zm6.128 0c.328 0 .605.151.832.454.232.302.348.708.348 1.218 0 .514-.116.925-.348 1.233-.227.302-.504.454-.832.454-.353 0-.64-.154-.863-.462-.222-.308-.332-.716-.332-1.225 0-.505.108-.908.325-1.21.222-.309.512-.462.87-.462zm4.57 0c.363 0 .652.138.87.416.216.272.325.608.325 1.006h-2.436c.01-.383.126-.716.348-.999a1.09 1.09 0 0 1 .893-.423zm8.019 0c.363 0 .653.138.87.416.217.272.325.608.325 1.006h-2.436c.01-.383.126-.716.348-.999a1.09 1.09 0 0 1 .893-.423zm6.234 0c.343 0 .635.149.877.446.243.298.364.709.364 1.233 0 .515-.121.923-.364 1.226-.237.302-.529.454-.877.454-.353 0-.648-.152-.885-.454-.237-.303-.356-.711-.356-1.226 0-.524.119-.935.356-1.233.242-.297.537-.446.885-.446zm4.554 0c.368 0 .659.156.87.469.217.313.325.714.325 1.203 0 .52-.113.93-.34 1.233-.227.302-.512.454-.855.454a.976.976 0 0 1-.855-.462c-.206-.313-.31-.72-.31-1.225 0-.484.109-.883.325-1.195.217-.318.497-.477.84-.477zm4.298 0c.363 0 .652.138.87.416.216.272.325.608.325 1.006h-2.436c.01-.383.126-.716.348-.999a1.09 1.09 0 0 1 .893-.423zM250.897 35.6v.568c0 .358-.129.653-.386.885a1.303 1.303 0 0 1-.915.348c-.283 0-.505-.066-.666-.197a.623.623 0 0 1-.242-.492c0-.247.093-.444.28-.59.187-.146.476-.254.87-.325.484-.076.837-.141 1.06-.197zm53.435 0v.568c0 .358-.128.653-.385.885a1.304 1.304 0 0 1-.916.348c-.283 0-.504-.066-.666-.197a.623.623 0 0 1-.242-.492c0-.247.093-.444.28-.59.187-.146.477-.254.87-.325.484-.076.837-.141 1.059-.197zm-67.318 1.256-.62 2.217h.477l.983-2.217h-.84z" style="font-size:7.74709px;font-family:&quot;Gothic A1&quot;;-inkscape-font-specification:&quot;Gothic A1, Normal&quot;;fill:#dcdceb;stroke:none;stroke-width:3.19618;stroke-linecap:round;stroke-linejoin:round;paint-order:markers fill stroke" transform="translate(-26.268 55.912)"/></svg>