<svg xmlns="http://www.w3.org/2000/svg" width="1884.76" height="470.203" viewBox="0 0 498.676 124.408"><path d="M-88.515 432.073a13.551 13.551 0 0 0-13.582 13.581V542.9a13.551 13.551 0 0 0 13.582 13.58h471.514a13.55 13.55 0 0 0 13.58-13.58v-97.245A13.55 13.55 0 0 0 383 432.074H-88.515Z" style="fill:#1a1423;fill-opacity:1;stroke:none;stroke-width:1.32292;stroke-linecap:round;stroke-linejoin:round;stroke-dasharray:none;stroke-opacity:1" transform="translate(102.097 -432.073)"/><path d="M255.889 470.051c-.288.177-.74.354-1.359.53-.597.177-1.237.321-1.922.432-.685.11-1.293.165-1.823.165a3.55 3.55 0 0 0-.265.73 4.452 4.452 0 0 0-.066.795c.729.022 1.27.121 1.623.298.354.155.586.409.697.762.11.332.165.762.165 1.293v14.283c0 1.105-.154 1.856-.464 2.254-.309.397-.905.607-1.79.63a7.174 7.174 0 0 0-.165.795c-.022.287-.033.585-.033.894a82.78 82.78 0 0 1 1.226-.066c.464 0 .95-.01 1.458-.033h3.679c.729.022 1.358.055 1.889.1 0-.244-.011-.52-.034-.829a4.425 4.425 0 0 0-.132-.861c-.685-.023-1.17-.233-1.458-.63-.265-.42-.398-1.171-.398-2.254v-2.866c.395.414.802.86 1.226 1.342a36.56 36.56 0 0 1 1.856 2.22c.62.751 1.182 1.48 1.69 2.188.53.707.973 1.336 1.326 1.888.486-.088.994-.154 1.525-.199l1.59-.066a40.616 40.616 0 0 1 1.624-.033 2.58 2.58 0 0 0 .166-.762c.044-.287.066-.597.066-.928a5.44 5.44 0 0 1-1.193-.232 2.986 2.986 0 0 1-.928-.563c-.287-.266-.63-.641-1.027-1.127a61.045 61.045 0 0 0-2.95-3.546 39.558 39.558 0 0 0-1.862-1.963l2.69-2.445c.553-.508 1.05-.895 1.492-1.16a5.34 5.34 0 0 1 1.292-.63c.42-.132.862-.21 1.326-.232.11-.243.177-.508.199-.795.044-.287.067-.574.067-.861l-1.658.066h-4.11a542.73 542.73 0 0 1-1.291-.066c0 .287.01.563.033.828.044.265.11.541.199.828.331 0 .563.045.695.133a.43.43 0 0 1 .232.398c0 .198-.143.486-.43.862-.265.375-.752.872-1.459 1.49l-2.386 2.202v-13.734c0-.464-.077-.807-.232-1.028a1.179 1.179 0 0 0-.596-.497zm-177.9.696c-.64 0-1.193.21-1.657.63-.464.398-.696.94-.696 1.624 0 .597.21 1.105.63 1.524.442.398.994.597 1.657.597.707 0 1.281-.21 1.723-.63.464-.42.696-.917.696-1.491 0-.685-.21-1.226-.63-1.624-.42-.42-.994-.63-1.723-.63zm26.739 0c-.64 0-1.193.21-1.657.63-.464.398-.696.94-.696 1.624 0 .597.21 1.105.63 1.524.442.398.994.597 1.657.597.707 0 1.281-.21 1.723-.63.464-.42.696-.917.696-1.491 0-.685-.21-1.226-.63-1.624-.42-.42-.994-.63-1.723-.63zm23.497.365a12.64 12.64 0 0 0-4.143.696 10.532 10.532 0 0 0-3.579 2.121c-1.038.95-1.867 2.143-2.486 3.58-.618 1.413-.928 3.059-.928 4.937 0 2.298.453 4.33 1.359 6.098.928 1.745 2.199 3.115 3.812 4.11 1.612.971 3.468 1.457 5.567 1.457 1.7 0 3.192-.243 4.474-.729 1.281-.508 2.519-1.226 3.712-2.154a2.586 2.586 0 0 0-.265-.663 1.984 1.984 0 0 0-.431-.563 12.542 12.542 0 0 1-2.917 1.359 10.65 10.65 0 0 1-3.049.464c-1.701 0-3.148-.442-4.341-1.326-1.193-.906-2.099-2.132-2.717-3.679-.619-1.568-.929-3.313-.929-5.236 0-1.148.133-2.242.398-3.28.266-1.061.674-2 1.226-2.817a6.205 6.205 0 0 1 2.22-1.989c.907-.486 1.99-.729 3.249-.729.927 0 1.723.155 2.385.464.685.31 1.216.873 1.592 1.69.397.796.618 1.922.662 3.38.398 0 .774-.021 1.127-.066a5.39 5.39 0 0 0 .994-.265c0-.906.022-1.79.066-2.651.045-.884.144-1.713.299-2.486a17.911 17.911 0 0 0-3.58-1.292 15.827 15.827 0 0 0-3.778-.431zm-116.749.199c0 .287.011.574.033.862.022.287.078.563.166.828.619 0 1.094.1 1.425.298.354.199.585.541.696 1.028.11.463.133 1.126.067 1.988l-.995 10.903c-.11 1.37-.276 2.408-.497 3.115-.199.685-.475 1.16-.828 1.426-.332.243-.796.397-1.392.464-.067.243-.122.53-.166.861-.022.31-.033.585-.033.828a48.8 48.8 0 0 1 1.027-.066c.42 0 .851-.01 1.293-.033h3.015c.685.022 1.27.055 1.757.1 0-.244-.011-.52-.033-.829a3.141 3.141 0 0 0-.166-.861c-.618-.067-1.115-.232-1.491-.498-.354-.265-.575-.729-.663-1.392-.088-.685-.066-1.656.066-2.916l.978-9.902 7.572 16.596c.288 0 .575-.022.862-.066a2.58 2.58 0 0 0 .762-.166l6.69-16.362 1.131 10.795c.11 1.016.144 1.8.1 2.353-.044.53-.232.906-.564 1.127-.31.198-.817.342-1.524.43a9.152 9.152 0 0 0-.166.829 5.655 5.655 0 0 0-.066.861c.353-.022.784-.044 1.293-.066.508 0 1.027-.01 1.557-.033H37.226c.442.022.851.033 1.227.033.375.022.695.044.96.066 0-.287-.01-.585-.033-.894a3.059 3.059 0 0 0-.165-.828c-.508-.067-.928-.21-1.26-.431-.309-.221-.552-.63-.729-1.227-.176-.618-.32-1.49-.43-2.618l-1.16-11.433c-.133-1.37 0-2.287.397-2.75.398-.487 1.005-.73 1.823-.73.088-.265.144-.541.166-.828.022-.288.033-.575.033-.862-.287.022-.608.044-.961.066-.354 0-.707.011-1.06.034H34.044a17.53 17.53 0 0 0-1.094-.034 111.78 111.78 0 0 1-.994-.066l-6.724 17.358-7.725-17.358c-.288.022-.608.044-.961.066a18.1 18.1 0 0 0-1.06.034H13.497a19.17 19.17 0 0 0-1.127-.034 32.434 32.434 0 0 1-.895-.066zm37.482 7.026c-.95 0-1.977.132-3.082.398a14.25 14.25 0 0 0-3.016 1.027 9.81 9.81 0 0 1 .232 1.889c.022.685.011 1.314-.033 1.889.243.11.564.188.961.232.42.022.817.033 1.193.033.044-.53.155-1.083.332-1.657.177-.597.464-1.094.861-1.492.398-.42.928-.629 1.59-.629.399 0 .763.077 1.095.232.331.133.63.364.894.696.2.22.343.486.431.795.11.287.177.663.2 1.127.043.464.065 1.093.065 1.889-.64.088-1.359.21-2.154.365-.773.132-1.557.33-2.353.596a9.11 9.11 0 0 0-2.154.994 5.105 5.105 0 0 0-1.59 1.558c-.398.596-.597 1.315-.597 2.154 0 1.149.387 2.043 1.16 2.684.773.619 1.878.928 3.314.928.817 0 1.524-.1 2.12-.298.62-.22 1.128-.508 1.525-.862.398-.31.718-.685.961-1.126.11-.183.205-.366.288-.548-.008.05-.016.098-.022.15-.023.309-.034.574-.034.795 0 .596.078 1.039.232 1.326.155.287.387.497.697.63a8.712 8.712 0 0 1 2.02-.73 9.638 9.638 0 0 1 2.155-.331c.11-.265.177-.552.199-.861.044-.332.055-.641.033-.929-.596-.022-1.039-.11-1.326-.265-.265-.176-.453-.452-.563-.828-.089-.376-.132-.895-.132-1.558v-3.28c0-1.503-.111-2.685-.332-3.547-.2-.883-.563-1.58-1.094-2.088-.375-.397-.894-.717-1.557-.96-.663-.266-1.503-.398-2.519-.398zm17.134 0c-1.569 0-2.895.386-3.977 1.16a7.43 7.43 0 0 0-2.42 2.982 9.109 9.109 0 0 0-.828 3.811c0 1.746.342 3.193 1.027 4.341.685 1.15 1.58 2.022 2.685 2.619a7.842 7.842 0 0 0 3.612.861c1.26 0 2.342-.22 3.248-.662a5.844 5.844 0 0 0 2.287-1.922 1.85 1.85 0 0 0-.332-.697 1.638 1.638 0 0 0-.497-.53c-.464.53-1.005.94-1.624 1.227a4.446 4.446 0 0 1-1.955.43c-1.038 0-1.9-.287-2.585-.861-.685-.597-1.204-1.37-1.558-2.32a8.99 8.99 0 0 1-.497-2.983c0-1.79.288-3.181.862-4.175.597-1.017 1.392-1.525 2.386-1.525.884 0 1.602.343 2.154 1.027.553.663.884 1.635.994 2.917.332 0 .685-.022 1.061-.067.376-.066.685-.154.928-.265 0-.707.022-1.38.066-2.021.045-.641.122-1.27.232-1.889-.662-.486-1.436-.851-2.32-1.094-.862-.243-1.844-.364-2.95-.364zm13.223 0c-.287.176-.74.353-1.36.53-.596.177-1.247.32-1.954.43-.685.111-1.282.166-1.79.166-.132.221-.22.464-.265.73a4.45 4.45 0 0 0-.067.795c.73.022 1.271.122 1.625.298.353.155.585.409.695.763.11.33.166.762.166 1.292v5.998c0 1.105-.155 1.856-.464 2.254-.31.397-.906.608-1.79.63a2.986 2.986 0 0 0-.165.795c-.022.287-.033.585-.033.894.353-.022.751-.044 1.193-.066.464 0 .96-.01 1.491-.033H79.646c.508.022.994.033 1.458.033.464.022.873.044 1.227.066 0-.243-.011-.519-.033-.828a3.139 3.139 0 0 0-.166-.861c-.752-.023-1.27-.233-1.558-.63-.287-.398-.43-1.15-.43-2.254v-9.478c0-.464-.09-.806-.266-1.027-.155-.243-.342-.409-.563-.497zm12.422 0c-1.48 0-2.773.353-3.877 1.06a6.918 6.918 0 0 0-2.486 2.85c-.575 1.193-.862 2.53-.862 4.01 0 1.458.266 2.784.796 3.977a6.404 6.404 0 0 0 2.452 2.85c1.105.685 2.508 1.027 4.209 1.027 1.281 0 2.43-.198 3.447-.596 1.016-.42 1.921-1.083 2.717-1.988-.022-.244-.122-.498-.298-.763-.155-.265-.332-.453-.53-.563-.53.552-1.16.983-1.89 1.292-.728.31-1.469.464-2.22.464-1.215 0-2.165-.309-2.85-.928-.685-.618-1.17-1.413-1.458-2.386a10.87 10.87 0 0 1-.361-1.849c.594-.033 1.21-.058 1.852-.073a62.757 62.757 0 0 1 2.85-.066c.928-.022 1.779-.033 2.552-.033h1.856c.309-.354.52-.796.63-1.326-.067-1.304-.332-2.474-.796-3.513-.464-1.06-1.16-1.9-2.087-2.518-.928-.619-2.144-.928-3.646-.928zm14.317 0c-.287.176-.73.353-1.326.53a15.09 15.09 0 0 1-1.955.43c-.685.111-1.282.166-1.79.166-.132.221-.22.464-.265.73a4.45 4.45 0 0 0-.066.795c.729.022 1.27.122 1.624.298.353.155.585.409.695.763.11.33.166.762.166 1.292v9.71c0 1.06-.1 2-.298 2.817a7.421 7.421 0 0 1-.961 2.386c-.442.773-1.082 1.613-1.922 2.518.066.288.188.542.364.763.177.243.365.42.564.53a11.178 11.178 0 0 0 2.087-1.458 12.05 12.05 0 0 0 1.956-2.121 9.818 9.818 0 0 0 1.425-2.75c.353-1.017.53-2.155.53-3.414v-12.46c0-.465-.077-.807-.232-1.028a1.177 1.177 0 0 0-.596-.497zm56.57 0c-1.48 0-2.773.353-3.877 1.06a6.918 6.918 0 0 0-2.486 2.85c-.574 1.193-.861 2.53-.861 4.01 0 1.458.265 2.784.795 3.977a6.404 6.404 0 0 0 2.452 2.85c1.105.685 2.508 1.027 4.209 1.027 1.281 0 2.43-.198 3.447-.596 1.016-.42 1.922-1.083 2.718-1.988-.023-.244-.122-.498-.299-.763-.154-.265-.332-.453-.53-.563-.53.552-1.16.983-1.89 1.292-.728.31-1.469.464-2.22.464-1.215 0-2.165-.309-2.85-.928-.685-.618-1.17-1.413-1.458-2.386a10.872 10.872 0 0 1-.361-1.849c.594-.033 1.21-.058 1.852-.073a62.758 62.758 0 0 1 2.85-.066c.928-.022 1.779-.033 2.552-.033h1.856c.31-.354.52-.796.63-1.326-.067-1.304-.332-2.474-.796-3.513-.463-1.06-1.16-1.9-2.087-2.518-.928-.619-2.143-.928-3.645-.928zm14.383 0c-.508.265-1.26.508-2.254.729-.972.22-1.91.353-2.816.397-.133.221-.221.464-.266.73a4.452 4.452 0 0 0-.066.795c.73.022 1.26.133 1.591.331a1.3 1.3 0 0 1 .696.796c.11.331.166.784.166 1.358v5.667c0 .796-.066 1.414-.199 1.856-.133.42-.365.718-.696.895-.331.177-.796.287-1.392.332-.067.198-.11.442-.133.729-.022.265-.033.585-.033.96a37.09 37.09 0 0 1 2.187-.099h4.441c.575.022 1.105.033 1.591.033.508.022.939.044 1.292.066 0-.331-.01-.64-.033-.927a2.582 2.582 0 0 0-.165-.762c-.73-.067-1.326-.2-1.79-.398-.464-.221-.795-.586-.994-1.094-.199-.508-.299-1.237-.299-2.187v-2.519c0-.795.144-1.524.431-2.187.288-.685.63-1.226 1.028-1.624.42-.42.806-.63 1.16-.63.442 0 .795.166 1.06.498.288.331.442.993.464 1.988.398 0 .807-.033 1.227-.1.442-.066.795-.154 1.06-.265v-1.391c.022-.53.055-1.05.1-1.558.043-.509.099-.961.165-1.359-.707-.53-1.48-.795-2.32-.795-.883 0-1.668.254-2.353.762a7 7 0 0 0-1.756 1.922c-.155.265-.31.63-.464 1.094-.091.26-.193.548-.3.847.1-.487.2-.961.3-1.41a8.534 8.534 0 0 0 .198-1.857c0-.508-.076-.883-.231-1.126a1.179 1.179 0 0 0-.597-.497zm42.705 0c-1.524 0-2.883.331-4.076.994a7.257 7.257 0 0 0-2.817 2.784c-.663 1.193-.994 2.584-.994 4.175 0 1.59.31 2.972.928 4.143a6.496 6.496 0 0 0 2.684 2.717c1.193.64 2.596.961 4.209.961 1.59 0 2.972-.331 4.143-.994a7.257 7.257 0 0 0 2.784-2.817c.662-1.215.993-2.596.993-4.142 0-1.547-.309-2.905-.927-4.076a6.705 6.705 0 0 0-2.685-2.751c-1.149-.663-2.562-.994-4.242-.994zm15.596 0c-.508.265-1.259.508-2.253.729-.972.22-1.911.353-2.817.397-.133.221-.221.464-.265.73a4.452 4.452 0 0 0-.066.795c.729.022 1.259.133 1.59.331a1.3 1.3 0 0 1 .696.796c.11.331.166.784.166 1.358v5.866c0 1.105-.166 1.867-.497 2.287-.31.397-.895.597-1.757.597a4.511 4.511 0 0 0-.165.729 12.61 12.61 0 0 0-.033.96c.331-.022.74-.044 1.226-.066.508 0 1.038-.01 1.59-.033h3.016c.53.022 1.039.033 1.525.033.486.022.883.044 1.193.066 0-.353-.011-.662-.034-.927a2.288 2.288 0 0 0-.198-.762c-.773 0-1.315-.2-1.624-.597-.31-.42-.464-1.182-.464-2.287v-2.916c0-1.281.177-2.32.53-3.115.354-.795.796-1.381 1.326-1.757.53-.397 1.082-.596 1.657-.596.861 0 1.546.276 2.054.828.509.553.763 1.58.763 3.082v4.375c0 1.127-.177 1.91-.53 2.353-.332.42-.862.63-1.591.63-.089.22-.144.475-.166.762-.022.265-.033.574-.033.927.353-.022.773-.044 1.26-.066.485 0 .993-.01 1.524-.033h3.612c.685.022 1.27.055 1.756.1a5.96 5.96 0 0 0-.066-.961 2.516 2.516 0 0 0-.166-.73c-.618 0-1.082-.199-1.391-.596-.287-.398-.431-1.16-.431-2.287v-5.435c0-1.325-.232-2.386-.696-3.181-.464-.796-1.072-1.359-1.823-1.69a5.687 5.687 0 0 0-2.453-.53c-1.126 0-2.098.242-2.916.728-.795.486-1.402.983-1.822 1.492-.155.22-.288.43-.398.63a4.542 4.542 0 0 1-.298.563 7.105 7.105 0 0 0 .298-1.956c0-.508-.078-.883-.232-1.126a1.177 1.177 0 0 0-.597-.497zm41.69 0c-.95 0-1.976.132-3.081.398a14.25 14.25 0 0 0-3.016 1.027 9.81 9.81 0 0 1 .232 1.889c.022.685.011 1.314-.033 1.889.243.11.564.188.961.232.42.022.817.033 1.193.033.044-.53.155-1.083.332-1.657.176-.597.463-1.094.861-1.492.398-.42.928-.629 1.59-.629.398 0 .763.077 1.095.232.331.133.63.364.894.696.199.22.343.486.431.795.11.287.177.663.2 1.127.043.464.065 1.093.065 1.889-.64.088-1.358.21-2.154.365-.773.132-1.558.33-2.353.596a9.11 9.11 0 0 0-2.154.994 5.103 5.103 0 0 0-1.59 1.558c-.398.596-.597 1.315-.597 2.154 0 1.149.387 2.043 1.16 2.684.773.619 1.878.928 3.314.928.817 0 1.524-.1 2.12-.298.62-.22 1.127-.508 1.525-.862.398-.31.718-.685.961-1.126.11-.183.205-.366.288-.548l-.023.15c-.022.309-.033.574-.033.795 0 .596.078 1.039.232 1.326.155.287.387.497.696.63a8.708 8.708 0 0 1 2.021-.73 9.638 9.638 0 0 1 2.155-.331c.11-.265.177-.552.199-.861.044-.332.055-.641.033-.929-.597-.022-1.038-.11-1.326-.265-.265-.176-.453-.452-.563-.828-.089-.376-.133-.895-.133-1.558v-3.28c0-1.503-.11-2.685-.33-3.547-.2-.883-.565-1.58-1.095-2.088-.375-.397-.895-.717-1.557-.96-.663-.266-1.503-.398-2.52-.398zm-76.958.165c-.287 0-.586.011-.895.034a3.634 3.634 0 0 0-.762.132l-4.184 10.625a98.038 98.038 0 0 0-.953-3.069 94.366 94.366 0 0 0-1.359-3.877c-.176-.486-.276-.873-.298-1.16 0-.288.11-.497.331-.63.243-.154.652-.254 1.227-.298.066-.22.11-.487.132-.796.044-.331.067-.64.067-.927-.619.022-1.27.044-1.956.066-.663.022-1.38.033-2.154.033h-1.955l-1.657-.066c0 .265.01.552.033.861.044.31.11.586.199.83.486.132.861.341 1.126.629.265.265.52.706.762 1.325.332.818.675 1.702 1.028 2.652.354.95.718 1.943 1.094 2.982a64.668 64.668 0 0 1 1.126 3.115c.376 1.06.752 2.11 1.127 3.149a8.048 8.048 0 0 0 1.458-.133c.221-.044.398-.1.53-.166l4.167-10.077c.336.843.679 1.7 1.037 2.587.508 1.26 1.027 2.542 1.557 3.845a210.176 210.176 0 0 1 1.624 3.944c.243 0 .486-.011.729-.034.265-.022.508-.055.73-.099.242-.044.441-.1.596-.166l3.347-9.876c.332-.927.597-1.645.795-2.153.221-.509.443-.863.663-1.061.243-.221.541-.376.895-.464.11-.265.188-.542.232-.829.044-.287.066-.585.066-.894-.42.022-.872.044-1.358.066-.487.022-1.04.033-1.658.033-.53 0-1.06-.011-1.59-.033-.53-.022-1.005-.044-1.425-.066 0 .287.022.574.066.861.066.287.155.575.265.862.508.066.906.22 1.193.464.288.243.442.63.464 1.16.044.508-.088 1.237-.397 2.187l-1.672 5.288a395.573 395.573 0 0 0-2.007-5.122c-.84-2.1-1.635-4.01-2.386-5.733zm-60.514.034c0 .84-.023 1.69-.067 2.551-.044.84-.11 1.624-.198 2.353.287.133.63.221 1.027.265.398.045.773.066 1.126.066.2-.95.409-1.667.63-2.153.243-.509.574-.851.994-1.028.442-.177 1.027-.265 1.757-.265h2.636c-.263.409-.564.869-.913 1.392-.53.773-1.127 1.635-1.79 2.585l-2.054 2.883c-.685.972-1.348 1.9-1.989 2.784a66.978 66.978 0 0 1-1.69 2.32c0 .309.055.607.166.894.11.265.254.497.43.696.597-.022 1.37-.044 2.32-.066h6.032c.73.022 1.392.033 1.989.033.618 0 1.192.011 1.723.033.596 0 .994-.22 1.193-.663a17.114 17.114 0 0 1-.166-1.424l-.066-1.724a38.899 38.899 0 0 1-.033-1.458 4.968 4.968 0 0 0-1.094-.198 5.277 5.277 0 0 0-1.027-.034c-.066 1.016-.2 1.79-.398 2.32-.177.53-.475.895-.895 1.094-.42.199-1.016.298-1.79.298h-3.58c.5-.67 1.05-1.42 1.659-2.254.795-1.082 1.602-2.209 2.42-3.38a370.312 370.312 0 0 0 4.44-6.33c0-.287-.045-.574-.133-.861a1.846 1.846 0 0 0-.331-.73c-.442.023-.983.045-1.624.067-.64 0-1.337.01-2.088.033h-4.673a80.276 80.276 0 0 0-2.22-.033c-.685-.022-1.26-.044-1.723-.066zm-47.988 1.59c.906 0 1.602.431 2.088 1.293.486.861.73 2.032.73 3.513h-5.89c.035-1.083.175-1.956.42-2.618.31-.796.697-1.36 1.161-1.69.464-.332.96-.498 1.49-.498zm70.888 0c.905 0 1.601.431 2.087 1.293.486.861.73 2.032.73 3.513h-5.89c.035-1.083.175-1.956.421-2.618.31-.796.696-1.36 1.16-1.69a2.518 2.518 0 0 1 1.492-.498zm56.922 0c.75 0 1.436.265 2.054.796.641.508 1.15 1.259 1.525 2.253.397.972.597 2.154.597 3.546 0 1.635-.299 2.972-.895 4.01-.575 1.039-1.458 1.558-2.651 1.558-.84 0-1.57-.276-2.188-.829-.618-.552-1.094-1.337-1.425-2.353-.332-1.038-.497-2.253-.497-3.645 0-1.547.287-2.817.862-3.811.574-1.017 1.447-1.525 2.618-1.525zM50.68 486.29v1.094c0 1.039-.165 1.878-.497 2.519-.309.64-.707 1.115-1.193 1.425-.486.309-.96.464-1.425.464-.486 0-.916-.166-1.292-.497-.354-.332-.53-.873-.53-1.624 0-.619.143-1.127.43-1.525a2.902 2.902 0 0 1 1.127-.928c.464-.243.994-.43 1.59-.563a17.13 17.13 0 0 1 1.79-.365zm228.041 0v1.094c0 1.039-.165 1.878-.497 2.519-.31.64-.706 1.115-1.192 1.425-.487.309-.962.464-1.426.464-.486 0-.917-.166-1.292-.497-.354-.332-.53-.873-.53-1.624 0-.619.143-1.127.43-1.525a2.902 2.902 0 0 1 1.127-.928c.464-.243.994-.43 1.59-.563a17.13 17.13 0 0 1 1.79-.365zM82.94 511.404v2.37a1.885 1.885 0 0 0-.603-.62 1.492 1.492 0 0 0-.865-.26c-.342 0-.648.092-.916.276a1.91 1.91 0 0 0-.633.737 2.249 2.249 0 0 0-.224 1.006c0 .258.045.51.134.753.095.238.224.452.388.64.169.19.365.338.588.447.229.11.477.164.746.164.283 0 .556-.074.82-.223.262-.15.47-.35.625-.604v.38c0 .095.04.182.12.261.079.08.17.122.275.127.054.005.131 0 .23-.015v-.402a.209.209 0 0 1-.134-.052c-.03-.035-.044-.087-.044-.157v-4.828zm9.627 0v.745h.506v-.745zm36.276 0v5.439h.507v-2.377c.06-.213.159-.402.298-.566.144-.17.307-.3.491-.395.189-.1.378-.15.567-.15.288 0 .509.112.663.336.154.219.23.546.23.983v2.169h.507v-2.272c0-.254-.022-.48-.067-.678a1.54 1.54 0 0 0-.216-.53.922.922 0 0 0-.38-.35 1.224 1.224 0 0 0-.566-.119c-.313 0-.609.087-.887.26a1.774 1.774 0 0 0-.64.686v-2.436zm4.344 0v.745h.506v-.745zm10.595 0v2.37a1.885 1.885 0 0 0-.604-.62 1.49 1.49 0 0 0-.864-.26c-.343 0-.648.092-.917.276a1.91 1.91 0 0 0-.633.737 2.25 2.25 0 0 0-.223 1.006c0 .258.044.51.134.753.094.238.224.452.388.64.168.19.365.338.588.447.229.11.477.164.745.164.283 0 .556-.074.82-.223a1.7 1.7 0 0 0 .626-.604v.38c0 .095.04.182.119.261.079.08.171.122.275.127.055.005.132 0 .231-.015v-.402a.209.209 0 0 1-.134-.052c-.03-.035-.044-.087-.044-.157v-4.828zm9.626 0v.745h.507v-.745zm30.673 0v2.37a1.885 1.885 0 0 0-.604-.62 1.49 1.49 0 0 0-.864-.26c-.342 0-.648.092-.916.276a1.91 1.91 0 0 0-.633.737 2.25 2.25 0 0 0-.224 1.006c0 .258.045.51.134.753.095.238.223.452.387.64.17.19.365.338.589.447.228.11.477.164.745.164.283 0 .556-.074.82-.223.263-.15.472-.35.625-.604v.38c0 .095.04.182.12.261.08.08.171.122.275.127.055.005.132 0 .231-.015v-.402a.207.207 0 0 1-.134-.052c-.03-.035-.045-.087-.045-.157v-4.828zm13.643 0v5.439h.454v-.753c.144.239.345.437.603.596.259.154.54.231.842.231.264 0 .505-.052.723-.156.224-.11.42-.256.589-.44.169-.188.298-.402.387-.64.095-.239.142-.495.142-.768 0-.253-.04-.5-.12-.738a1.994 1.994 0 0 0-.35-.648 1.73 1.73 0 0 0-.558-.462 1.524 1.524 0 0 0-.73-.17c-.323 0-.607.08-.85.245-.244.159-.452.37-.626.633v-2.37zm9.477 0v2.37a1.885 1.885 0 0 0-.603-.62 1.492 1.492 0 0 0-.865-.26c-.343 0-.648.092-.916.276a1.91 1.91 0 0 0-.634.737 2.249 2.249 0 0 0-.223 1.006c0 .258.044.51.134.753.094.238.223.452.387.64.17.19.365.338.589.447.228.11.477.164.745.164.283 0 .556-.074.82-.223.263-.15.472-.35.626-.604v.38c0 .095.04.182.119.261.08.08.171.122.275.127.055.005.132 0 .231-.015v-.402a.207.207 0 0 1-.134-.052c-.03-.035-.045-.087-.045-.157v-4.828zm14.156 0v4.731c0 .234.067.418.201.552.14.134.323.2.552.2.1 0 .216-.012.35-.036.14-.025.256-.058.35-.098l-.089-.41c-.065.02-.141.04-.23.06-.09.02-.18.03-.27.03-.098 0-.183-.03-.252-.09-.07-.059-.105-.185-.105-.38v-4.56zm-165.575.149v2.667c0 .338.038.666.112.984.08.317.203.603.372.856.169.249.398.448.686.597.288.149.64.223 1.058.223.407 0 .753-.072 1.036-.216.283-.144.511-.337.685-.58.179-.244.308-.528.388-.85.08-.323.118-.661.118-1.014v-2.667h-.52v2.667c0 .268-.028.534-.083.798a2.172 2.172 0 0 1-.276.7 1.419 1.419 0 0 1-.521.506c-.219.124-.497.187-.835.187-.327 0-.6-.06-.82-.179a1.437 1.437 0 0 1-.52-.5 2.298 2.298 0 0 1-.284-.707 3.944 3.944 0 0 1-.082-.805v-2.667zm5.074 0 2.027 2.682-1.968 2.608h.597l1.668-2.228 1.662 2.228h.589l-1.967-2.608 2.026-2.682h-.588l-1.722 2.302-1.728-2.302zm8.39 0-3.517 5.29h.574l3.516-5.29zm1.37 0v2.667c0 .338.038.666.112.984.08.317.204.603.373.856.169.249.398.448.686.597.288.149.64.223 1.057.223.408 0 .753-.072 1.036-.216.283-.144.512-.337.686-.58.179-.244.307-.528.387-.85.08-.323.12-.661.12-1.014v-2.667h-.522v2.667c0 .268-.028.534-.082.798a2.171 2.171 0 0 1-.276.7 1.42 1.42 0 0 1-.522.506c-.218.124-.496.187-.834.187-.328 0-.6-.06-.82-.179a1.439 1.439 0 0 1-.521-.5 2.298 2.298 0 0 1-.284-.707 3.944 3.944 0 0 1-.081-.805v-2.667zm5.7 0v5.29h.522v-5.29zm45.285 1.34c-.254 0-.502.046-.746.135a3.15 3.15 0 0 0-.744.388l.193.357a2.99 2.99 0 0 1 .626-.335c.204-.08.41-.12.618-.12.343 0 .611.098.805.291.194.194.291.455.291.783v.327a2.642 2.642 0 0 0-.544-.134c-.204-.03-.4-.044-.589-.044-.323 0-.608.05-.857.148a1.303 1.303 0 0 0-.573.41.97.97 0 0 0-.209.626c0 .219.055.42.164.604.115.178.271.323.47.432.204.104.43.156.678.156.288 0 .571-.06.85-.179a1.74 1.74 0 0 0 .677-.521l.007.283c.005.085.04.164.105.238.064.075.159.115.283.12.02.005.05.005.09 0l.14-.015v-.402c-.064-.005-.111-.023-.14-.052-.03-.035-.046-.087-.046-.157v-1.796c0-.482-.139-.859-.417-1.132-.278-.273-.656-.41-1.133-.41zm52.51 0c-.253 0-.5.046-.744.135a3.153 3.153 0 0 0-.745.388l.194.357c.218-.149.427-.26.625-.335.204-.08.41-.12.618-.12.343 0 .612.098.806.291.193.194.29.455.29.783v.327a2.642 2.642 0 0 0-.544-.134c-.204-.03-.4-.044-.589-.044-.323 0-.608.05-.857.148a1.303 1.303 0 0 0-.573.41.97.97 0 0 0-.209.626c0 .219.055.42.164.604.115.178.271.323.47.432.204.104.43.156.678.156.288 0 .572-.06.85-.179a1.74 1.74 0 0 0 .678-.521l.007.283c.005.085.04.164.104.238.065.075.16.115.283.12.02.005.05.005.09 0l.141-.015v-.402c-.064-.005-.112-.023-.141-.052-.03-.035-.045-.087-.045-.157v-1.796c0-.482-.14-.859-.417-1.132-.279-.273-.656-.41-1.133-.41zm-87.848.001a1.84 1.84 0 0 0-.998.276c-.293.178-.524.42-.693.723a2.064 2.064 0 0 0-.246.998c0 .278.047.539.142.782a1.975 1.975 0 0 0 1.028 1.088c.238.104.496.156.775.156.253 0 .49-.04.708-.119.224-.084.417-.201.581-.35.164-.149.286-.315.365-.5l-.44-.119c-.089.209-.248.378-.476.507a1.407 1.407 0 0 1-1.408.008 1.59 1.59 0 0 1-.514-.515 1.748 1.748 0 0 1-.231-.744h3.322a.358.358 0 0 0 .007-.082v-.12c0-.357-.082-.685-.246-.983a1.955 1.955 0 0 0-.678-.73 1.792 1.792 0 0 0-.998-.276zm4.061 0a1.99 1.99 0 0 0-.745.134c-.219.084-.392.211-.522.38-.124.164-.186.373-.186.626 0 .204.045.37.134.5.095.124.231.228.41.312.184.08.41.156.678.231.238.06.442.117.61.172.175.05.306.116.396.2.094.08.141.197.141.35a.596.596 0 0 1-.283.53c-.189.119-.434.178-.737.178-.249 0-.485-.044-.708-.133a2.333 2.333 0 0 1-.656-.447l-.208.357c.198.214.434.373.708.477.273.104.568.156.886.156.447 0 .807-.102 1.08-.305.274-.204.41-.487.41-.85 0-.233-.06-.414-.179-.543a1.261 1.261 0 0 0-.506-.313 7.877 7.877 0 0 0-.768-.246 9.461 9.461 0 0 1-.514-.164.847.847 0 0 1-.313-.194.482.482 0 0 1-.104-.328c0-.169.045-.3.134-.395a.761.761 0 0 1 .358-.208c.144-.045.295-.067.454-.067.233 0 .445.04.634.119.193.074.36.191.499.35l.246-.342c-.144-.17-.33-.301-.56-.396a2.054 2.054 0 0 0-.789-.14zm5.41 0a1.61 1.61 0 0 0-.73.164c-.22.104-.41.25-.575.44a2.147 2.147 0 0 0-.372.648 2.283 2.283 0 0 0-.127.767 2.168 2.168 0 0 0 .507 1.378c.164.184.357.33.58.44.224.11.468.164.731.164.283 0 .554-.072.812-.216.259-.15.462-.345.611-.589v.768c0 .278-.064.509-.194.693-.124.184-.292.32-.506.41-.209.094-.44.141-.693.141-.288 0-.561-.06-.82-.179-.253-.119-.456-.3-.61-.544l-.314.246c.174.268.398.482.671.641.273.159.63.238 1.073.238.343 0 .658-.062.946-.186.293-.124.524-.31.693-.558.174-.244.261-.545.261-.902v-3.897h-.455v.812a2.344 2.344 0 0 0-.625-.626 1.477 1.477 0 0 0-.865-.253zm5.127 0a1.89 1.89 0 0 0-.62.119c-.213.08-.405.191-.574.335-.169.14-.305.304-.41.492v-.88h-.462v3.883h.507v-2.377c.065-.213.169-.402.313-.566.149-.17.32-.3.514-.395.194-.1.39-.15.589-.15.288 0 .5.107.633.321.134.209.201.541.201.998v2.169h.507v-2.272a3.6 3.6 0 0 0-.06-.686 1.545 1.545 0 0 0-.193-.53.911.911 0 0 0-.358-.342 1.142 1.142 0 0 0-.544-.119h-.043zm3.947 0a1.84 1.84 0 0 0-.998.276c-.293.178-.524.42-.693.723a2.064 2.064 0 0 0-.246.998c0 .278.047.539.142.782.099.244.236.46.41.648.173.184.38.33.618.44.238.104.496.156.775.156.253 0 .49-.04.708-.119.224-.084.418-.201.581-.35.164-.149.286-.315.365-.5l-.44-.119c-.089.209-.247.378-.476.507-.223.13-.462.194-.716.194-.248 0-.479-.062-.692-.186a1.59 1.59 0 0 1-.514-.515 1.748 1.748 0 0 1-.231-.744h3.323a.358.358 0 0 0 .007-.082v-.12c0-.357-.083-.685-.246-.983a1.955 1.955 0 0 0-.678-.73 1.792 1.792 0 0 0-.999-.276zm9.715 0a1.61 1.61 0 0 0-.73.164c-.219.104-.41.25-.574.44a2.147 2.147 0 0 0-.372.648 2.283 2.283 0 0 0-.127.767 2.168 2.168 0 0 0 .506 1.378c.164.184.358.33.582.44.223.11.467.164.73.164.283 0 .554-.072.812-.216.258-.15.462-.345.611-.589v.768c0 .278-.064.509-.194.693-.124.184-.293.32-.507.41-.208.094-.44.141-.693.141-.288 0-.56-.06-.82-.179-.252-.119-.456-.3-.61-.544l-.313.246c.174.268.397.482.67.641.274.159.631.238 1.073.238.343 0 .659-.062.947-.186.293-.124.524-.31.693-.558.174-.244.26-.545.26-.902v-3.897h-.454v.812a2.344 2.344 0 0 0-.626-.626 1.477 1.477 0 0 0-.864-.253zm11.623 0c-.293 0-.569.077-.827.23a1.76 1.76 0 0 0-.619.59v-.753h-.454v5.469h.506v-2.392c.15.249.35.457.604.626.258.169.549.253.872.253.352 0 .66-.092.924-.275a1.83 1.83 0 0 0 .61-.73 2.28 2.28 0 0 0 .224-1.007c0-.258-.047-.506-.141-.744a2.067 2.067 0 0 0-.38-.649 1.821 1.821 0 0 0-.581-.447 1.598 1.598 0 0 0-.738-.17zm10.342 0c-.383 0-.72.09-1.014.268a1.88 1.88 0 0 0-.686.723 2.08 2.08 0 0 0-.245 1.006c0 .273.047.531.142.775a2.031 2.031 0 0 0 1.028 1.096c.238.103.499.155.782.155.248 0 .48-.04.693-.119a1.8 1.8 0 0 0 .566-.343c.164-.149.281-.315.35-.499l-.499-.149a.78.78 0 0 1-.238.336c-.115.099-.251.178-.41.238a1.33 1.33 0 0 1-1.192-.12 1.596 1.596 0 0 1-.515-.573 1.645 1.645 0 0 1-.193-.797c0-.298.062-.564.186-.797.13-.234.3-.418.514-.552.214-.134.45-.2.708-.2.239 0 .455.056.648.17.2.11.353.264.462.462l.492-.156a1.519 1.519 0 0 0-.618-.67 1.815 1.815 0 0 0-.961-.254zm10.617 0a1.84 1.84 0 0 0-.998.276c-.293.178-.524.42-.693.723a2.064 2.064 0 0 0-.246.998c0 .278.047.539.141.782.1.244.236.46.41.648.174.184.38.33.619.44.238.104.496.156.774.156.254 0 .49-.04.709-.119.223-.084.417-.201.58-.35.165-.149.286-.315.366-.5l-.44-.119c-.09.209-.248.378-.477.507a1.407 1.407 0 0 1-1.408.008c-.209-.13-.38-.301-.514-.515a1.75 1.75 0 0 1-.23-.744h3.322a.358.358 0 0 0 .007-.082v-.12c0-.357-.082-.685-.246-.983a1.955 1.955 0 0 0-.678-.73 1.792 1.792 0 0 0-.998-.276zm4.06 0a1.99 1.99 0 0 0-.744.134c-.219.084-.393.211-.522.38-.124.164-.186.373-.186.626 0 .204.045.37.134.5.094.124.231.228.41.312.184.08.41.156.678.231.238.06.442.117.61.172.174.05.306.116.395.2.095.08.142.197.142.35a.596.596 0 0 1-.283.53c-.189.119-.435.178-.738.178-.248 0-.484-.044-.708-.133a2.335 2.335 0 0 1-.655-.447l-.209.357c.2.214.435.373.708.477.273.104.569.156.887.156.447 0 .807-.102 1.08-.305.273-.204.41-.487.41-.85 0-.233-.06-.414-.179-.543a1.263 1.263 0 0 0-.507-.313 7.865 7.865 0 0 0-.767-.246 9.496 9.496 0 0 1-.514-.164.844.844 0 0 1-.313-.194.482.482 0 0 1-.104-.328c0-.169.044-.3.133-.395a.761.761 0 0 1 .358-.208c.144-.045.296-.067.455-.067.233 0 .445.04.633.119.194.074.36.191.5.35l.245-.342c-.144-.17-.33-.301-.559-.396a2.055 2.055 0 0 0-.79-.14zm5.41 0a1.61 1.61 0 0 0-.73.164c-.219.104-.41.25-.574.44a2.147 2.147 0 0 0-.373.648 2.283 2.283 0 0 0-.126.767 2.167 2.167 0 0 0 .506 1.378c.164.184.358.33.582.44.223.11.466.164.73.164.283 0 .554-.072.812-.216.258-.15.462-.345.61-.589v.768c0 .278-.064.509-.193.693-.124.184-.293.32-.506.41-.209.094-.44.141-.693.141-.288 0-.562-.06-.82-.179-.253-.119-.457-.3-.611-.544l-.313.246c.174.268.398.482.67.641.274.159.632.238 1.074.238.342 0 .658-.062.946-.186.293-.124.524-.31.693-.558.174-.244.26-.545.26-.902v-3.897h-.454v.812a2.344 2.344 0 0 0-.626-.626 1.479 1.479 0 0 0-.864-.253zm5.128 0c-.213.005-.42.044-.62.119-.214.08-.405.191-.574.335-.169.14-.306.304-.41.492v-.88h-.462v3.883h.507v-2.377c.065-.213.169-.402.313-.566.149-.17.32-.3.514-.395.194-.1.39-.15.588-.15.289 0 .5.107.634.321.134.209.201.541.201.998v2.169h.506v-2.272c0-.254-.02-.483-.059-.686a1.545 1.545 0 0 0-.194-.53.911.911 0 0 0-.357-.342 1.144 1.144 0 0 0-.544-.119h-.043zm3.947 0a1.84 1.84 0 0 0-.998.276c-.293.178-.524.42-.693.723a2.064 2.064 0 0 0-.246.998c0 .278.047.539.141.782.1.244.236.46.41.648.174.184.38.33.619.44.238.104.496.156.774.156.254 0 .49-.04.709-.119.223-.084.417-.201.58-.35.165-.149.287-.315.366-.5l-.44-.119c-.09.209-.248.378-.477.507a1.407 1.407 0 0 1-1.408.008 1.59 1.59 0 0 1-.514-.515 1.75 1.75 0 0 1-.231-.744h3.323a.358.358 0 0 0 .007-.082v-.12c0-.357-.081-.685-.245-.983a1.955 1.955 0 0 0-.678-.73 1.792 1.792 0 0 0-.999-.276zm13.172 0a1.894 1.894 0 0 0-1.194.454c-.168.14-.305.304-.409.492v-.88h-.462v3.883h.506v-2.377a1.51 1.51 0 0 1 .314-.566c.149-.17.32-.3.514-.395.193-.1.39-.15.588-.15.288 0 .5.107.633.321.134.209.202.541.202.998v2.169h.506v-2.272c0-.254-.02-.483-.06-.686a1.545 1.545 0 0 0-.193-.53.911.911 0 0 0-.357-.342 1.144 1.144 0 0 0-.545-.119h-.042zm16.197 0a1.84 1.84 0 0 0-.998.276c-.294.178-.525.42-.693.723a2.064 2.064 0 0 0-.246.998c0 .278.047.539.141.782.1.244.236.46.41.648.174.184.38.33.619.44.238.104.496.156.774.156.254 0 .49-.04.709-.119.223-.084.417-.201.581-.35.164-.149.285-.315.365-.5l-.44-.119c-.09.209-.248.378-.476.507-.224.13-.463.194-.716.194-.248 0-.479-.062-.693-.186a1.59 1.59 0 0 1-.514-.515 1.75 1.75 0 0 1-.23-.744h3.322a.358.358 0 0 0 .007-.082v-.12c0-.357-.082-.685-.246-.983a1.955 1.955 0 0 0-.678-.73 1.792 1.792 0 0 0-.998-.276zm15.505 0a1.84 1.84 0 0 0-.998.276c-.294.178-.525.42-.693.723a2.064 2.064 0 0 0-.246.998c0 .278.047.539.141.782.1.244.236.46.41.648.174.184.38.33.619.44.238.104.496.156.775.156.253 0 .49-.04.708-.119.223-.084.417-.201.581-.35.164-.149.285-.315.365-.5l-.44-.119c-.089.209-.248.378-.476.507a1.407 1.407 0 0 1-1.409.008 1.59 1.59 0 0 1-.514-.515 1.75 1.75 0 0 1-.23-.744h3.322a.358.358 0 0 0 .007-.082v-.12c0-.357-.082-.685-.246-.983a1.955 1.955 0 0 0-.678-.73 1.792 1.792 0 0 0-.998-.276zm8.106 0a1.84 1.84 0 0 0-.998.276c-.293.178-.524.42-.693.723a2.064 2.064 0 0 0-.246.998c0 .278.047.539.142.782.099.244.236.46.41.648.173.184.38.33.618.44.238.104.497.156.775.156.253 0 .49-.04.708-.119.224-.084.418-.201.581-.35.164-.149.286-.315.365-.5l-.439-.119c-.09.209-.248.378-.477.507a1.407 1.407 0 0 1-1.408.008 1.59 1.59 0 0 1-.514-.515 1.75 1.75 0 0 1-.231-.744h3.323a.358.358 0 0 0 .007-.082v-.12c0-.357-.083-.685-.246-.983a1.955 1.955 0 0 0-.678-.73 1.792 1.792 0 0 0-.999-.276zm6.393 0c-.278 0-.536.055-.775.164-.233.104-.437.25-.61.44a1.945 1.945 0 0 0-.403.64 2.087 2.087 0 0 0-.141.775 2.104 2.104 0 0 0 .536 1.408 2 2 0 0 0 .61.44c.24.104.498.156.776.156.283 0 .541-.052.775-.156.238-.11.442-.256.61-.44a2.054 2.054 0 0 0 .545-1.408c0-.278-.048-.537-.142-.775a1.947 1.947 0 0 0-.403-.64 1.845 1.845 0 0 0-.61-.44 1.787 1.787 0 0 0-.768-.164zm4.672 0c-.293 0-.569.077-.827.23a1.76 1.76 0 0 0-.619.59v-.753h-.454v5.469h.507v-2.392c.149.249.35.457.603.626.258.169.55.253.872.253.353 0 .66-.092.924-.275a1.83 1.83 0 0 0 .61-.73 2.28 2.28 0 0 0 .224-1.007c0-.258-.047-.506-.142-.744a2.066 2.066 0 0 0-.38-.649 1.821 1.821 0 0 0-.58-.447 1.598 1.598 0 0 0-.738-.17zm4.366 0a1.84 1.84 0 0 0-.998.276c-.293.178-.525.42-.693.723a2.064 2.064 0 0 0-.246.998c0 .278.047.539.141.782.1.244.236.46.41.648.174.184.38.33.619.44.238.104.497.156.775.156.254 0 .49-.04.708-.119.223-.084.417-.201.581-.35.164-.149.285-.315.365-.5l-.44-.119c-.089.209-.248.378-.476.507a1.407 1.407 0 0 1-1.409.008c-.208-.13-.38-.301-.514-.515a1.75 1.75 0 0 1-.23-.744h3.323a.358.358 0 0 0 .007-.082v-.12c0-.357-.082-.685-.246-.983a1.955 1.955 0 0 0-.678-.73 1.792 1.792 0 0 0-.999-.276zm-124.708.045a1.34 1.34 0 0 0-.835.29c-.218.17-.394.39-.528.664v-.932h-.477v3.882h.507v-2.414c.104-.313.283-.559.536-.738.258-.178.556-.273.894-.283v-.462a.517.517 0 0 0-.097-.007zm10.073 0a1.34 1.34 0 0 0-.835.29c-.219.17-.395.39-.53.664v-.932h-.476v3.882h.507v-2.414c.104-.313.283-.559.536-.738.259-.178.556-.273.894-.283v-.462a.511.511 0 0 0-.096-.007zm50.77 0a1.34 1.34 0 0 0-.835.29c-.219.17-.396.39-.53.664v-.932h-.477v3.882h.507v-2.414c.105-.313.283-.559.537-.738.258-.178.556-.273.894-.283v-.462a.511.511 0 0 0-.097-.007zm68.41 0a1.34 1.34 0 0 0-.835.29c-.218.17-.394.39-.528.664v-.932h-.477v3.882h.506v-2.414a1.43 1.43 0 0 1 .537-.738c.258-.178.556-.273.894-.283v-.462a.517.517 0 0 0-.097-.007zm-146.04.022v3.882h.507v-3.882zm40.621 0v3.882h.506v-3.882zm20.221 0v3.882h.507v-3.882zm33.574 0 1.669 3.882h.44l.804-1.93.812 1.93h.44l1.668-3.882h-.499l-1.408 3.36-.715-1.75.648-1.602h-.447l-.5 1.258-.49-1.258h-.456l.656 1.602-.715 1.75-1.416-3.36zm25.725 0 1.572 3.882h.544l1.572-3.882h-.499l-1.334 3.375-1.326-3.375zm-126.436.328c.253 0 .484.062.692.186.214.12.386.286.515.5.134.213.21.461.23.744H84.84c.02-.278.095-.523.224-.737.134-.219.305-.388.514-.507.209-.124.44-.186.693-.186zm18.545 0c.253 0 .484.062.693.186.213.12.385.286.514.5.134.213.21.461.23.744h-2.868c.02-.278.095-.523.224-.737.134-.219.305-.388.514-.507a1.33 1.33 0 0 1 .693-.186zm42.296 0c.254 0 .485.062.693.186.214.12.385.286.514.5.135.213.212.461.231.744h-2.868c.02-.278.094-.523.223-.737.134-.219.306-.388.514-.507a1.33 1.33 0 0 1 .693-.186zm18.545 0c.254 0 .485.062.693.186.214.12.385.286.515.5.134.213.21.461.23.744h-2.868c.02-.278.094-.523.223-.737.134-.219.306-.388.514-.507a1.33 1.33 0 0 1 .693-.186zm29.37 0c.252 0 .483.062.692.186.214.12.385.286.514.5.134.213.211.461.231.744h-2.868c.02-.278.094-.523.223-.737.135-.219.306-.388.514-.507a1.33 1.33 0 0 1 .693-.186zm15.505 0c.253 0 .483.062.692.186.214.12.385.286.514.5.134.213.211.461.231.744h-2.868c.02-.278.094-.523.223-.737.135-.219.306-.388.515-.507a1.33 1.33 0 0 1 .693-.186zm8.106 0c.253 0 .484.062.693.186.213.12.385.286.514.5.134.213.21.461.23.744h-2.868c.02-.278.095-.523.224-.737.134-.219.306-.388.514-.507a1.33 1.33 0 0 1 .693-.186zm15.43 0c.254 0 .485.062.694.186.213.12.384.286.513.5.134.213.211.461.231.744h-2.868c.02-.278.094-.523.224-.737.134-.219.305-.388.514-.507a1.33 1.33 0 0 1 .693-.186zm-152.469.052c.179 0 .358.045.536.134.184.084.348.201.492.35.144.144.249.306.313.485v1.2a.87.87 0 0 1-.156.372c-.085.119-.191.223-.32.313a1.738 1.738 0 0 1-.395.2c-.14.05-.274.075-.403.075-.204 0-.392-.04-.566-.119a1.451 1.451 0 0 1-.462-.335 1.665 1.665 0 0 1-.313-.507 1.784 1.784 0 0 1-.008-1.177c.065-.189.157-.358.276-.507.124-.149.27-.266.44-.35.168-.09.357-.134.566-.134zm14.231 0c.189 0 .37.042.544.127.18.08.338.193.477.342.139.145.246.31.32.5v1.2a.86.86 0 0 1-.149.35c-.08.114-.179.218-.298.312-.12.09-.25.162-.395.217a1.19 1.19 0 0 1-.44.081 1.38 1.38 0 0 1-1.027-.454 1.776 1.776 0 0 1-.306-.5 1.61 1.61 0 0 1-.112-.596c0-.188.033-.377.097-.566.065-.189.154-.357.269-.506.119-.154.263-.276.432-.366.173-.094.37-.14.588-.14zm18.79 0c.188 0 .37.042.544.127.179.08.338.193.477.342.139.145.246.31.32.5v1.2a.862.862 0 0 1-.15.35c-.079.114-.178.218-.297.312-.12.09-.251.162-.395.217-.14.054-.285.081-.44.081a1.38 1.38 0 0 1-1.028-.454 1.775 1.775 0 0 1-.305-.5 1.61 1.61 0 0 1-.112-.596c0-.188.032-.377.097-.566.064-.189.154-.357.268-.506.12-.154.263-.276.432-.366.174-.094.37-.14.589-.14zm11.407 0c.203 0 .392.042.566.127.173.084.327.198.462.342.134.145.236.31.306.5.074.188.111.387.111.595 0 .2-.032.393-.097.582-.065.184-.159.35-.283.499-.12.15-.263.268-.432.358-.17.084-.36.126-.574.126-.189 0-.372-.042-.551-.126a1.671 1.671 0 0 1-.783-.85v-1.192a.82.82 0 0 1 .157-.365c.084-.114.189-.216.313-.305.13-.095.263-.167.402-.216.14-.05.274-.075.403-.075zm16.414 0c.179 0 .357.045.536.134.184.084.348.201.492.35.144.144.248.306.313.485v1.2a.87.87 0 0 1-.157.372c-.084.119-.191.223-.32.313a1.738 1.738 0 0 1-.395.2c-.14.05-.273.075-.402.075-.204 0-.393-.04-.566-.119a1.451 1.451 0 0 1-.462-.335 1.667 1.667 0 0 1-.314-.507 1.784 1.784 0 0 1 .268-1.684 1.36 1.36 0 0 1 .44-.35c.17-.09.358-.134.567-.134zm14.23 0c.19 0 .37.042.545.127.178.08.337.193.477.342.139.145.245.31.32.5v1.2a.86.86 0 0 1-.149.35c-.08.114-.179.218-.298.312-.12.09-.25.162-.395.217a1.19 1.19 0 0 1-.44.081 1.38 1.38 0 0 1-1.028-.454 1.775 1.775 0 0 1-.305-.5 1.61 1.61 0 0 1-.112-.596c0-.188.032-.377.097-.566.064-.189.153-.357.268-.506.119-.154.263-.276.432-.366.174-.094.37-.14.589-.14zm26.07 0c.178 0 .357.045.535.134.184.084.348.201.492.35.144.144.248.306.313.485v1.2a.87.87 0 0 1-.157.372c-.084.119-.19.223-.32.313a1.738 1.738 0 0 1-.395.2c-.139.05-.273.075-.402.075-.204 0-.392-.04-.566-.119a1.451 1.451 0 0 1-.462-.335 1.667 1.667 0 0 1-.313-.507 1.784 1.784 0 0 1 .268-1.684 1.36 1.36 0 0 1 .44-.35c.169-.09.357-.134.566-.134zm16.823 0c.278 0 .52.074.723.223.208.145.37.338.484.582a1.692 1.692 0 0 1 .074 1.348c-.07.184-.169.35-.298.5a1.39 1.39 0 0 1-.462.35 1.343 1.343 0 0 1-.58.126c-.13 0-.264-.024-.403-.074a1.906 1.906 0 0 1-.403-.201 1.278 1.278 0 0 1-.312-.298.873.873 0 0 1-.157-.38v-1.207c.084-.174.191-.333.32-.477.135-.15.286-.269.455-.358.174-.09.36-.134.559-.134zm6.296 0c.178 0 .357.045.536.134.184.084.348.201.492.35.144.144.249.306.313.485v1.2a.87.87 0 0 1-.156.372c-.085.119-.192.223-.32.313a1.738 1.738 0 0 1-.396.2c-.139.05-.273.075-.402.075-.204 0-.393-.04-.567-.119a1.451 1.451 0 0 1-.462-.335 1.665 1.665 0 0 1-.312-.507 1.784 1.784 0 0 1-.008-1.177c.065-.189.157-.358.276-.507a1.36 1.36 0 0 1 .44-.35 1.19 1.19 0 0 1 .566-.134zm19.156 0c.258 0 .494.07.707.208.214.14.386.328.515.567.129.238.193.501.193.79 0 .283-.064.546-.193.79-.13.238-.3.427-.515.566-.213.14-.449.208-.707.208-.258 0-.494-.067-.708-.2a1.548 1.548 0 0 1-.514-.56 1.685 1.685 0 0 1-.187-.79c0-.293.065-.556.194-.79.13-.238.298-.429.507-.573a1.24 1.24 0 0 1 .708-.216zm4.56 0c.204 0 .392.042.566.127.174.084.328.198.462.342.134.145.236.31.305.5.075.188.112.387.112.595 0 .2-.032.393-.097.582-.064.184-.159.35-.283.499-.12.15-.263.268-.432.358-.169.084-.36.126-.574.126-.188 0-.372-.042-.551-.126a1.672 1.672 0 0 1-.782-.85v-1.192a.82.82 0 0 1 .156-.365 1.585 1.585 0 0 1 .715-.521c.14-.05.274-.075.403-.075zm-108.005 1.542a3.072 3.072 0 0 1 1.073.201v.567a.42.42 0 0 1-.045.171 1.02 1.02 0 0 1-.127.201 1.227 1.227 0 0 1-.491.366 1.625 1.625 0 0 1-.678.141c-.194 0-.363-.04-.507-.12a.905.905 0 0 1-.328-.312.808.808 0 0 1-.112-.41c0-.248.112-.445.336-.589.223-.144.517-.216.88-.216zm52.511 0a3.072 3.072 0 0 1 1.073.201v.567a.42.42 0 0 1-.045.171 1.02 1.02 0 0 1-.127.201 1.228 1.228 0 0 1-.491.366 1.625 1.625 0 0 1-.678.141c-.194 0-.363-.04-.507-.12a.905.905 0 0 1-.328-.312.807.807 0 0 1-.111-.41c0-.248.111-.445.335-.589.223-.144.517-.216.88-.216zm-64.64 1.23v.708h.17l-.126.625h.261l.186-.625v-.708z" style="font-size:33.1404px;font-family:Vollkorn;-inkscape-font-specification:&quot;Vollkorn, @wght=550&quot;;font-variation-settings:&quot;wght&quot;550;text-align:center;text-anchor:middle;fill:#dcd9de;stroke-width:.582086;stroke-linecap:round;stroke-linejoin:round;paint-order:stroke markers fill" transform="translate(102.097 -432.073)"/></svg>
