<svg xmlns="http://www.w3.org/2000/svg" xmlns:xlink="http://www.w3.org/1999/xlink" width="1884.76" height="470.203" viewBox="0 0 498.676 124.408"><defs><linearGradient xlink:href="#a" id="c" x1="-931.744" x2="-439.239" y1="-1248.036" y2="-1133.998" gradientTransform="translate(936.098 1251.634)" gradientUnits="userSpaceOnUse"/><linearGradient id="a"><stop offset="0" style="stop-color:#e3e3f5;stop-opacity:1"/><stop offset="1" style="stop-color:#bbc6ff;stop-opacity:1"/></linearGradient><linearGradient xlink:href="#b" id="d" x1="-727.398" x2="-579.77" y1="-551.85" y2="-505.044" gradientTransform="translate(1306.522 2226.304) scale(1.56676)" gradientUnits="userSpaceOnUse"/><linearGradient id="b"><stop offset="0" style="stop-color:#5f6cd3;stop-opacity:1"/><stop offset="1" style="stop-color:#483fff;stop-opacity:1"/></linearGradient></defs><path d="M13.581 0A13.551 13.551 0 0 0 0 13.581v97.246a13.551 13.551 0 0 0 13.581 13.58h471.514a13.55 13.55 0 0 0 13.581-13.58V13.582A13.55 13.55 0 0 0 485.095 0H13.581Z" style="fill:url(#c);fill-opacity:1;stroke:none;stroke-width:1.32292;stroke-linecap:round;stroke-linejoin:round;stroke-dasharray:none;stroke-opacity:1"/><path d="M135.346 24.709c-.915 0-1.657.741-1.657 1.656v71.677c0 .914.74 1.654 1.654 1.654h3.316c.914 0 1.654-.74 1.654-1.654v-63.16l5.29 6.165a1.23 1.23 0 0 0 1.968-.14l1.941-3.037a2.228 2.228 0 0 0-.189-2.65l-7.936-9.255a3.597 3.597 0 0 0-2.73-1.256zm28.914 0c-.917 0-1.655.735-1.655 1.651v21.636a6.62 6.62 0 0 0-6.62 6.62h6.62v2.199c0 .917.738 1.655 1.655 1.655h3.314a1.65 1.65 0 0 0 1.655-1.655V26.36c0-.916-.738-1.651-1.655-1.651zm9.934 0c-.917 0-1.656.737-1.656 1.654v30.454c0 .917.74 1.655 1.656 1.655h14.617c.916 0 1.655-.738 1.655-1.655v-3.312c0-.917-.739-1.655-1.655-1.655h-9.65V31.33h9.65c.916 0 1.655-.737 1.655-1.654v-3.312c0-.917-.739-1.655-1.655-1.655zm-16.947 9.802c-1.03 0-1.99.525-2.544 1.393l-11.221 17.56a1.655 1.655 0 0 0 .504 2.285l2.788 1.78c.77.493 1.793.267 2.285-.503l9.344-14.62c.582-.91.891-1.969.891-3.05v-4.845zm53.73 2.14c-.462 0-.83.138-1.104.411-.273.252-.41.63-.41 1.135v19.577c0 .483.127.861.379 1.135.273.273.652.41 1.135.41s.84-.137 1.072-.41c.252-.274.378-.652.378-1.135v-14.91l6.62 12.167c.169.295.357.525.567.693.21.148.484.221.82.221.337 0 .6-.074.788-.22.19-.148.38-.378.569-.694l6.556-12.178v14.92c0 .484.127.862.38 1.136.272.273.65.41 1.133.41.484 0 .841-.137 1.072-.41.253-.274.378-.652.378-1.135V38.197c0-.504-.126-.883-.378-1.135-.252-.273-.61-.41-1.072-.41-.441 0-.777.084-1.008.252-.232.147-.452.42-.662.82l-7.74 14.502-7.771-14.502c-.21-.4-.441-.673-.693-.82-.231-.168-.568-.252-1.009-.252zm58.48.032c-.631 0-1.125.158-1.483.473-.336.294-.504.735-.504 1.324 0 .567.168 1.01.504 1.324.358.316.852.473 1.482.473.652 0 1.146-.157 1.483-.473.336-.315.503-.757.503-1.324 0-.589-.167-1.03-.503-1.324-.337-.315-.831-.473-1.483-.473zm24.715 0c-.63 0-1.124.158-1.482.473-.336.294-.504.735-.504 1.324 0 .567.168 1.01.504 1.324.358.316.852.473 1.482.473s1.114-.157 1.45-.473c.357-.315.536-.757.536-1.324 0-.589-.179-1.03-.536-1.324-.336-.315-.82-.473-1.45-.473zm-51.607 6.746c-.798 0-1.65.095-2.553.284-.904.19-1.819.505-2.743.946-.337.126-.578.315-.725.568-.126.252-.19.514-.19.787.022.253.106.495.253.726.147.21.346.346.598.41.253.063.558.01.915-.158a10.805 10.805 0 0 1 2.238-.82 8.48 8.48 0 0 1 2.113-.284c1.156 0 1.986.273 2.49.82.504.525.756 1.376.756 2.553v.82h-1.07c-2.27 0-4.078.147-5.423.441-1.324.274-2.281.746-2.87 1.419-.567.651-.85 1.545-.85 2.68 0 .904.242 1.713.725 2.427.483.715 1.145 1.283 1.986 1.703.862.42 1.828.63 2.9.63.862 0 1.629-.147 2.301-.441a4.355 4.355 0 0 0 1.671-1.261 4.5 4.5 0 0 0 .663-1.11v1.11c0 .525.136.935.41 1.23.273.273.64.409 1.103.409.483 0 .85-.136 1.103-.41.273-.294.41-.704.41-1.23v-8.07c0-1.429-.231-2.595-.694-3.499a4.248 4.248 0 0 0-2.049-2.018c-.904-.44-2.06-.662-3.468-.662zm17.37 0c-1.176 0-2.248.19-3.215.568a6.763 6.763 0 0 0-2.428 1.545c-.651.672-1.156 1.502-1.513 2.49-.357.967-.535 2.06-.535 3.278 0 1.64.315 3.07.945 4.288a6.955 6.955 0 0 0 2.648 2.806c1.156.651 2.522.977 4.098.977.736 0 1.493-.105 2.27-.315a6.65 6.65 0 0 0 2.207-1.04c.273-.169.452-.379.536-.631.084-.252.095-.495.032-.726a1.126 1.126 0 0 0-.315-.63.921.921 0 0 0-.6-.346c-.252-.042-.525.021-.82.189a5.01 5.01 0 0 1-1.544.757 5.61 5.61 0 0 1-1.513.22c-1.492 0-2.649-.484-3.468-1.45-.8-.988-1.198-2.344-1.198-4.067 0-.862.094-1.629.284-2.301.21-.673.514-1.23.914-1.671.399-.463.882-.81 1.45-1.04.588-.253 1.262-.379 2.018-.379.483 0 .988.084 1.513.253a5 5 0 0 1 1.544.756c.295.168.568.242.82.221.253-.042.462-.148.63-.316.19-.189.316-.41.38-.661a1.214 1.214 0 0 0-.032-.726c-.084-.252-.263-.473-.536-.662a6.957 6.957 0 0 0-2.27-1.04 8.274 8.274 0 0 0-2.301-.347zm22.226 0c-1.45 0-2.743.337-3.878 1.009-1.135.673-2.028 1.607-2.68 2.805-.65 1.198-.977 2.596-.977 4.194 0 1.639.326 3.058.978 4.256a7.046 7.046 0 0 0 2.806 2.742c1.219.63 2.669.946 4.35.946.883 0 1.797-.116 2.742-.347.946-.252 1.776-.62 2.49-1.103.316-.21.537-.441.663-.693a1.33 1.33 0 0 0 .126-.789 1.051 1.051 0 0 0-.346-.63c-.168-.169-.4-.263-.694-.284-.273-.021-.59.074-.946.283a6.53 6.53 0 0 1-2.017.851 9.577 9.577 0 0 1-1.986.221c-1.66 0-2.933-.462-3.815-1.387-.733-.804-1.153-1.93-1.263-3.373h10.027c.42 0 .736-.084.946-.252.23-.19.346-.462.346-.82 0-1.176-.157-2.238-.473-3.184-.315-.945-.777-1.744-1.386-2.396a5.543 5.543 0 0 0-2.144-1.513c-.841-.357-1.797-.536-2.869-.536zm12.011.064c-.504 0-.904.137-1.198.41-.273.273-.41.672-.41 1.197v14.344c0 1.072-.252 1.86-.756 2.365-.483.525-1.25.82-2.301.882-.294.022-.526.116-.694.284-.189.189-.295.4-.316.63a1.23 1.23 0 0 0 .095.726c.084.231.252.42.504.568.232.147.536.21.915.188 1.282-.084 2.343-.336 3.184-.756a4.068 4.068 0 0 0 1.923-1.924c.441-.84.662-1.912.662-3.215V45.1c0-.525-.136-.924-.41-1.197-.273-.273-.672-.41-1.198-.41zm-24.716.063c-.504 0-.893.147-1.166.442-.273.294-.41.714-.41 1.26v12.295c0 .547.137.978.41 1.293.273.295.662.442 1.166.442.525 0 .925-.147 1.198-.442.274-.315.41-.746.41-1.293V45.258c0-.546-.147-.966-.441-1.26-.274-.295-.663-.442-1.167-.442zm12.831 2.144c.883 0 1.618.2 2.207.6.61.378 1.062.934 1.356 1.67.27.612.423 1.348.462 2.207h-8.576a6.491 6.491 0 0 1 .484-1.892c.358-.82.873-1.45 1.545-1.892.694-.462 1.535-.693 2.522-.693zm-37.61 6.336h1.04v.851c0 .82-.178 1.545-.535 2.176a4.01 4.01 0 0 1-1.388 1.513c-.588.357-1.27.536-2.048.536-.967 0-1.724-.242-2.27-.725-.547-.505-.82-1.156-.82-1.955 0-.61.179-1.082.536-1.418.379-.358 1.009-.61 1.892-.757.882-.147 2.08-.22 3.594-.22zm-25.314 12.926c-1.682 0-3.195.263-4.54.788a9.015 9.015 0 0 0-3.373 2.301c-.904.988-1.597 2.186-2.08 3.594-.484 1.387-.726 2.953-.726 4.698 0 2.333.42 4.36 1.261 6.084.862 1.703 2.092 3.015 3.689 3.94 1.597.925 3.52 1.388 5.769 1.388a12.63 12.63 0 0 0 3.688-.536c1.177-.357 2.197-.873 3.058-1.545.316-.231.515-.493.6-.788.105-.315.115-.61.031-.883a1.266 1.266 0 0 0-1.198-1.04c-.294-.022-.63.084-1.009.315a8.34 8.34 0 0 1-2.427 1.166 9.169 9.169 0 0 1-2.649.38c-1.597 0-2.942-.327-4.035-.979-1.093-.672-1.923-1.64-2.49-2.9-.547-1.261-.82-2.795-.82-4.602 0-1.807.273-3.331.82-4.571.567-1.261 1.397-2.217 2.49-2.869 1.093-.673 2.438-1.01 4.035-1.01a9.17 9.17 0 0 1 2.649.38 6.73 6.73 0 0 1 2.3 1.134c.38.252.727.368 1.042.347.336-.021.61-.126.82-.315.21-.21.346-.463.409-.757a1.382 1.382 0 0 0-.063-.914c-.105-.336-.336-.62-.693-.851-.84-.63-1.84-1.115-2.996-1.451a12.47 12.47 0 0 0-3.561-.504zm118.48.064c-.504 0-.892.136-1.165.41-.274.273-.41.672-.41 1.198v19.419c0 .525.136.935.41 1.229.273.273.661.41 1.166.41 1.071 0 1.607-.546 1.607-1.64v-5.61h.064l6.305 6.115c.378.379.704.662.977.851.295.19.683.284 1.166.284.379 0 .695-.105.947-.315.252-.231.388-.515.41-.851.02-.336-.137-.673-.473-1.01l-6.064-6.034 5.496-5.44c.315-.336.473-.662.473-.977 0-.337-.116-.62-.347-.851-.23-.232-.567-.348-1.009-.348-.44 0-.798.095-1.072.285a6.86 6.86 0 0 0-.914.787l-5.895 5.864h-.064V66.634c0-.526-.146-.925-.44-1.199-.274-.273-.663-.41-1.167-.41zm-173.762.04-18.799.028c-.917 0-1.655.738-1.655 1.655v3.312a1.65 1.65 0 0 0 1.655 1.655l18.799-.027c.916 0 1.656-.739 1.656-1.656v-3.311c0-.917-.74-1.656-1.656-1.655zm6.622.028c-.917 0-1.655.738-1.655 1.655v3.312c0 .917.738 1.655 1.655 1.655h13.13v17.238c-.189 2.193-1.858 3.887-4.044 4.103-1.82.044-7.23.022-9.088.022-.914 0-1.654.74-1.654 1.655v3.31c0 .914.74 1.655 1.654 1.655h9.088c5.77-.246 10.447-4.947 10.672-10.723V66.75c0-.914-.74-1.655-1.654-1.655zm98.662 6.674v.003h-.07c-1.41.106-2.565.483-3.469 1.135-.663.478-1.167 1.12-1.513 1.927v-1.36c0-.525-.136-.925-.41-1.198-.273-.273-.662-.41-1.166-.41-.484 0-.862.137-1.135.41-.274.273-.41.673-.41 1.198v12.579c0 .525.137.936.41 1.23.273.273.673.41 1.198.41.546 0 .946-.137 1.198-.41.273-.294.41-.705.41-1.23v-7.125c0-1.282.357-2.28 1.072-2.995.714-.736 1.754-1.176 3.12-1.324l.6-.03c.483-.064.84-.22 1.071-.473.232-.273.336-.63.315-1.072-.042-.442-.177-.767-.409-.977-.197-.198-.468-.293-.812-.287zm-18.481.037c-1.45 0-2.743.336-3.878 1.009-1.135.672-2.028 1.608-2.68 2.806-.651 1.198-.977 2.595-.977 4.192 0 1.64.326 3.059.977 4.257a7.044 7.044 0 0 0 2.806 2.742c1.219.63 2.67.946 4.35.946.884 0 1.797-.116 2.743-.347.946-.252 1.776-.62 2.49-1.103.316-.21.537-.441.663-.694.126-.273.168-.536.126-.788a1.052 1.052 0 0 0-.347-.631c-.168-.168-.4-.262-.693-.283-.273-.022-.589.073-.946.283-.63.4-1.303.684-2.018.852a9.574 9.574 0 0 1-1.986.22c-1.66 0-2.932-.462-3.815-1.387-.733-.805-1.153-1.93-1.262-3.373h10.027c.42 0 .735-.084.945-.253.232-.189.347-.462.347-.819 0-1.177-.158-2.238-.473-3.184-.315-.946-.777-1.744-1.387-2.396a5.542 5.542 0 0 0-2.144-1.513c-.84-.357-1.797-.536-2.868-.536zm56.097 0c-1.156 0-2.207.19-3.153.567a6.43 6.43 0 0 0-2.396 1.608 7.28 7.28 0 0 0-1.513 2.49c-.357.968-.536 2.07-.536 3.31 0 1.619.315 3.027.946 4.225.63 1.198 1.503 2.123 2.616 2.774 1.135.652 2.48.977 4.036.977 1.156 0 2.196-.178 3.12-.536a6.651 6.651 0 0 0 2.365-1.607c.673-.693 1.188-1.534 1.545-2.522.357-.988.536-2.091.536-3.31 0-1.64-.315-3.047-.946-4.224-.63-1.198-1.513-2.123-2.648-2.775-1.114-.651-2.438-.977-3.972-.977zm19.45 0c-1.281 0-2.416.304-3.404.914a4.84 4.84 0 0 0-1.797 1.887v-1.13c0-.525-.136-.925-.41-1.198-.273-.273-.662-.41-1.167-.41-.483 0-.86.136-1.134.41-.273.273-.41.673-.41 1.198v12.579c0 .525.137.934.41 1.229.273.273.662.41 1.167.41 1.071 0 1.607-.547 1.607-1.64v-7.282c0-1.324.378-2.385 1.135-3.184.777-.82 1.808-1.23 3.09-1.23 1.092 0 1.89.306 2.395.915.526.61.788 1.576.788 2.9v7.882c0 .525.137.934.41 1.229.274.273.673.41 1.198.41.504 0 .893-.137 1.167-.41.273-.295.41-.704.41-1.23v-8.07c0-1.387-.2-2.532-.6-3.436-.4-.925-.998-1.608-1.796-2.05-.799-.462-1.818-.693-3.058-.693zm32.346 0c-.799 0-1.65.095-2.554.284-.904.19-1.818.504-2.743.946-.336.126-.577.315-.724.567a1.73 1.73 0 0 0-.19.788c.021.252.104.494.252.725.147.21.347.347.6.41.251.064.557.011.914-.158a10.792 10.792 0 0 1 2.238-.82 8.487 8.487 0 0 1 2.112-.282c1.156 0 1.986.272 2.49.819.505.525.757 1.376.757 2.553v.82h-1.071c-2.27 0-4.078.147-5.423.441-1.324.273-2.28.746-2.869 1.419-.567.651-.85 1.545-.85 2.68 0 .903.24 1.712.724 2.427.483.714 1.145 1.282 1.986 1.703.862.42 1.829.63 2.9.63.862 0 1.63-.148 2.302-.442a4.352 4.352 0 0 0 1.67-1.26 4.5 4.5 0 0 0 .662-1.11v1.11c0 .525.138.934.41 1.229.274.273.641.41 1.104.41.483 0 .851-.137 1.103-.41.273-.295.41-.704.41-1.23v-8.07c0-1.43-.23-2.595-.693-3.5a4.25 4.25 0 0 0-2.05-2.017c-.904-.441-2.059-.662-3.467-.662zm-84.47.063c-.42 0-.767.095-1.04.284-.253.19-.41.452-.474.788-.063.315-.01.683.158 1.103l4.635 12.264c.189.483.44.841.756 1.072.336.21.725.315 1.167.315.441 0 .819-.115 1.134-.346.336-.232.589-.59.757-1.073l3.596-9.778 3.624 9.81c.189.462.44.809.756 1.04a2.01 2.01 0 0 0 1.166.347c.42 0 .798-.116 1.135-.347.336-.231.589-.578.757-1.04l4.634-12.264c.147-.378.2-.725.158-1.04a1.162 1.162 0 0 0-.379-.82c-.21-.21-.525-.314-.946-.314-.336 0-.64.083-.914.252-.252.168-.462.493-.63.977l-3.845 10.726-3.848-10.79c-.126-.399-.325-.693-.598-.882-.252-.189-.578-.283-.977-.283-.4 0-.725.094-.978.283-.252.19-.452.483-.599.883l-3.904 10.707-3.757-10.581c-.168-.504-.378-.84-.63-1.009-.231-.189-.536-.284-.914-.284zm-44.073.221c-.399 0-.703.105-.914.315-.21.21-.315.516-.315.915 0 .378.105.683.315.914.21.21.515.315.914.315h7.4l-7.967 10.34c-.252.273-.42.568-.505.883a1.936 1.936 0 0 0 0 .851c.084.252.232.463.442.63.21.148.483.221.82.221h10.025c.4 0 .704-.105.914-.315.231-.231.347-.536.347-.914 0-.799-.42-1.198-1.261-1.198h-7.759l8.042-10.403c.252-.274.41-.558.473-.852a1.533 1.533 0 0 0-.031-.82c-.064-.252-.221-.462-.473-.63-.231-.168-.546-.252-.945-.252zm20.776 1.986c.883 0 1.618.2 2.206.6.61.377 1.062.935 1.356 1.67.27.612.424 1.348.463 2.207h-8.576a6.468 6.468 0 0 1 .484-1.892c.357-.82.872-1.45 1.545-1.891.693-.462 1.534-.694 2.522-.694zm55.97.221c1.304 0 2.354.462 3.153 1.387.798.925 1.198 2.291 1.198 4.098 0 1.198-.19 2.207-.568 3.027-.357.798-.86 1.408-1.512 1.828-.652.42-1.409.63-2.27.63-1.324 0-2.386-.461-3.185-1.386-.777-.946-1.166-2.312-1.166-4.099 0-1.198.18-2.207.536-3.027.358-.82.862-1.428 1.514-1.827.651-.42 1.418-.63 2.3-.63zm-146.21 4.762-12.176.027c-.918 0-1.655.74-1.655 1.656v3.311a1.65 1.65 0 0 0 1.655 1.655l12.175-.027a1.65 1.65 0 0 0 1.655-1.654v-3.313a1.65 1.65 0 0 0-1.655-1.655zm200.118 1.353h1.04v.851c0 .82-.177 1.545-.534 2.176-.337.63-.8 1.136-1.388 1.514-.589.357-1.272.535-2.05.535-.966 0-1.722-.242-2.269-.725-.546-.505-.82-1.156-.82-1.954 0-.61.179-1.083.536-1.42.378-.357 1.009-.609 1.891-.756.883-.147 2.081-.22 3.594-.22zM164.081 93.05l-18.799.028c-.917 0-1.655.738-1.655 1.654v3.313a1.65 1.65 0 0 0 1.655 1.655l18.799-.028c.916 0 1.656-.738 1.656-1.655v-3.311c0-.917-.74-1.657-1.656-1.656z" style="font-style:normal;font-variant:normal;font-weight:400;font-stretch:normal;font-size:5.16032px;font-family:Nunito;-inkscape-font-specification:&quot;Nunito, @wght=601&quot;;font-variant-ligatures:normal;font-variant-caps:normal;font-variant-numeric:normal;font-variant-east-asian:normal;font-variation-settings:&quot;wght&quot;601;fill:url(#d);fill-opacity:1;stroke-width:.0207631;stroke-linejoin:round;paint-order:markers fill stroke"/></svg>