<?xml version="1.0" encoding="UTF-8" standalone="no"?>
<!-- Created with Inkscape (http://www.inkscape.org/) -->

<svg
   width="498.67609mm"
   height="124.40787mm"
   viewBox="0 0 498.67609 124.40787"
   version="1.1"
   id="svg2360"
   inkscape:version="1.2.2 (b0a8486541, 2022-12-01)"
   sodipodi:docname="banner-gh__.svg"
   xmlns:inkscape="http://www.inkscape.org/namespaces/inkscape"
   xmlns:sodipodi="http://sodipodi.sourceforge.net/DTD/sodipodi-0.dtd"
   xmlns="http://www.w3.org/2000/svg"
   xmlns:svg="http://www.w3.org/2000/svg">
  <sodipodi:namedview
     id="namedview2362"
     pagecolor="#ffffff"
     bordercolor="#000000"
     borderopacity="0.25"
     inkscape:showpageshadow="2"
     inkscape:pageopacity="0.0"
     inkscape:pagecheckerboard="0"
     inkscape:deskcolor="#d1d1d1"
     inkscape:document-units="mm"
     showgrid="false"
     inkscape:zoom="0.4204826"
     inkscape:cx="1038.0929"
     inkscape:cy="371.00227"
     inkscape:window-width="1920"
     inkscape:window-height="1055"
     inkscape:window-x="0"
     inkscape:window-y="0"
     inkscape:window-maximized="1"
     inkscape:current-layer="layer1" />
  <defs
     id="defs2357" />
  <g
     inkscape:label="Layer 1"
     inkscape:groupmode="layer"
     id="layer1"
     transform="translate(-26.26788,55.911557)">
    <path
       id="rect4331"
       d="m 39.84898,-55.911557 c -7.5242,0 -13.5811,6.0571 -13.5811,13.58106 V 54.91525 c 0,7.52422 6.0569,13.58106 13.5811,13.58106 h 471.51394 c 7.52422,0 13.58106,-6.05684 13.58106,-13.58106 v -97.245217 c 0,-7.52422 -6.05684,-13.58106 -13.58106,-13.58106 H 39.84898 Z"
       style="fill:#25265c;fill-opacity:1;stroke:none;stroke-width:1.32292;stroke-linecap:round;stroke-linejoin:round;stroke-dasharray:none;stroke-opacity:1" />
    <path
       id="path2690"
       style="font-size:7.74709px;font-family:'Gothic A1';-inkscape-font-specification:'Gothic A1, Normal';fill:#dcdceb;stroke:none;stroke-width:3.19618;stroke-linecap:round;stroke-linejoin:round;paint-order:markers fill stroke"
       d="M 384.28169 -26.950017 C 383.85418 -26.950017 383.27135 -26.691925 382.98616 -26.376926 C 382.48653 -25.824826 382.51566 -25.358371 383.78611 -13.450583 C 385.01654 -1.9186944 385.1459 -1.0622843 385.73638 -0.58418477 C 386.56732 0.08871456 387.32539 0.063716624 388.04993 -0.66118265 C 388.58094 -1.1921821 388.61932 -1.4689987 388.43802 -3.4697967 L 388.237 -5.6892995 L 389.07726 -5.1570323 C 389.53935 -4.8643326 390.84284 -3.9259706 391.97321 -3.0713715 C 394.85133 -0.89547363 396.59021 -0.98743448 396.36777 -3.3044322 C 396.28687 -4.1455313 395.91442 -4.5326659 393.32093 -6.4711639 L 390.36659 -8.6792979 L 392.52614 -10.698296 C 394.87318 -12.891994 395.19375 -13.725941 394.10796 -14.81174 C 393.1352 -15.784539 392.50972 -15.524285 389.83484 -13.034588 C 388.83566 -12.104589 387.9179 -11.343735 387.79568 -11.343735 C 387.67353 -11.343735 387.23232 -14.607092 386.81538 -18.595488 C 385.99717 -26.423081 385.83724 -26.950017 384.28169 -26.950017 z M 263.90971 -26.796538 C 261.96489 -26.806509 261.34294 -26.679804 259.9885 -26.014674 C 258.16423 -25.118675 255.97165 -23.09224 254.74851 -21.171042 C 253.61869 -19.396344 252.29692 -15.130327 251.88718 -11.93543 C 250.78162 -3.3149385 255.64949 2.7172713 263.77741 2.7990713 C 264.81685 2.8100712 266.43419 2.618074 267.37254 2.3737742 C 269.46544 1.8285748 270.7672 1.0494263 271.76142 -0.25397236 C 272.40338 -1.0955715 272.55994 -1.6981334 272.78462 -4.1798309 C 272.9307 -5.7921293 272.97406 -7.4169972 272.8797 -7.7914968 C 272.67311 -8.614496 271.57788 -9.1687451 270.62816 -8.9304453 C 269.6445 -8.6835456 269.25667 -7.5998851 269.25667 -5.0970876 C 269.25667 -3.9019888 269.12996 -2.6883943 268.97555 -2.4000946 C 268.25965 -1.0624959 264.23714 -0.35012601 261.42459 -1.0632253 C 259.04033 -1.6678247 257.51573 -2.7821863 256.41249 -4.7270843 C 255.5537 -6.2411828 255.52929 -6.3889484 255.54329 -9.8983449 C 255.55609 -13.185142 255.64285 -13.766399 256.50086 -16.345497 C 257.35988 -18.925294 257.60635 -19.343093 259.23299 -20.990691 C 261.78669 -23.577489 263.73933 -24.022323 266.58448 -22.665524 C 267.44398 -22.255625 267.5112 -22.129822 267.34567 -21.247523 C 267.00869 -19.451325 268.54981 -18.616826 270.41835 -19.583025 C 271.45747 -20.120425 271.85702 -20.829108 271.85702 -22.131707 C 271.85702 -23.496405 270.66763 -24.708947 268.19316 -25.865846 C 266.5021 -26.656564 265.8937 -26.789014 263.91022 -26.796538 L 263.90971 -26.796538 z M 144.42398 -25.564055 C 141.79959 -25.597055 140.37313 -24.988051 138.81605 -23.168853 C 136.85466 -20.877455 136.78255 -20.420186 136.66889 -9.5546966 C 136.56949 -0.039406164 136.57995 0.19558981 137.1624 0.77748922 C 137.85901 1.4741885 138.58075 1.534907 139.36382 0.96300762 C 139.89395 0.575908 139.93388 0.02969481 140.07644 -8.9350962 C 140.20948 -17.305488 140.29002 -18.56914 140.76012 -19.657439 C 141.52181 -21.420937 142.42601 -22.036622 144.25603 -22.036622 C 148.36338 -22.036622 150.35912 -19.985503 150.76726 -15.344007 C 150.98282 -12.89141 151.51119 -11.921477 152.63123 -11.921477 C 154.03134 -11.921477 154.36529 -12.550957 154.53034 -15.502654 C 154.65089 -17.660752 154.81224 -18.434575 155.27034 -19.048174 C 156.42064 -20.588872 157.29225 -21.008016 159.58997 -21.124016 C 161.71047 -21.231116 161.75393 -21.21875 162.72622 -20.24655 C 164.42882 -18.544052 164.63514 -17.247612 164.63514 -8.2700205 C 164.63514 -2.9388259 164.74354 -0.15182584 164.96846 0.34237366 C 165.60384 1.7367723 167.49961 1.6750697 168.09385 0.24057109 C 168.35351 -0.38612828 168.41367 -2.7677591 168.32226 -8.7950531 C 168.18634 -17.765744 168.01677 -18.848273 166.33427 -21.49867 C 164.17269 -24.903867 159.76292 -25.811908 155.45948 -23.73781 C 154.32998 -23.215711 153.43428 -22.573356 152.71029 -21.603057 L 151.37549 -22.934242 C 149.62502 -24.67984 147.38694 -25.526455 144.42398 -25.564055 z M 230.50244 -23.907309 C 229.79182 -23.917309 229.05008 -23.399576 228.38267 -22.417477 C 227.51437 -21.139779 227.4885 -20.935168 228.08915 -20.077569 C 228.81738 -19.03797 230.26812 -19.205875 231.36647 -20.456874 C 232.61739 -21.881572 232.55934 -23.010759 231.19852 -23.726958 C 230.97264 -23.845958 230.73921 -23.905509 230.50244 -23.907309 z M 205.58355 -22.614881 C 204.61782 -22.614881 203.80298 -21.468524 204.05496 -20.464625 C 204.36696 -19.221426 207.20563 -17.863004 208.16014 -18.500404 C 208.72581 -18.878003 209.17974 -20.019751 208.99523 -20.601051 C 208.76576 -21.32445 206.57984 -22.614881 205.58355 -22.614881 z M 411.50431 -16.5398 C 411.07624 -16.5398 410.57116 -16.437491 410.38242 -16.317591 C 409.87559 -15.995192 409.38505 -14.524519 409.57988 -13.91102 C 409.72515 -13.45312 409.51661 -13.500049 408.11279 -14.238648 C 402.31885 -17.286445 396.13042 -11.369436 399.03376 -5.5580414 C 399.64065 -4.3433426 400.8721 -3.0646434 401.99327 -2.4848439 C 404.17988 -1.3541451 407.67584 -1.8630963 409.28895 -3.5467946 C 409.74174 -4.0193942 410.2027 -4.4061737 410.31421 -4.4061737 C 410.42571 -4.4061737 410.60036 -3.9640042 410.70178 -3.4238047 C 411.11344 -1.2293069 413.00613 -0.20291392 414.20286 -1.5252126 C 414.71281 -2.088812 414.71423 -2.1910423 414.24006 -4.0537404 C 413.58018 -6.6450378 413.20243 -9.7939287 413.19155 -12.795326 C 413.18035 -15.624323 412.76539 -16.5469 411.50431 -16.5398 z M 275.694 -16.159461 C 275.3549 -16.154461 275.12704 -16.139436 275.04236 -16.112436 C 273.77863 -15.711336 273.71419 -13.350756 274.95606 -12.956556 C 275.24767 -12.864556 276.95501 -12.670391 278.75014 -12.526092 C 280.54536 -12.381792 282.08177 -12.196947 282.16389 -12.114747 C 282.24589 -12.032747 281.97303 -11.384324 281.55721 -10.674525 L 280.80015 -9.3841644 L 279.655 -9.6751027 C 278.1477 -10.057702 277.05929 -9.4254832 277.05929 -8.1671844 C 277.05929 -7.3326853 277.23733 -7.0738345 278.33001 -6.3192352 C 278.8543 -5.9572356 278.82106 -5.8379509 277.55797 -3.5917531 C 275.82719 -0.5141562 275.77521 -0.31064209 276.49705 0.606957 C 277.09681 1.3694562 277.12838 1.3742629 280.76604 1.3438629 C 282.78113 1.3268629 285.77344 1.2297386 287.41576 1.1273387 C 289.90631 0.97203883 290.46948 0.84799699 290.81142 0.38009746 C 291.37949 -0.39750176 291.32333 -1.1243828 290.64296 -1.8047821 C 290.11476 -2.3330816 289.67961 -2.3825246 285.58538 -2.3825246 C 283.12166 -2.3825246 281.10607 -2.4574893 281.10607 -2.5478892 C 281.10607 -2.6388891 281.44923 -3.2975832 281.86778 -4.0118825 C 282.62115 -5.2973812 282.64021 -5.3079712 283.81805 -5.0996714 C 285.42756 -4.8151717 286.03736 -4.8778744 286.53675 -5.3771739 C 287.53642 -6.3768729 286.58102 -8.4519216 285.12081 -8.4519216 C 284.82057 -8.4519216 284.57408 -8.5370407 284.57408 -8.6405406 C 284.57408 -8.7440405 285.15951 -9.8431868 285.87477 -11.083286 C 287.30451 -13.561983 287.43974 -14.257036 286.64475 -15.052036 C 286.20018 -15.496635 285.26211 -15.641605 280.88541 -15.945004 C 279.448 -16.045004 278.07199 -16.113759 277.01278 -16.143959 C 276.48321 -16.158959 276.0331 -16.164461 275.694 -16.159461 z M 298.32156 -15.524875 C 295.13854 -15.441875 292.85911 -12.174615 292.83094 -7.2959198 C 292.81654 -4.7816223 293.38612 -2.9479376 294.63496 -1.4890391 C 296.32172 0.48165893 297.42785 0.84172296 301.33636 0.69222311 C 303.16431 0.62222318 305.12599 0.42177209 305.69527 0.24677226 C 307.10659 -0.1870273 307.6923 -1.2695331 307.09157 -2.333432 C 306.60619 -3.1930311 306.37893 -3.2129565 301.62523 -2.8181569 C 298.23163 -2.5362572 297.10512 -3.0847064 296.57748 -5.2733042 C 296.40482 -5.9892035 296.42215 -5.9964202 298.49519 -6.0629201 C 303.25056 -6.21562 305.93734 -9.1032487 304.19975 -12.194846 C 303.40964 -13.600744 301.58461 -14.895244 299.73698 -15.360544 C 299.24934 -15.483344 298.7762 -15.536675 298.32156 -15.524875 z M 219.88914 -15.346074 C 219.61754 -15.343824 219.34041 -15.328566 219.05818 -15.299566 C 215.65234 -14.948066 213.95864 -12.620945 213.99027 -8.3356496 C 214.01187 -5.3827526 214.45717 -3.4048882 215.41137 -2.0207896 C 217.22891 0.61550778 221.479 1.8396105 224.31574 0.54391175 C 225.83023 -0.14788756 227.92792 -2.4313489 227.92792 -3.388148 C 227.92792 -4.2689471 226.99584 -5.2733042 226.17764 -5.2733042 C 225.84178 -5.2733042 225.0738 -4.7142442 224.41392 -3.9891449 C 223.08889 -2.5331463 222.12887 -2.2105275 220.45964 -2.6600271 C 219.20233 -2.9985267 217.81278 -4.382026 217.81278 -5.2955251 C 217.81278 -5.7679246 218.0247 -5.8510467 219.22199 -5.8510467 C 222.02935 -5.8510467 224.76827 -7.3266214 225.50481 -9.2348195 C 226.67249 -12.260717 224.31795 -14.991352 220.68599 -15.314552 C 220.42661 -15.337552 220.16073 -15.348324 219.88914 -15.346074 z M 358.60057 -14.949199 C 356.36903 -14.996199 354.09621 -14.108542 352.47949 -12.271843 C 346.979 -6.0229497 353.92364 3.2502265 361.62054 -0.065870151 C 364.20433 -1.179169 365.82962 -3.6539557 366.01923 -6.7636525 C 366.15938 -9.0627502 365.80151 -10.281964 364.47463 -12.019662 C 363.02288 -13.920961 360.83209 -14.902199 358.60057 -14.949199 z M 326.74566 -14.783835 L 326.74566 -14.783318 C 326.53259 -14.805318 326.32172 -14.706999 325.96121 -14.505299 C 325.26036 -14.113099 325.17098 -13.881874 325.09357 -12.263575 C 324.98872 -10.076577 325.61934 -6.2913603 326.45628 -4.0821625 C 327.20947 -2.0941645 328.70435 -0.4959806 330.24157 -0.035381056 C 331.7006 0.40171851 334.06979 -0.073518355 335.59629 -1.1092173 L 336.64893 -1.8233856 L 337.76205 -0.81827901 C 338.37422 -0.26527956 339.36978 0.31451461 339.97483 0.47001445 C 340.57996 0.6254143 341.33491 0.81886245 341.65276 0.89996237 C 342.67035 1.1594621 344.80881 0.81009141 345.55433 0.26279196 L 345.55433 0.26227519 C 346.71928 -0.59332395 347.51013 -1.9883897 348.33866 -4.653187 C 349.94505 -9.8198819 348.87215 -15.443262 346.42818 -14.667563 C 345.34944 -14.325163 344.91988 -13.311769 345.24893 -11.88427 C 345.72711 -9.8102723 345.55931 -7.6025077 344.73526 -5.1286102 C 344.00774 -2.8668125 344.5085 -2.8138916 342.27081 -2.8253916 C 340.7885 -2.8353916 340.49115 -2.93271 339.89628 -3.6243093 C 339.03405 -4.6266083 338.59916 -6.2247314 338.35632 -9.2813283 C 338.19334 -11.333026 338.06243 -11.781722 337.49229 -12.243421 C 336.64574 -12.928921 336.2537 -12.926602 335.3994 -12.233603 C 334.7468 -11.703903 334.72104 -11.543051 334.80564 -8.5361542 C 334.88414 -5.737257 334.82938 -5.310502 334.30799 -4.6475026 C 333.50484 -3.6264037 331.45825 -3.1016645 330.75627 -3.7369639 C 329.89212 -4.5189631 329.06867 -7.2542419 328.69903 -10.570139 C 328.37101 -13.512536 328.28582 -13.791202 327.54406 -14.345102 C 327.1745 -14.620902 326.9589 -14.762135 326.74566 -14.783835 z M 374.58667 -14.582814 C 369.52537 -14.537814 367.06056 -10.261854 368.22375 -3.5457611 C 368.86538 0.15833519 369.84459 1.2172642 371.53414 0.033865363 C 372.14263 -0.39233421 372.19102 -0.58542129 372.02197 -1.91692 C 371.28685 -7.7048142 371.53339 -9.8560163 373.02036 -10.624916 C 375.92666 -12.127814 378.0148 -9.6266911 378.33321 -4.2619965 C 378.44743 -2.3386984 378.5752 -1.8656802 379.09596 -1.4440806 C 379.92377 -0.77368127 380.49066 -0.80523774 381.30047 -1.566037 C 382.10674 -2.3234362 382.1944 -4.3125807 381.55317 -7.3377777 C 380.57168 -11.968573 378.02782 -14.613813 374.58667 -14.582814 z M 312.1879 -14.553875 C 311.62167 -14.566875 311.05857 -14.340412 310.75336 -13.870712 C 310.37941 -13.295313 310.40471 -12.517713 310.97143 -7.1140188 C 311.37292 -3.2841226 311.75642 -0.83312598 312.00031 -0.53922627 C 312.49209 0.053273137 314.15354 0.070144891 314.63684 -0.51235453 L 314.63736 -0.51235453 C 315.07439 -1.038954 315.09156 -1.6216582 314.78619 -5.4505544 C 314.50476 -7.7718521 314.21246 -8.0331676 315.7484 -9.569166 C 316.68579 -10.506465 317.15716 -10.763925 317.93742 -10.763925 C 319.13166 -10.650825 320.33805 -9.8345905 321.32739 -10.66419 C 321.99728 -11.270389 322.00912 -12.558911 321.34909 -13.15551 C 319.98419 -14.390609 317.13289 -14.635792 315.25748 -13.678993 L 314.10767 -13.092465 L 313.64 -13.80715 C 313.32319 -14.29055 312.75412 -14.541275 312.1879 -14.553875 z M 231.65328 -13.943059 C 231.00348 -13.943059 229.95054 -12.963659 229.95054 -12.35866 C 229.95054 -12.12306 230.99088 -7.2356184 232.26254 -1.4978241 C 234.6676 9.3542651 234.92378 11.389107 234.10222 13.120405 C 233.48396 14.423204 232.38561 14.957485 230.32674 14.956985 C 226.90769 14.956185 225.20834 12.995678 225.1901 9.0291819 C 225.1789 6.6794843 224.81704 5.9983592 223.5778 5.9983592 C 222.54044 5.9983592 221.93155 6.6161394 221.68799 7.9150381 C 221.02786 11.433835 223.09049 16.123332 225.93683 17.57543 C 228.4346 18.849729 231.85208 18.956378 234.17302 17.832779 C 235.64526 17.12008 236.74942 15.901187 237.56299 14.090888 C 238.63757 11.699991 238.38821 9.4297636 235.75535 -2.3825246 C 233.29857 -13.404614 233.10797 -13.943059 231.65328 -13.943059 z M 193.33985 -12.469764 C 192.73276 -12.456011 192.17054 -12.378067 191.70119 -12.223268 C 188.31521 -11.105769 186.92612 -5.1860561 189.24915 -1.7732595 C 191.42799 1.4275373 195.09775 2.8879392 198.55194 1.9288401 C 199.99697 1.5275405 202.20649 -0.48980802 202.20649 -1.4079071 C 202.20649 -2.2265063 201.26558 -3.2496551 200.51254 -3.2496551 C 200.21653 -3.2496551 199.47947 -2.8562062 198.87492 -2.3758067 C 197.48176 -1.2686078 196.65694 -1.0660222 195.25705 -1.4854217 C 192.76122 -2.233221 191.35092 -4.1987865 191.66605 -6.4902842 C 192.01824 -9.0507817 193.24379 -9.5640487 196.28799 -8.4250498 C 197.23122 -8.0721502 198.19588 -7.8924853 198.60258 -7.9945852 C 199.47769 -8.2142849 199.9986 -9.1541487 199.76375 -10.089548 C 199.46366 -11.285347 196.4859 -12.35223 193.95997 -12.462529 C 193.74948 -12.471779 193.54222 -12.474349 193.33985 -12.469764 z M 183.2707 -12.271327 C 182.77099 -12.271327 182.27006 -12.065813 181.94933 -11.669813 C 181.47339 -11.081914 181.41189 -11.076552 180.34323 -11.523052 C 177.75383 -12.605051 174.4809 -11.469127 172.63982 -8.8498301 C 170.70942 -6.1031329 171.53435 -1.9855403 174.41078 -0.0064422539 C 176.10282 1.1576566 178.6669 1.4348847 180.67086 0.66948548 C 181.90233 0.19918595 181.96002 0.20265686 182.53689 0.77955628 C 183.25568 1.4982556 184.1994 1.5444444 184.91556 0.89634502 C 185.51853 0.35074556 185.56232 -0.69236165 185.25352 -7.1305552 C 185.10712 -10.182552 184.95254 -11.239134 184.58587 -11.692034 C 184.26955 -12.082733 183.77049 -12.275527 183.2707 -12.271327 z M 206.83309 -12.070822 C 206.34963 -12.060822 205.87938 -11.770835 205.48847 -11.174236 C 205.08793 -10.562737 205.11461 -10.321913 205.80266 -8.3284149 C 206.3516 -6.7382165 206.60468 -5.2774236 206.73955 -2.918926 C 206.88747 -0.33402856 207.03024 0.41811872 207.45527 0.84311829 C 208.10491 1.4926176 208.80779 1.5187497 209.65617 0.92425029 C 210.23648 0.5177507 210.29888 0.23205492 210.29696 -2.0378428 C 210.29696 -5.1739397 209.8765 -7.8105094 209.05517 -9.8756073 C 208.4823 -11.316106 207.63905 -12.085222 206.83309 -12.070822 z M 298.58201 -11.919927 C 299.8499 -11.919927 301.38399 -10.710225 300.82993 -10.147425 C 300.34559 -9.6555258 296.71235 -9.4174748 296.71235 -9.8776744 C 296.71235 -10.062974 296.91114 -10.598266 297.15367 -11.067266 C 297.51147 -11.759265 297.7803 -11.919927 298.58201 -11.919927 z M 219.84004 -11.75818 C 220.93743 -11.74818 222.14791 -11.365763 222.14791 -10.789763 C 222.14791 -9.8632643 219.65109 -9.0961906 218.01742 -9.5205902 C 217.43918 -9.6707901 217.56891 -10.586299 218.27321 -11.327198 C 218.56352 -11.632598 219.18152 -11.76318 219.84004 -11.75818 z M 404.94554 -11.486878 L 404.94554 -11.486362 C 406.10281 -11.486362 406.41313 -11.353049 407.13714 -10.54275 C 408.63923 -8.8615517 408.13107 -6.5354628 406.07364 -5.6758636 C 404.91565 -5.1919641 404.89448 -5.1920832 403.75492 -5.6887827 C 401.75495 -6.5591819 401.27486 -8.8874685 402.75446 -10.543267 C 403.47838 -11.353566 403.78836 -11.486878 404.94554 -11.486878 z M 357.92671 -11.311179 C 359.10871 -11.375179 360.37888 -11.074667 361.04021 -10.456967 C 362.68013 -8.9247687 363.07525 -6.7678609 362.02981 -5.0531626 C 360.8539 -3.1243646 358.3775 -2.4229081 356.32215 -3.4362071 C 353.59956 -4.7784057 353.43464 -9.1531656 356.04517 -10.792864 C 356.53977 -11.103564 357.21745 -11.272879 357.92671 -11.311179 z M 178.11288 -8.3506358 C 178.93033 -8.3476198 179.75418 -7.9940672 180.36855 -7.2638804 C 182.70341 -4.4892832 179.00243 -0.78835022 176.22772 -3.1230479 C 175.11992 -4.055247 174.8163 -5.4473709 175.45257 -6.6778697 C 175.95852 -7.6563687 176.83656 -8.2199821 177.76354 -8.330482 C 177.87943 -8.3442945 177.9961 -8.3510666 178.11288 -8.3506358 z M 195.3511 31.734256 L 193.1719 38.187609 L 193.79254 38.187609 L 195.97122 31.734256 L 195.3511 31.734256 z M 208.76475 31.877916 L 208.76475 34.397143 C 208.67396 34.175221 208.51745 33.978482 208.29553 33.806998 C 208.07865 33.635513 207.82157 33.550166 207.524 33.550166 C 207.02972 33.550166 206.62103 33.744196 206.29823 34.132559 C 205.97544 34.515878 205.81403 35.043049 205.81403 35.713858 C 205.81403 36.092134 205.86457 36.427465 205.96544 36.719998 C 206.07136 37.007488 206.20724 37.234136 206.37368 37.400577 C 206.54517 37.561974 206.72721 37.683163 206.91887 37.763862 C 207.11557 37.849604 207.31721 37.892536 207.524 37.892536 C 207.81653 37.892536 208.0709 37.812088 208.28778 37.650691 C 208.5097 37.48425 208.67382 37.274489 208.77974 37.022305 L 208.77974 37.756627 L 209.33939 37.756627 L 209.33939 31.877916 L 208.76475 31.877916 z M 257.199 31.877916 L 257.199 37.756627 L 257.77416 37.756627 L 257.77416 35.342821 C 257.77416 34.989764 257.88994 34.684859 258.12194 34.427632 C 258.35395 34.170405 258.62624 34.041609 258.93895 34.041609 C 259.50384 34.041609 259.78644 34.435085 259.78644 35.221898 L 259.78644 37.756627 L 260.3616 37.756627 L 260.3616 35.123713 C 260.3616 34.074629 259.92249 33.550166 259.04489 33.550166 C 258.7574 33.550166 258.50032 33.627906 258.27336 33.78426 C 258.05144 33.940614 257.89002 34.127554 257.78915 34.344433 L 257.77416 34.344433 L 257.77416 31.877916 L 257.199 31.877916 z M 272.07303 31.877916 L 272.07303 34.397143 C 271.98224 34.175221 271.82573 33.978482 271.60381 33.806998 C 271.38693 33.635513 271.12985 33.550166 270.83228 33.550166 C 270.338 33.550166 269.92931 33.744196 269.60652 34.132559 C 269.28372 34.515878 269.12231 35.043049 269.12231 35.713858 C 269.12231 36.092134 269.17285 36.427465 269.27372 36.719998 C 269.37964 37.007488 269.51552 37.234136 269.68196 37.400577 C 269.85344 37.561974 270.03497 37.683163 270.22663 37.763862 C 270.42334 37.849604 270.62549 37.892536 270.83228 37.892536 C 271.12481 37.892536 271.37918 37.812088 271.59606 37.650691 C 271.81798 37.48425 271.9821 37.274489 272.08802 37.022305 L 272.08802 37.756627 L 272.64767 37.756627 L 272.64767 31.877916 L 272.07303 31.877916 z M 313.1005 31.877916 L 313.1005 34.397143 C 313.00971 34.175221 312.85372 33.978482 312.6318 33.806998 C 312.41492 33.635513 312.15732 33.550166 311.85975 33.550166 C 311.36547 33.550166 310.9573 33.744196 310.6345 34.132559 C 310.31171 34.515878 310.15029 35.043049 310.15029 35.713858 C 310.15029 36.092134 310.20032 36.427465 310.30119 36.719998 C 310.40711 37.007488 310.54351 37.234136 310.70995 37.400577 C 310.88144 37.561974 311.06296 37.683163 311.25462 37.763862 C 311.45132 37.849604 311.65296 37.892536 311.85975 37.892536 C 312.15228 37.892536 312.40717 37.812088 312.62404 37.650691 C 312.84597 37.48425 313.01009 37.274489 313.116 37.022305 L 313.116 37.756627 L 313.67566 37.756627 L 313.67566 31.877916 L 313.1005 31.877916 z M 326.66556 31.877916 L 326.66556 37.756627 L 327.24072 37.756627 L 327.24072 37.030057 C 327.33655 37.26711 327.49525 37.471455 327.71718 37.642939 C 327.9391 37.80938 328.19399 37.892536 328.48147 37.892536 C 328.68827 37.892536 328.88719 37.849604 329.07885 37.763862 C 329.27555 37.683163 329.45708 37.559783 329.62352 37.393342 C 329.795 37.226901 329.93141 36.999736 330.03228 36.712247 C 330.1382 36.419714 330.19093 36.08709 330.19093 35.713858 C 330.19093 35.043049 330.03223 34.515878 329.71447 34.132559 C 329.39673 33.744196 328.98585 33.550166 328.48147 33.550166 C 328.17885 33.550166 327.91417 33.640928 327.68721 33.822501 C 327.46025 34.004073 327.31134 34.200812 327.24072 34.412645 L 327.24072 31.877916 L 326.66556 31.877916 z M 335.69912 31.877916 L 335.69912 34.397143 C 335.60834 34.175221 335.45182 33.978482 335.2299 33.806998 C 335.01302 33.635513 334.75594 33.550166 334.45837 33.550166 C 333.96408 33.550166 333.5554 33.744196 333.23261 34.132559 C 332.90981 34.515878 332.7484 35.043049 332.7484 35.713858 C 332.7484 36.092134 332.79894 36.427465 332.89981 36.719998 C 333.00572 37.007488 333.14161 37.234136 333.30805 37.400577 C 333.47953 37.561974 333.66106 37.683163 333.85272 37.763862 C 334.04943 37.849604 334.25158 37.892536 334.45837 37.892536 C 334.7509 37.892536 335.00528 37.812088 335.22215 37.650691 C 335.44407 37.48425 335.60819 37.274489 335.71411 37.022305 L 335.71411 37.756627 L 336.27376 37.756627 L 336.27376 31.877916 L 335.69912 31.877916 z M 349.92203 31.877916 L 349.92203 37.756627 L 350.49719 37.756627 L 350.49719 31.877916 L 349.92203 31.877916 z M 218.72848 32.006591 L 218.72848 32.770885 L 219.47004 32.770885 L 219.47004 32.006591 L 218.72848 32.006591 z M 261.5946 32.006591 L 261.5946 32.770885 L 262.33616 32.770885 L 262.33616 32.006591 L 261.5946 32.006591 z M 282.03676 32.006591 L 282.03676 32.770885 L 282.77832 32.770885 L 282.77832 32.006591 L 282.03676 32.006591 z M 184.04068 32.08979 L 184.04068 35.706107 C 184.04068 36.407177 184.2146 36.946854 184.56261 37.325129 C 184.91567 37.703405 185.40751 37.892536 186.03797 37.892536 C 186.68356 37.892536 187.1803 37.700697 187.52832 37.317378 C 187.87633 36.929015 188.05025 36.392046 188.05025 35.706107 L 188.05025 32.08979 L 187.44512 32.08979 L 187.44512 35.69112 C 187.44512 36.240881 187.31361 36.659368 187.05135 36.946858 C 186.79412 37.229303 186.4566 37.370604 186.03797 37.370604 C 185.62943 37.370604 185.29411 37.232012 185.03183 36.954609 C 184.77461 36.677207 184.64581 36.256012 184.64581 35.69112 L 184.64581 32.08979 L 184.04068 32.08979 z M 188.89 32.08979 L 190.66043 34.843627 L 188.79904 37.756627 L 189.5406 37.756627 L 190.42582 36.333975 C 190.61748 36.021268 190.81693 35.685936 191.02371 35.327835 L 191.05369 35.327835 C 191.09403 35.393403 191.18751 35.549917 191.33377 35.797057 C 191.48004 36.039154 191.58821 36.217971 191.65882 36.333975 L 192.55179 37.756627 L 193.29334 37.756627 L 191.41697 34.843627 L 193.20239 32.08979 L 192.44585 32.08979 L 191.61386 33.459215 C 191.56343 33.539914 191.47266 33.686114 191.34153 33.897948 C 191.2154 34.104739 191.11922 34.266152 191.05369 34.382156 L 191.02371 34.382156 C 190.9985 34.336764 190.91753 34.200362 190.78135 33.973396 C 190.65021 33.746431 190.54914 33.57522 190.47853 33.459215 L 189.64654 32.08979 L 188.89 32.08979 z M 196.64456 32.08979 L 196.64456 35.706107 C 196.64456 36.407177 196.81847 36.946854 197.16649 37.325129 C 197.51955 37.703405 198.0114 37.892536 198.64185 37.892536 C 199.28745 37.892536 199.78419 37.700697 200.1322 37.317378 C 200.48022 36.929015 200.65413 36.392046 200.65413 35.706107 L 200.65413 32.08979 L 200.049 32.08979 L 200.049 35.69112 C 200.049 36.240881 199.91802 36.659368 199.65575 36.946858 C 199.39852 37.229303 199.06048 37.370604 198.64185 37.370604 C 198.23332 37.370604 197.89798 37.232012 197.63571 36.954609 C 197.37849 36.677207 197.24969 36.256012 197.24969 35.69112 L 197.24969 32.08979 L 196.64456 32.08979 z M 202.20546 32.08979 L 202.20546 37.756627 L 202.81059 37.756627 L 202.81059 32.08979 L 202.20546 32.08979 z M 212.16919 33.550166 C 211.62447 33.550166 211.18047 33.749095 210.83749 34.147545 C 210.49453 34.540952 210.32331 35.055618 210.32331 35.69112 C 210.32331 36.351842 210.49453 36.883912 210.83749 37.287405 C 211.18047 37.690899 211.63427 37.892536 212.19917 37.892536 C 212.61779 37.892536 212.96834 37.796875 213.25078 37.605215 C 213.53323 37.413556 213.73757 37.168987 213.86366 36.87141 L 213.36447 36.719998 C 213.25351 36.926789 213.097 37.093101 212.89525 37.219193 C 212.6935 37.340241 212.46143 37.400577 212.19917 37.400577 C 211.79567 37.400577 211.48045 37.254377 211.25349 36.961844 C 211.02652 36.669311 210.91346 36.318766 210.91346 35.910228 L 213.93963 35.910228 C 213.9497 35.779093 213.95462 35.678533 213.95462 35.607921 C 213.95462 35.007724 213.79591 34.515878 213.47816 34.132559 C 213.16041 33.744196 212.72399 33.550166 212.16919 33.550166 z M 216.19375 33.550166 C 215.71965 33.550166 215.3468 33.655625 215.07444 33.867459 C 214.80209 34.079294 214.66568 34.354289 214.66568 34.692215 C 214.66568 34.868744 214.70101 35.025258 214.77162 35.161437 C 214.84728 35.297616 214.95325 35.413389 215.08943 35.509219 C 215.2256 35.600006 215.35659 35.673364 215.48269 35.728844 C 215.60878 35.784325 215.7604 35.839762 215.93692 35.895242 C 216.13867 35.960812 216.28216 36.008643 216.3679 36.038903 C 216.45869 36.064118 216.57227 36.107051 216.70845 36.167577 C 216.84467 36.223061 216.93814 36.276307 216.98854 36.326741 C 217.04401 36.372134 217.09403 36.43247 217.13943 36.508125 C 217.18483 36.578736 217.20765 36.659185 217.20765 36.749971 C 217.20765 36.961805 217.11469 37.123218 216.92808 37.234179 C 216.7465 37.34514 216.50142 37.400577 216.19375 37.400577 C 215.68434 37.400577 215.28107 37.166322 214.98349 36.697261 L 214.54476 36.954609 C 214.71625 37.252186 214.9429 37.48425 215.22534 37.650691 C 215.50778 37.812088 215.83061 37.892536 216.19375 37.892536 C 216.69308 37.892536 217.08436 37.784369 217.36681 37.567492 C 217.6543 37.34557 217.79779 37.072766 217.79779 36.749971 C 217.79779 36.613791 217.76737 36.487704 217.70684 36.371699 C 217.64632 36.250651 217.57077 36.152282 217.47998 36.076627 C 217.38919 35.995928 217.27561 35.920378 217.13943 35.849767 C 217.00325 35.779152 216.87716 35.723716 216.76116 35.683369 C 216.6502 35.64302 216.52192 35.600088 216.37566 35.554695 C 216.20418 35.499215 216.06558 35.454092 215.95966 35.418786 C 215.85879 35.378435 215.74521 35.325189 215.61911 35.259622 C 215.49807 35.189011 215.40731 35.108562 215.34678 35.017776 C 215.28624 34.921947 215.25583 34.815971 215.25583 34.699966 C 215.25583 34.498219 215.33409 34.339514 215.49044 34.22351 C 215.65183 34.102462 215.88609 34.041609 216.19375 34.041609 C 216.43585 34.041609 216.65541 34.107361 216.85211 34.238496 C 217.05386 34.364588 217.20766 34.515686 217.31358 34.692215 L 217.70684 34.434866 C 217.58579 34.197814 217.38686 33.991278 217.10946 33.814749 C 216.83206 33.638221 216.52664 33.550166 216.19375 33.550166 z M 222.15566 33.550166 C 221.66139 33.550166 221.25759 33.744196 220.94489 34.132559 C 220.63217 34.515878 220.47618 35.022937 220.47618 35.653397 C 220.47618 36.263681 220.62998 36.765325 220.93765 37.158731 C 221.24532 37.547094 221.6562 37.741124 222.17065 37.741124 C 222.4531 37.741124 222.69277 37.668283 222.88947 37.522016 C 223.09122 37.37575 223.24503 37.188809 223.35094 36.961844 L 223.35094 37.544754 C 223.35094 38.013816 223.24986 38.386664 223.04812 38.664066 C 222.85142 38.946511 222.57423 39.087812 222.21613 39.087812 C 221.78237 39.087812 221.409 38.911186 221.0963 38.558129 L 220.68805 38.823229 C 221.04615 39.317509 221.55051 39.564786 222.20114 39.564786 C 222.80134 39.564786 223.23723 39.375654 223.50959 38.997379 C 223.78699 38.624147 223.9261 38.051336 223.9261 37.279654 L 223.9261 33.686075 L 223.35094 33.686075 L 223.35094 34.352184 C 223.2652 34.14035 223.12171 33.953409 222.91996 33.792012 C 222.72325 33.630614 222.46837 33.550166 222.15566 33.550166 z M 227.03599 33.550166 C 226.70815 33.550166 226.42555 33.638221 226.18849 33.814749 C 225.95145 33.991278 225.80254 34.18041 225.74201 34.382156 L 225.73426 34.382156 L 225.73426 33.686075 L 225.1591 33.686075 L 225.1591 37.756627 L 225.74976 37.756627 L 225.74976 35.327835 C 225.74976 34.974778 225.86334 34.672064 226.09031 34.41988 C 226.31727 34.167696 226.58685 34.041609 226.89956 34.041609 C 227.46445 34.041609 227.74705 34.435085 227.74705 35.221898 L 227.74705 37.756627 L 228.3372 37.756627 L 228.3372 35.123713 C 228.3372 34.548734 228.2133 34.142752 227.96616 33.9057 C 227.72406 33.668647 227.41426 33.550166 227.03599 33.550166 z M 231.07553 33.550166 C 230.53082 33.550166 230.08681 33.749095 229.74383 34.147545 C 229.40087 34.540952 229.22913 35.055618 229.22913 35.69112 C 229.22913 36.351842 229.40087 36.883912 229.74383 37.287405 C 230.08681 37.690899 230.54061 37.892536 231.10551 37.892536 C 231.52413 37.892536 231.87468 37.796875 232.15712 37.605215 C 232.43957 37.413556 232.64391 37.168987 232.77 36.87141 L 232.27081 36.719998 C 232.15984 36.926789 232.00333 37.093101 231.80159 37.219193 C 231.59984 37.340241 231.36777 37.400577 231.10551 37.400577 C 230.70201 37.400577 230.38679 37.254377 230.15983 36.961844 C 229.93286 36.669311 229.81928 36.318766 229.81928 35.910228 L 232.84545 35.910228 C 232.85552 35.779093 232.86095 35.678533 232.86095 35.607921 C 232.86095 35.007724 232.70173 34.515878 232.38398 34.132559 C 232.06623 33.744196 231.63034 33.550166 231.07553 33.550166 z M 235.46338 33.550166 C 235.17085 33.550166 234.93117 33.625715 234.74456 33.777025 C 234.55794 33.928335 234.42424 34.094647 234.34355 34.27622 L 234.34355 33.686075 L 233.7839 33.686075 L 233.7839 37.756627 L 234.37404 37.756627 L 234.37404 35.486482 C 234.37404 35.062813 234.4697 34.722583 234.66136 34.465355 C 234.85302 34.208128 235.12041 34.079332 235.46338 34.079332 C 235.66513 34.079332 235.85697 34.114658 236.03854 34.185269 L 236.03854 33.656103 C 235.8721 33.585491 235.68026 33.550166 235.46338 33.550166 z M 242.58232 33.550166 C 242.08805 33.550166 241.68477 33.744196 241.37206 34.132559 C 241.05936 34.515878 240.90284 35.022937 240.90284 35.653397 C 240.90284 36.263681 241.05665 36.765325 241.36431 37.158731 C 241.67197 37.547094 242.08337 37.741124 242.59783 37.741124 C 242.88027 37.741124 243.11942 37.668283 243.31613 37.522016 C 243.51788 37.37575 243.67168 37.188809 243.7776 36.961844 L 243.7776 37.544754 C 243.7776 38.013816 243.67704 38.386664 243.47529 38.664066 C 243.27859 38.946511 243.00089 39.087812 242.64279 39.087812 C 242.20903 39.087812 241.83618 38.911186 241.52347 38.558129 L 241.11471 38.823229 C 241.47282 39.317509 241.97717 39.564786 242.6278 39.564786 C 243.22799 39.564786 243.6644 39.375654 243.93676 38.997379 C 244.21417 38.624147 244.35276 38.051336 244.35276 37.279654 L 244.35276 33.686075 L 243.7776 33.686075 L 243.7776 34.352184 C 243.69185 34.14035 243.54837 33.953409 243.34662 33.792012 C 243.14992 33.630614 242.89504 33.550166 242.58232 33.550166 z M 247.26576 33.550166 C 246.97323 33.550166 246.73355 33.625715 246.54694 33.777025 C 246.36032 33.928335 246.22663 34.094647 246.14593 34.27622 L 246.14593 33.686075 L 245.58576 33.686075 L 245.58576 37.756627 L 246.1759 37.756627 L 246.1759 35.486482 C 246.1759 35.062813 246.27208 34.722583 246.46374 34.465355 C 246.6554 34.208128 246.92279 34.079332 247.26576 34.079332 C 247.46751 34.079332 247.65883 34.114658 247.8404 34.185269 L 247.8404 33.656103 C 247.67396 33.585491 247.48264 33.550166 247.26576 33.550166 z M 249.8377 33.550166 C 249.51994 33.550166 249.21723 33.623007 248.92974 33.769274 C 248.64729 33.91554 248.40543 34.104672 248.20369 34.336681 L 248.58196 34.654491 C 248.73831 34.462831 248.92744 34.311733 249.14937 34.200772 C 249.37633 34.084768 249.61111 34.026623 249.8532 34.026623 C 250.18608 34.026623 250.44315 34.109779 250.62473 34.27622 C 250.8063 34.442661 250.89706 34.651905 250.89706 34.904088 L 250.89706 35.138699 C 250.72558 35.19418 250.37774 35.264831 249.8532 35.350573 C 248.68307 35.532145 248.09775 36.001171 248.09775 36.757722 C 248.09775 37.090604 248.22113 37.362892 248.46827 37.574726 C 248.72046 37.78656 249.071 37.892536 249.51989 37.892536 C 249.86285 37.892536 250.16067 37.814279 250.41285 37.657925 C 250.66503 37.496528 250.83135 37.307397 250.91205 37.090518 L 250.91205 37.756627 L 251.47222 37.756627 L 251.47222 35.146451 C 251.47222 34.082236 250.92713 33.550166 249.8377 33.550166 z M 254.50563 33.550166 C 254.22318 33.550166 253.97101 33.630614 253.74909 33.792012 C 253.53221 33.948365 253.36589 34.157609 253.24989 34.41988 L 253.24989 33.686075 L 252.69024 33.686075 L 252.69024 39.534297 L 253.26488 39.534297 L 253.26488 37.052794 C 253.36575 37.294891 253.52227 37.496528 253.7341 37.657925 C 253.94593 37.814279 254.20301 37.892536 254.50563 37.892536 C 254.96965 37.892536 255.37073 37.706112 255.70866 37.332881 C 256.04658 36.954605 256.2156 36.414929 256.2156 35.713858 C 256.2156 35.058181 256.05419 34.533717 255.73139 34.140311 C 255.40859 33.746904 254.99991 33.550166 254.50563 33.550166 z M 265.15821 33.550166 C 264.6034 33.550166 264.16209 33.751803 263.83426 34.155297 C 263.50642 34.553747 263.3423 35.075503 263.3423 35.721093 C 263.3423 36.381814 263.50861 36.908985 263.84149 37.302392 C 264.17942 37.695798 264.61854 37.892536 265.15821 37.892536 C 265.53144 37.892536 265.85646 37.78656 266.13386 37.574726 C 266.41631 37.357848 266.61033 37.098066 266.71625 36.795446 L 266.21706 36.636799 C 266.13636 36.838546 265.99777 37.017363 265.80106 37.173717 C 265.6094 37.325028 265.39526 37.400577 265.15821 37.400577 C 264.80515 37.400577 264.51223 37.249478 264.28023 36.946858 C 264.04822 36.644237 263.93244 36.235548 263.93244 35.721093 C 263.93244 35.2369 264.04332 34.836333 264.26524 34.518582 C 264.48716 34.20083 264.78498 34.041609 265.15821 34.041609 C 265.38013 34.041609 265.57415 34.109551 265.7406 34.245731 C 265.91208 34.38191 266.03546 34.550929 266.11112 34.752676 L 266.61032 34.609016 C 266.52458 34.321526 266.35066 34.07425 266.08838 33.867459 C 265.83116 33.655625 265.52135 33.550166 265.15821 33.550166 z M 275.47747 33.550166 C 274.93276 33.550166 274.48875 33.749095 274.14577 34.147545 C 273.80281 34.540952 273.63159 35.055618 273.63159 35.69112 C 273.63159 36.351842 273.80281 36.883912 274.14577 37.287405 C 274.48875 37.690899 274.94255 37.892536 275.50745 37.892536 C 275.92607 37.892536 276.27662 37.796875 276.55906 37.605215 C 276.84151 37.413556 277.04585 37.168987 277.17194 36.87141 L 276.67275 36.719998 C 276.56178 36.926789 276.40528 37.093101 276.20353 37.219193 C 276.00178 37.340241 275.76971 37.400577 275.50745 37.400577 C 275.10395 37.400577 274.78873 37.254377 274.56177 36.961844 C 274.3348 36.669311 274.22174 36.318766 274.22174 35.910228 L 277.24791 35.910228 C 277.25798 35.779093 277.2629 35.678533 277.2629 35.607921 C 277.2629 35.007724 277.10419 34.515878 276.78644 34.132559 C 276.46869 33.744196 276.03228 33.550166 275.47747 33.550166 z M 279.50204 33.550166 C 279.02793 33.550166 278.65508 33.655625 278.38272 33.867459 C 278.11036 34.079294 277.97396 34.354289 277.97396 34.692215 C 277.97396 34.868744 278.00929 35.025258 278.0799 35.161437 C 278.15555 35.297616 278.26153 35.413389 278.39771 35.509219 C 278.53389 35.600006 278.66487 35.673364 278.79097 35.728844 C 278.91706 35.784325 279.06868 35.839762 279.2452 35.895242 C 279.44695 35.960812 279.59044 36.008643 279.67618 36.038903 C 279.76697 36.064118 279.88055 36.107051 280.01673 36.167577 C 280.15289 36.223061 280.24635 36.276307 280.29682 36.326741 C 280.35229 36.372134 280.40231 36.43247 280.44771 36.508125 C 280.49311 36.578736 280.51593 36.659185 280.51593 36.749971 C 280.51593 36.961805 280.42246 37.123218 280.23584 37.234179 C 280.05427 37.34514 279.80969 37.400577 279.50204 37.400577 C 278.99262 37.400577 278.58935 37.166322 278.29177 36.697261 L 277.85304 36.954609 C 278.02452 37.252186 278.25117 37.48425 278.53362 37.650691 C 278.81607 37.812088 279.13889 37.892536 279.50204 37.892536 C 280.00135 37.892536 280.39264 37.784369 280.67509 37.567492 C 280.96258 37.34557 281.10607 37.072766 281.10607 36.749971 C 281.10607 36.613791 281.07565 36.487704 281.01512 36.371699 C 280.9546 36.250651 280.87905 36.152282 280.78826 36.076627 C 280.69748 35.995928 280.58389 35.920378 280.44771 35.849767 C 280.31153 35.779152 280.18545 35.723716 280.06944 35.683369 C 279.95848 35.64302 279.8302 35.600088 279.68394 35.554695 C 279.51245 35.499215 279.37334 35.454092 279.26742 35.418786 C 279.16655 35.378435 279.05349 35.325189 278.92739 35.259622 C 278.80635 35.189011 278.71559 35.108562 278.65506 35.017776 C 278.59453 34.921947 278.56411 34.815971 278.56411 34.699966 C 278.56411 34.498219 278.64237 34.339514 278.79872 34.22351 C 278.96012 34.102462 279.19437 34.041609 279.50204 34.041609 C 279.74413 34.041609 279.96369 34.107361 280.16039 34.238496 C 280.36214 34.364588 280.51595 34.515686 280.62186 34.692215 L 281.01512 34.434866 C 280.89407 34.197814 280.69514 33.991278 280.41774 33.814749 C 280.14034 33.638221 279.83491 33.550166 279.50204 33.550166 z M 285.46395 33.550166 C 284.96967 33.550166 284.56588 33.744196 284.25317 34.132559 C 283.94046 34.515878 283.78446 35.022937 283.78446 35.653397 C 283.78446 36.263681 283.93827 36.765325 284.24593 37.158731 C 284.55359 37.547094 284.96447 37.741124 285.47893 37.741124 C 285.76138 37.741124 286.00105 37.668283 286.19775 37.522016 C 286.3995 37.37575 286.5533 37.188809 286.65922 36.961844 L 286.65922 37.544754 C 286.65922 38.013816 286.55814 38.386664 286.3564 38.664066 C 286.15969 38.946511 285.88251 39.087812 285.52441 39.087812 C 285.09065 39.087812 284.71729 38.911186 284.40458 38.558129 L 283.99633 38.823229 C 284.35443 39.317509 284.85879 39.564786 285.50942 39.564786 C 286.10962 39.564786 286.54551 39.375654 286.81787 38.997379 C 287.09527 38.624147 287.23438 38.051336 287.23438 37.279654 L 287.23438 33.686075 L 286.65922 33.686075 L 286.65922 34.352184 C 286.57347 34.14035 286.42947 33.953409 286.22772 33.792012 C 286.03102 33.630614 285.77665 33.550166 285.46395 33.550166 z M 290.34427 33.550166 C 290.01643 33.550166 289.73383 33.638221 289.49677 33.814749 C 289.25973 33.991278 289.11082 34.18041 289.05029 34.382156 L 289.04254 34.382156 L 289.04254 33.686075 L 288.46738 33.686075 L 288.46738 37.756627 L 289.05804 37.756627 L 289.05804 35.327835 C 289.05804 34.974778 289.17162 34.672064 289.39859 34.41988 C 289.62555 34.167696 289.89513 34.041609 290.20784 34.041609 C 290.77273 34.041609 291.05534 34.435085 291.05534 35.221898 L 291.05534 37.756627 L 291.64548 37.756627 L 291.64548 35.123713 C 291.64548 34.548734 291.52159 34.142752 291.27444 33.9057 C 291.03235 33.668647 290.72254 33.550166 290.34427 33.550166 z M 294.38381 33.550166 C 293.8391 33.550166 293.39509 33.749095 293.05211 34.147545 C 292.70914 34.540952 292.53742 35.055618 292.53742 35.69112 C 292.53742 36.351842 292.70914 36.883912 293.05211 37.287405 C 293.39509 37.690899 293.8489 37.892536 294.41379 37.892536 C 294.83241 37.892536 295.18296 37.796875 295.4654 37.605215 C 295.74785 37.413556 295.95219 37.168987 296.07828 36.87141 L 295.57909 36.719998 C 295.46813 36.926789 295.31161 37.093101 295.10987 37.219193 C 294.90812 37.340241 294.67606 37.400577 294.41379 37.400577 C 294.01029 37.400577 293.69507 37.254377 293.46811 36.961844 C 293.24115 36.669311 293.12756 36.318766 293.12756 35.910228 L 296.15373 35.910228 C 296.1638 35.779093 296.16923 35.678533 296.16923 35.607921 C 296.16923 35.007724 296.01001 34.515878 295.69226 34.132559 C 295.37451 33.744196 294.93862 33.550166 294.38381 33.550166 z M 298.77166 33.550166 C 298.47913 33.550166 298.23946 33.625715 298.05284 33.777025 C 297.86623 33.928335 297.73253 34.094647 297.65183 34.27622 L 297.65183 33.686075 L 297.09218 33.686075 L 297.09218 37.756627 L 297.68232 37.756627 L 297.68232 35.486482 C 297.68232 35.062813 297.77798 34.722583 297.96964 34.465355 C 298.1613 34.208128 298.42869 34.079332 298.77166 34.079332 C 298.97341 34.079332 299.16525 34.114658 299.34682 34.185269 L 299.34682 33.656103 C 299.18037 33.585491 298.98853 33.550166 298.77166 33.550166 z M 303.27319 33.550166 C 302.95544 33.550166 302.65273 33.623007 302.36524 33.769274 C 302.08279 33.91554 301.84042 34.104672 301.63867 34.336681 L 302.01694 34.654491 C 302.17329 34.462831 302.36294 34.311733 302.58486 34.200772 C 302.81183 34.084768 303.04609 34.026623 303.28818 34.026623 C 303.62106 34.026623 303.87814 34.109779 304.05971 34.27622 C 304.24128 34.442661 304.33204 34.651905 304.33204 34.904088 L 304.33204 35.138699 C 304.16056 35.19418 303.81272 35.264831 303.28818 35.350573 C 302.11805 35.532145 301.53325 36.001171 301.53325 36.757722 C 301.53325 37.090604 301.65663 37.362892 301.90377 37.574726 C 302.15596 37.78656 302.5065 37.892536 302.95538 37.892536 C 303.29835 37.892536 303.59565 37.814279 303.84784 37.657925 C 304.10002 37.496528 304.26685 37.307397 304.34755 37.090518 L 304.34755 37.756627 L 304.9072 37.756627 L 304.9072 35.146451 C 304.9072 34.082236 304.36263 33.550166 303.27319 33.550166 z M 307.95663 33.550166 C 307.62879 33.550166 307.34619 33.638221 307.10914 33.814749 C 306.8721 33.991278 306.72318 34.18041 306.66265 34.382156 L 306.6549 34.382156 L 306.6549 33.686075 L 306.07974 33.686075 L 306.07974 37.756627 L 306.6704 37.756627 L 306.6704 35.327835 C 306.6704 34.974778 306.78398 34.672064 307.01095 34.41988 C 307.23792 34.167696 307.5075 34.041609 307.8202 34.041609 C 308.3851 34.041609 308.6677 34.435085 308.6677 35.221898 L 308.6677 37.756627 L 309.25784 37.756627 L 309.25784 35.123713 C 309.25784 34.548734 309.13446 34.142752 308.88732 33.9057 C 308.64523 33.668647 308.33491 33.550166 307.95663 33.550166 z M 323.91173 33.550166 C 323.36701 33.550166 322.923 33.749095 322.58003 34.147545 C 322.23706 34.540952 322.06585 35.055618 322.06585 35.69112 C 322.06585 36.351842 322.23758 36.883912 322.58054 37.287405 C 322.92352 37.690899 323.37732 37.892536 323.94222 37.892536 C 324.36084 37.892536 324.71139 37.796875 324.99383 37.605215 C 325.27628 37.413556 325.48062 37.168987 325.60671 36.87141 L 325.107 36.719998 C 324.99604 36.926789 324.84004 37.093101 324.6383 37.219193 C 324.43655 37.340241 324.20448 37.400577 323.94222 37.400577 C 323.53872 37.400577 323.2235 37.254377 322.99654 36.961844 C 322.76957 36.669311 322.65599 36.318766 322.65599 35.910228 L 325.68216 35.910228 C 325.69223 35.779093 325.69715 35.678533 325.69715 35.607921 C 325.69715 35.007724 325.53844 34.515878 325.22069 34.132559 C 324.90294 33.744196 324.46653 33.550166 323.91173 33.550166 z M 339.10357 33.550166 C 338.55885 33.550166 338.11484 33.749095 337.77186 34.147545 C 337.4289 34.540952 337.25717 35.055618 337.25717 35.69112 C 337.25717 36.351842 337.4289 36.883912 337.77186 37.287405 C 338.11484 37.690899 338.56864 37.892536 339.13354 37.892536 C 339.55216 37.892536 339.90271 37.796875 340.18515 37.605215 C 340.4676 37.413556 340.67194 37.168987 340.79804 36.87141 L 340.29884 36.719998 C 340.18787 36.926789 340.03137 37.093101 339.82962 37.219193 C 339.62787 37.340241 339.3958 37.400577 339.13354 37.400577 C 338.73004 37.400577 338.41482 37.254377 338.18786 36.961844 C 337.96089 36.669311 337.84731 36.318766 337.84731 35.910228 L 340.87348 35.910228 C 340.88355 35.779093 340.88899 35.678533 340.88899 35.607921 C 340.88899 35.007724 340.72977 34.515878 340.41201 34.132559 C 340.09426 33.744196 339.65837 33.550166 339.10357 33.550166 z M 347.12271 33.550166 C 346.57799 33.550166 346.1345 33.749095 345.79153 34.147545 C 345.44856 34.540952 345.27683 35.055618 345.27683 35.69112 C 345.27683 36.351842 345.44856 36.883912 345.79153 37.287405 C 346.1345 37.690899 346.58831 37.892536 347.1532 37.892536 C 347.57183 37.892536 347.92237 37.796875 348.20482 37.605215 C 348.48726 37.413556 348.69161 37.168987 348.8177 36.87141 L 348.31799 36.719998 C 348.20703 36.926789 348.05103 37.093101 347.84928 37.219193 C 347.64754 37.340241 347.41548 37.400577 347.1532 37.400577 C 346.74971 37.400577 346.43449 37.254377 346.20752 36.961844 C 345.98056 36.669311 345.86698 36.318766 345.86698 35.910228 L 348.89315 35.910228 C 348.90322 35.779093 348.90813 35.678533 348.90813 35.607921 C 348.90813 35.007724 348.74943 34.515878 348.43168 34.132559 C 348.11393 33.744196 347.67752 33.550166 347.12271 33.550166 z M 353.35696 33.550166 C 352.77694 33.550166 352.32532 33.756701 352.00252 34.170283 C 351.68477 34.583864 351.52606 35.100721 351.52606 35.721093 C 351.52606 35.988407 351.56139 36.245998 351.632 36.493139 C 351.70261 36.740278 351.80588 36.972342 351.94206 37.18922 C 352.08328 37.401055 352.27512 37.572265 352.51722 37.703401 C 352.76436 37.829493 353.04425 37.892536 353.35696 37.892536 C 353.67471 37.892536 353.95461 37.826784 354.1967 37.695649 C 354.44384 37.564513 354.63516 37.393303 354.77134 37.181469 C 354.9126 36.96459 355.01638 36.732527 355.08192 36.485387 C 355.15253 36.238247 355.18785 35.983364 355.18785 35.721093 C 355.18785 35.100721 355.02645 34.583864 354.70365 34.170283 C 354.38085 33.756701 353.93194 33.550166 353.35696 33.550166 z M 357.98665 33.550166 C 357.7042 33.550166 357.45203 33.630614 357.23011 33.792012 C 357.01323 33.948365 356.84692 34.157609 356.73091 34.41988 L 356.73091 33.686075 L 356.17126 33.686075 L 356.17126 39.534297 L 356.7459 39.534297 L 356.7459 37.052794 C 356.84677 37.294891 357.00329 37.496528 357.21512 37.657925 C 357.42696 37.814279 357.68403 37.892536 357.98665 37.892536 C 358.45066 37.892536 358.85175 37.706112 359.18968 37.332881 C 359.5276 36.954605 359.69662 36.414929 359.69662 35.713858 C 359.69662 35.058181 359.53521 34.533717 359.21242 34.140311 C 358.88962 33.746904 358.48093 33.550166 357.98665 33.550166 z M 362.20861 33.550166 C 361.6639 33.550166 361.21989 33.749095 360.87691 34.147545 C 360.53395 34.540952 360.36222 35.055618 360.36222 35.69112 L 360.36273 35.69112 C 360.36273 36.351842 360.53395 36.883912 360.87691 37.287405 C 361.21989 37.690899 361.67369 37.892536 362.23859 37.892536 C 362.65721 37.892536 363.00776 37.796875 363.2902 37.605215 C 363.57265 37.413556 363.77699 37.168987 363.90309 36.87141 L 363.40389 36.719998 C 363.29293 36.926789 363.13642 37.093101 362.93467 37.219193 C 362.73292 37.340241 362.50085 37.400577 362.23859 37.400577 C 361.83509 37.400577 361.51987 37.254377 361.29291 36.961844 C 361.06594 36.669311 360.95236 36.318766 360.95236 35.910228 L 363.97905 35.910228 C 363.98912 35.779093 363.99404 35.678533 363.99404 35.607921 C 363.99404 35.007724 363.83482 34.515878 363.51706 34.132559 C 363.19931 33.744196 362.76341 33.550166 362.20861 33.550166 z M 366.59646 33.550166 C 366.30393 33.550166 366.06426 33.625715 365.87764 33.777025 C 365.69103 33.928335 365.55733 34.094647 365.47663 34.27622 L 365.47663 33.686075 L 364.91698 33.686075 L 364.91698 37.756627 L 365.50712 37.756627 L 365.50712 35.486482 C 365.50712 35.062813 365.60278 34.722583 365.79444 34.465355 C 365.9861 34.208128 366.25349 34.079332 366.59646 34.079332 C 366.79821 34.079332 366.99005 34.114658 367.17162 34.185269 L 367.17162 33.656103 C 367.00517 33.585491 366.81333 33.550166 366.59646 33.550166 z M 218.81943 33.686075 L 218.81943 37.756627 L 219.39408 37.756627 L 219.39408 33.686075 L 218.81943 33.686075 z M 261.68555 33.686075 L 261.68555 37.756627 L 262.26019 37.756627 L 262.26019 33.686075 L 261.68555 33.686075 z M 282.12771 33.686075 L 282.12771 37.756627 L 282.70236 37.756627 L 282.70236 33.686075 L 282.12771 33.686075 z M 316.27809 33.686075 L 317.39791 37.756627 L 318.13172 37.756627 L 318.7446 35.305097 C 318.76982 35.209268 318.84318 34.876644 318.96423 34.306709 L 318.9942 34.306709 C 319.00429 34.357145 319.07764 34.689769 319.21382 35.305097 L 319.82671 37.756627 L 320.56051 37.756627 L 321.67982 33.686075 L 321.02922 33.686075 L 320.43184 36.213052 C 320.3007 36.823334 320.22735 37.158666 320.21221 37.219193 L 320.18224 37.219193 C 320.15194 37.07797 320.1112 36.901344 320.0608 36.689509 C 320.01039 36.477675 319.97506 36.328767 319.95486 36.243025 L 319.32699 33.686075 L 318.63091 33.686075 L 318.0108 36.213052 C 317.99061 36.308882 317.95257 36.470295 317.89711 36.697261 C 317.84161 36.924226 317.80138 37.098145 317.77618 37.219193 L 317.7457 37.219193 C 317.72552 37.128407 317.65268 36.793075 317.52659 36.213052 L 316.92869 33.686075 L 316.27809 33.686075 z M 341.26726 33.686075 L 342.76484 37.756627 L 343.47642 37.756627 L 344.97401 33.686075 L 344.3234 33.686075 L 343.46092 36.23579 C 343.42562 36.351795 343.37018 36.520814 343.29452 36.742736 C 343.21889 36.964657 343.16346 37.133677 343.12813 37.249682 L 343.11314 37.249682 C 343.08288 37.153852 343.03234 36.992439 342.96173 36.765473 C 342.8911 36.538508 342.83566 36.361882 342.79533 36.23579 L 341.91786 33.686075 L 341.26726 33.686075 z M 207.59945 34.041609 C 207.92729 34.041609 208.20499 34.193224 208.43195 34.495845 C 208.66396 34.798465 208.77974 35.204447 208.77974 35.713858 C 208.77974 36.228313 208.66396 36.639193 208.43195 36.946858 C 208.20499 37.249478 207.92729 37.400577 207.59945 37.400577 C 207.24639 37.400577 206.95889 37.246771 206.73697 36.939106 C 206.51505 36.631443 206.40417 36.22327 206.40417 35.713858 C 206.40417 35.209491 206.51285 34.8057 206.72973 34.503079 C 206.95165 34.195416 207.24135 34.041609 207.59945 34.041609 z M 212.16919 34.041609 C 212.53233 34.041609 212.82203 34.180202 213.03891 34.457604 C 213.25579 34.729962 213.36447 35.065811 213.36447 35.464261 L 210.92844 35.464261 C 210.93853 35.080942 211.05431 34.747801 211.27623 34.465355 C 211.50319 34.18291 211.801 34.041609 212.16919 34.041609 z M 222.23111 34.041609 C 222.55895 34.041609 222.82634 34.185618 223.03313 34.473107 C 223.24496 34.755553 223.35094 35.143614 223.35094 35.637894 C 223.35094 36.147305 223.24768 36.543489 223.04088 36.825935 C 222.83914 37.108381 222.56414 37.249682 222.21613 37.249682 C 221.87316 37.249682 221.59597 37.103482 221.38414 36.810949 C 221.1723 36.513372 221.06633 36.124794 221.06633 35.645645 C 221.06633 35.176583 221.1723 34.793421 221.38414 34.495845 C 221.59597 34.193224 221.87806 34.041609 222.23111 34.041609 z M 231.07553 34.041609 C 231.43868 34.041609 231.72837 34.180202 231.94525 34.457604 C 232.16213 34.729962 232.27081 35.065811 232.27081 35.464261 L 229.83478 35.464261 C 229.84487 35.080942 229.96065 34.747801 230.18257 34.465355 C 230.40953 34.18291 230.70735 34.041609 231.07553 34.041609 z M 242.65829 34.041609 C 242.98613 34.041609 243.25352 34.185618 243.46031 34.473107 C 243.67215 34.755553 243.7776 35.143614 243.7776 35.637894 C 243.7776 36.147305 243.67434 36.543489 243.46754 36.825935 C 243.2658 37.108381 242.9908 37.249682 242.64279 37.249682 C 242.29981 37.249682 242.02263 37.103482 241.8108 36.810949 C 241.59896 36.513372 241.49299 36.124794 241.49299 35.645645 C 241.49299 35.176583 241.59896 34.793421 241.8108 34.495845 C 242.02263 34.193224 242.30523 34.041609 242.65829 34.041609 z M 254.43018 34.041609 C 254.79837 34.041609 255.08806 34.198123 255.29989 34.510831 C 255.51677 34.823538 255.62546 35.224622 255.62546 35.713858 C 255.62546 36.233357 255.51188 36.644237 255.28491 36.946858 C 255.05794 37.249478 254.77315 37.400577 254.43018 37.400577 C 254.06703 37.400577 253.78173 37.246771 253.57494 36.939106 C 253.36815 36.626399 253.26488 36.218226 253.26488 35.713858 C 253.26488 35.229666 253.37357 34.83129 253.59044 34.518582 C 253.80732 34.20083 254.08721 34.041609 254.43018 34.041609 z M 270.90773 34.041609 C 271.23557 34.041609 271.51327 34.193224 271.74024 34.495845 C 271.97224 34.798465 272.08802 35.204447 272.08802 35.713858 C 272.08802 36.228313 271.97224 36.639193 271.74024 36.946858 C 271.51327 37.249478 271.23557 37.400577 270.90773 37.400577 C 270.55467 37.400577 270.26717 37.246771 270.04525 36.939106 C 269.82333 36.631443 269.71245 36.22327 269.71245 35.713858 C 269.71245 35.209491 269.82062 34.8057 270.0375 34.503079 C 270.25942 34.195416 270.54963 34.041609 270.90773 34.041609 z M 275.47747 34.041609 C 275.84062 34.041609 276.13031 34.180202 276.34719 34.457604 C 276.56407 34.729962 276.67275 35.065811 276.67275 35.464261 L 274.23672 35.464261 C 274.24681 35.080942 274.36259 34.747801 274.58451 34.465355 C 274.81147 34.18291 275.10929 34.041609 275.47747 34.041609 z M 285.53939 34.041609 C 285.86723 34.041609 286.13462 34.185618 286.34141 34.473107 C 286.55324 34.755553 286.65922 35.143614 286.65922 35.637894 C 286.65922 36.147305 286.55596 36.543489 286.34916 36.825935 C 286.14742 37.108381 285.87242 37.249682 285.52441 37.249682 C 285.18143 37.249682 284.90373 37.103482 284.6919 36.810949 C 284.48007 36.513372 284.37461 36.124794 284.37461 35.645645 C 284.37461 35.176583 284.48007 34.793421 284.6919 34.495845 C 284.90373 34.193224 285.18633 34.041609 285.53939 34.041609 z M 294.38381 34.041609 C 294.74696 34.041609 295.03665 34.180202 295.25353 34.457604 C 295.4704 34.729962 295.57909 35.065811 295.57909 35.464261 L 293.14306 35.464261 C 293.15315 35.080942 293.26893 34.747801 293.49085 34.465355 C 293.71781 34.18291 294.01563 34.041609 294.38381 34.041609 z M 311.93571 34.041609 C 312.26355 34.041609 312.54074 34.193224 312.76771 34.495845 C 312.99971 34.798465 313.116 35.204447 313.116 35.713858 C 313.116 36.228313 312.99971 36.639193 312.76771 36.946858 C 312.54074 37.249478 312.26355 37.400577 311.93571 37.400577 C 311.58266 37.400577 311.29516 37.246771 311.07323 36.939106 C 310.85132 36.631443 310.74044 36.22327 310.74044 35.713858 C 310.74044 35.209491 310.8486 34.8057 311.06548 34.503079 C 311.2874 34.195416 311.57761 34.041609 311.93571 34.041609 z M 323.91173 34.041609 C 324.27487 34.041609 324.56508 34.180202 324.78196 34.457604 C 324.99884 34.729962 325.107 35.065811 325.107 35.464261 L 322.67098 35.464261 C 322.68106 35.080942 322.79736 34.747801 323.01928 34.465355 C 323.24624 34.18291 323.54354 34.041609 323.91173 34.041609 z M 328.40551 34.041609 C 328.75856 34.041609 329.04606 34.193224 329.26799 34.495845 C 329.48991 34.798465 329.6013 35.204447 329.6013 35.713858 C 329.6013 36.2384 329.48772 36.651989 329.26076 36.954609 C 329.03884 37.252186 328.75352 37.400577 328.40551 37.400577 C 328.07767 37.400577 327.79777 37.249478 327.56577 36.946858 C 327.3388 36.639193 327.22574 36.228313 327.22574 35.713858 C 327.22574 35.204447 327.3388 34.798465 327.56577 34.495845 C 327.79777 34.193224 328.07767 34.041609 328.40551 34.041609 z M 334.53382 34.041609 C 334.86166 34.041609 335.13884 34.193224 335.36581 34.495845 C 335.59782 34.798465 335.71411 35.204447 335.71411 35.713858 C 335.71411 36.228313 335.59782 36.639193 335.36581 36.946858 C 335.13884 37.249478 334.86166 37.400577 334.53382 37.400577 C 334.18076 37.400577 333.89326 37.246771 333.67134 36.939106 C 333.44942 36.631443 333.33854 36.22327 333.33854 35.713858 C 333.33854 35.209491 333.44671 34.8057 333.66359 34.503079 C 333.88551 34.195416 334.17572 34.041609 334.53382 34.041609 z M 339.10357 34.041609 C 339.46671 34.041609 339.7564 34.180202 339.97328 34.457604 C 340.19016 34.729962 340.29884 35.065811 340.29884 35.464261 L 337.86281 35.464261 C 337.8729 35.080942 337.98868 34.747801 338.2106 34.465355 C 338.43756 34.18291 338.73538 34.041609 339.10357 34.041609 z M 347.12271 34.041609 C 347.48586 34.041609 347.77607 34.180202 347.99295 34.457604 C 348.20982 34.729962 348.31799 35.065811 348.31799 35.464261 L 345.88196 35.464261 C 345.89205 35.080942 346.00834 34.747801 346.23026 34.465355 C 346.45723 34.18291 346.75453 34.041609 347.12271 34.041609 z M 353.35696 34.041609 C 353.69993 34.041609 353.99233 34.190517 354.23442 34.488093 C 354.47652 34.78567 354.59771 35.196551 354.59771 35.721093 C 354.59771 36.235548 354.47652 36.644237 354.23442 36.946858 C 353.99737 37.249478 353.70497 37.400577 353.35696 37.400577 C 353.00391 37.400577 352.70879 37.249478 352.47174 36.946858 C 352.23469 36.644237 352.11621 36.235548 352.11621 35.721093 C 352.11621 35.196551 352.23469 34.78567 352.47174 34.488093 C 352.71383 34.190517 353.00895 34.041609 353.35696 34.041609 z M 357.9112 34.041609 C 358.27939 34.041609 358.56959 34.198123 358.78143 34.510831 C 358.99831 34.823538 359.10648 35.224622 359.10648 35.713858 C 359.10648 36.233357 358.99289 36.644237 358.76593 36.946858 C 358.53896 37.249478 358.25418 37.400577 357.9112 37.400577 C 357.54806 37.400577 357.26326 37.246771 357.05647 36.939106 C 356.84968 36.626399 356.7459 36.218226 356.7459 35.713858 C 356.7459 35.229666 356.85458 34.83129 357.07146 34.518582 C 357.28834 34.20083 357.56824 34.041609 357.9112 34.041609 z M 362.20861 34.041609 C 362.57175 34.041609 362.86145 34.180202 363.07833 34.457604 C 363.29521 34.729962 363.40389 35.065811 363.40389 35.464261 L 360.96786 35.464261 C 360.97795 35.080942 361.09373 34.747801 361.31565 34.465355 C 361.54261 34.18291 361.84042 34.041609 362.20861 34.041609 z M 250.89706 35.60017 L 250.89706 36.167577 C 250.89706 36.525678 250.76827 36.820785 250.51104 37.052794 C 250.25885 37.284804 249.95395 37.400577 249.59585 37.400577 C 249.3134 37.400577 249.09113 37.335342 248.92974 37.204206 C 248.76834 37.068027 248.6879 36.903906 248.6879 36.712247 C 248.6879 36.465106 248.78136 36.268368 248.96798 36.122102 C 249.15459 35.975835 249.44429 35.867668 249.8377 35.797057 C 250.32189 35.721402 250.67514 35.65565 250.89706 35.60017 z M 304.33204 35.60017 L 304.33204 36.167577 C 304.33204 36.525678 304.20376 36.820785 303.94654 37.052794 C 303.69435 37.284804 303.38893 37.400577 303.03083 37.400577 C 302.74839 37.400577 302.52663 37.335342 302.36524 37.204206 C 302.20384 37.068027 302.12288 36.903906 302.12288 36.712247 C 302.12288 36.465106 302.21635 36.268368 302.40296 36.122102 C 302.58958 35.975835 302.87979 35.867668 303.27319 35.797057 C 303.75739 35.721402 304.11012 35.65565 304.33204 35.60017 z M 237.01419 36.855907 L 236.39407 39.072826 L 236.87053 39.072826 L 237.85393 36.855907 L 237.01419 36.855907 z " />
  </g>
</svg>
