<svg xmlns="http://www.w3.org/2000/svg" width="1884.999" height="578.447" viewBox="0 0 498.739 153.048"><defs><linearGradient id="a"><stop offset="0" style="stop-color:#e3e3f5;stop-opacity:1"/><stop offset="1" style="stop-color:#bbc6ff;stop-opacity:1"/></linearGradient><linearGradient id="b"><stop offset="0" style="stop-color:#5f6cd3;stop-opacity:1"/><stop offset="1" style="stop-color:#483fff;stop-opacity:1"/></linearGradient></defs><g style="stroke-width:1.05279"><path d="M-168.909 914.554a13.551 13.551 0 0 0-13.58 13.581v125.866a13.551 13.551 0 0 0 13.58 13.581h471.514a13.55 13.55 0 0 0 13.581-13.58V928.135a13.55 13.55 0 0 0-13.58-13.581H-168.91z" style="fill:#f3f5f7;fill-opacity:1;stroke:none;stroke-width:1.39275;stroke-linecap:round;stroke-linejoin:round;stroke-dasharray:none;stroke-opacity:1" transform="matrix(1.00013 0 0 1.00013 182.513 -914.67)"/><path d="M48.785 1349.653c-.708 0-1.282.574-1.282 1.282v55.46c0 .707.573 1.28 1.28 1.28h2.565a1.28 1.28 0 0 0 1.28-1.28v-48.87l4.093 4.77a.95.95 0 0 0 1.523-.107l1.502-2.35a1.725 1.725 0 0 0-.146-2.052l-6.14-7.16a2.785 2.785 0 0 0-2.114-.973zm22.372 0c-.709 0-1.28.569-1.28 1.278v16.741a5.123 5.123 0 0 0-5.123 5.123h5.123v1.7c0 .71.571 1.281 1.28 1.281h2.565c.709 0 1.28-.571 1.28-1.28v-23.565c0-.71-.571-1.278-1.28-1.278zm7.687 0c-.71 0-1.281.571-1.281 1.28v23.564c0 .71.571 1.28 1.28 1.28h11.31c.71 0 1.28-.57 1.28-1.28v-2.562c0-.71-.57-1.28-1.28-1.28h-7.466v-15.878h7.466c.71 0 1.28-.571 1.28-1.28v-2.563c0-.71-.57-1.281-1.28-1.281zm-13.112 7.585c-.798 0-1.54.406-1.97 1.078l-8.682 13.586a1.28 1.28 0 0 0 .39 1.768l2.158 1.379a1.28 1.28 0 0 0 1.768-.39l7.23-11.312c.45-.705.689-1.524.689-2.36v-3.75zm51.304 2.49c-.615 0-1.105.183-1.469.546-.364.337-.546.84-.546 1.512v26.072c0 .643.168 1.147.504 1.511.364.364.868.546 1.511.546.644 0 1.12-.182 1.428-.546.336-.364.504-.867.504-1.511v-19.855l8.816 16.202c.224.392.476.7.756.924.28.196.644.293 1.092.293.448 0 .797-.099 1.049-.293.252-.196.504-.504.756-.924l8.733-16.218v19.87c0 .644.168 1.148.504 1.512.363.364.867.546 1.51.546.645 0 1.12-.182 1.429-.546.335-.364.503-.867.503-1.511v-26.072c0-.672-.168-1.176-.503-1.512-.336-.363-.812-.546-1.428-.546-.588 0-1.036.11-1.344.336-.308.196-.602.56-.882 1.092l-10.308 19.313-10.347-19.313c-.28-.532-.588-.896-.924-1.092-.308-.224-.756-.336-1.344-.336zm140.203 0c-2.24 0-4.255.35-6.046 1.05-1.763.7-3.26 1.721-4.492 3.065-1.204 1.315-2.127 2.91-2.77 4.786-.645 1.847-.967 3.932-.967 6.255 0 3.107.56 5.808 1.68 8.103 1.147 2.267 2.785 4.016 4.912 5.248 2.127 1.231 4.688 1.847 7.683 1.847a16.82 16.82 0 0 0 4.912-.714c1.567-.476 2.925-1.161 4.072-2.057.42-.307.686-.657.798-1.05.14-.419.154-.811.042-1.175a1.76 1.76 0 0 0-.546-.965c-.28-.252-.63-.393-1.05-.42-.391-.029-.84.11-1.343.42a11.11 11.11 0 0 1-3.233 1.553c-1.12.336-2.295.503-3.526.503-2.128 0-3.92-.433-5.374-1.3-1.456-.896-2.562-2.184-3.317-3.863-.728-1.68-1.092-3.722-1.092-6.13 0-2.406.364-4.436 1.092-6.087.755-1.68 1.861-2.953 3.317-3.82 1.455-.897 3.246-1.345 5.374-1.345 1.231 0 2.406.169 3.526.504a8.967 8.967 0 0 1 3.065 1.512c.504.335.966.49 1.386.462.448-.028.811-.169 1.091-.42.28-.28.462-.616.546-1.008.111-.392.084-.797-.085-1.217-.14-.448-3.373-2.617-4.912-3.065a16.615 16.615 0 0 0-4.743-.672zm-62.323.041c-.84 0-1.497.21-1.973.63-.448.392-.672.98-.672 1.763 0 .756.224 1.344.672 1.764.476.42 1.133.629 1.973.629.868 0 1.526-.21 1.973-.63.448-.42.672-1.007.672-1.763 0-.783-.224-1.371-.672-1.763-.447-.42-1.105-.63-1.973-.63zm32.915 0c-.84 0-1.497.21-1.973.63-.448.392-.672.98-.672 1.763 0 .756.224 1.344.672 1.764.476.42 1.134.629 1.973.629.84 0 1.484-.21 1.931-.63.476-.42.714-1.007.714-1.763 0-.783-.238-1.371-.714-1.763-.447-.42-1.091-.63-1.93-.63zm187.194.042c-.672 0-1.19.182-1.553.546-.364.364-.546.896-.546 1.595v25.862c0 .7.182 1.246.546 1.637.364.364.881.546 1.553.546 1.428 0 2.141-.728 2.141-2.183v-7.473h.085l8.396 8.145c.504.504.938.881 1.302 1.133.392.252.91.378 1.553.378.504 0 .924-.14 1.26-.42.336-.307.517-.685.545-1.133.029-.448-.182-.896-.63-1.344l-8.074-8.037 7.32-7.245c.419-.448.629-.882.629-1.301 0-.448-.154-.826-.462-1.134-.308-.308-.756-.462-1.344-.462-.587 0-1.063.126-1.427.378-.364.252-.77.602-1.217 1.05l-7.851 7.809h-.085v-16.206c0-.7-.196-1.231-.587-1.595-.364-.364-.882-.546-1.554-.546zm-255.921 8.941a16.59 16.59 0 0 0-3.4.378 16.16 16.16 0 0 0-3.653 1.26c-.448.167-.77.42-.966.755a2.322 2.322 0 0 0-.252 1.05c.029.336.141.658.336.966.196.28.462.462.798.546.335.085.742.018 1.217-.21 1.036-.504 2.03-.868 2.981-1.092a11.29 11.29 0 0 1 2.813-.378c1.54 0 2.645.364 3.317 1.092.671.7 1.007 1.833 1.007 3.4v1.092h-1.427c-3.023 0-5.43.196-7.221.588-1.764.364-3.037.993-3.82 1.889-.756.868-1.135 2.058-1.135 3.569 0 1.204.323 2.28.967 3.233.644.951 1.525 1.707 2.645 2.267 1.147.56 2.434.84 3.862.84 1.147 0 2.17-.197 3.065-.588a5.797 5.797 0 0 0 2.225-1.68c.361-.444.655-.937.881-1.478v1.478c0 .7.182 1.246.546 1.638.364.364.854.545 1.47.545.644 0 1.133-.181 1.469-.545.364-.392.546-.938.546-1.638v-10.748c0-1.903-.308-3.456-.924-4.66-.587-1.203-1.497-2.1-2.729-2.687-1.203-.588-2.743-.882-4.618-.882zm23.133 0c-1.567 0-2.995.252-4.282.756-1.26.476-2.337 1.162-3.233 2.058-.868.895-1.54 2-2.015 3.316-.476 1.287-.714 2.743-.714 4.366 0 2.183.42 4.087 1.26 5.71.84 1.596 2.015 2.84 3.526 3.737 1.54.867 3.36 1.301 5.458 1.301.98 0 1.987-.14 3.023-.42a8.852 8.852 0 0 0 2.939-1.385c.364-.224.602-.504.714-.84.112-.335.126-.658.04-.966a1.502 1.502 0 0 0-.418-.84 1.226 1.226 0 0 0-.799-.46c-.335-.056-.699.027-1.09.251-.673.476-1.358.812-2.058 1.007a7.47 7.47 0 0 1-2.015.295c-1.987 0-3.527-.645-4.619-1.932-1.063-1.315-1.595-3.12-1.595-5.416 0-1.147.126-2.169.378-3.065.28-.895.685-1.637 1.217-2.225a5.017 5.017 0 0 1 1.931-1.385c.784-.336 1.68-.504 2.688-.504.643 0 1.315.111 2.015.336.7.196 1.385.532 2.057 1.007.392.224.756.323 1.091.295.336-.055.616-.197.84-.42.252-.253.42-.546.504-.882.084-.336.07-.658-.042-.966-.112-.335-.35-.63-.713-.881a9.274 9.274 0 0 0-3.023-1.386c-1.064-.308-2.085-.462-3.065-.462zm29.599 0c-1.932 0-3.653.448-5.165 1.344-1.511.895-2.7 2.14-3.568 3.736-.868 1.595-1.302 3.457-1.302 5.584 0 2.183.434 4.073 1.302 5.668a9.383 9.383 0 0 0 3.736 3.653c1.624.84 3.555 1.26 5.794 1.26 1.175 0 2.393-.155 3.653-.463 1.26-.335 2.365-.826 3.317-1.47.42-.28.713-.587.881-.923.168-.364.224-.714.168-1.05a1.397 1.397 0 0 0-.461-.839c-.224-.224-.532-.35-.925-.377-.363-.028-.783.099-1.26.377-.839.532-1.734.91-2.686 1.133-.923.196-1.805.295-2.645.295-2.21 0-3.905-.616-5.08-1.848-.976-1.071-1.536-2.57-1.681-4.492h13.352c.56 0 .98-.11 1.26-.336.307-.252.462-.616.462-1.092 0-1.567-.21-2.98-.63-4.24-.42-1.26-1.036-2.323-1.847-3.19a7.38 7.38 0 0 0-2.855-2.016c-1.12-.475-2.393-.714-3.82-.714zm111.992.04h-.093c-1.875.14-3.415.643-4.618 1.51-.883.637-1.555 1.493-2.016 2.567v-1.81c0-.7-.181-1.233-.545-1.597-.364-.363-.882-.545-1.554-.545-.643 0-1.147.182-1.511.545-.364.364-.546.897-.546 1.597v16.75c0 .7.182 1.246.546 1.638.364.364.895.546 1.595.546.728 0 1.26-.182 1.596-.546.364-.392.545-.938.545-1.638v-9.488c0-1.707.476-3.037 1.428-3.988.952-.98 2.337-1.567 4.156-1.763l.798-.041c.644-.085 1.12-.294 1.428-.63.308-.364.447-.84.42-1.427-.057-.588-.238-1.022-.546-1.302-.263-.262-.624-.389-1.083-.38zm-95.997.046c-.672 0-1.203.182-1.595.546-.364.364-.546.895-.546 1.595v19.102c0 1.428-.336 2.478-1.008 3.15-.643.7-1.665 1.091-3.064 1.175-.392.028-.7.154-.924.378-.252.252-.392.531-.42.84-.056.335-.014.657.126.965.112.308.336.56.672.756.308.196.714.28 1.218.252 1.707-.111 3.12-.448 4.24-1.008a5.416 5.416 0 0 0 2.561-2.56c.588-1.12.882-2.548.882-4.283v-18.767c0-.7-.182-1.231-.546-1.595-.364-.364-.896-.546-1.595-.546zm71.386 0c-1.931 0-3.653.448-5.165 1.344-1.511.895-2.7 2.142-3.568 3.737-.868 1.595-1.302 3.456-1.302 5.583 0 2.183.434 4.073 1.302 5.668a9.382 9.382 0 0 0 3.736 3.652c1.624.84 3.555 1.26 5.794 1.26 1.176 0 2.393-.154 3.653-.462 1.26-.335 2.365-.825 3.317-1.469.42-.28.713-.588.881-.923.169-.364.224-.715.168-1.05a1.396 1.396 0 0 0-.462-.84c-.224-.224-.532-.35-.923-.378-.364-.028-.784.097-1.26.378-.84.532-1.735.91-2.687 1.134-.923.196-1.805.294-2.644.294-2.211 0-3.905-.616-5.08-1.847-.977-1.072-1.537-2.57-1.682-4.493h13.353c.56 0 .98-.11 1.26-.336.307-.252.46-.616.46-1.092 0-1.567-.209-2.98-.629-4.24-.42-1.259-1.036-2.323-1.847-3.19a7.378 7.378 0 0 0-2.855-2.016c-1.12-.476-2.393-.713-3.82-.714zm74.706 0c-1.539 0-2.938.253-4.198.756a8.563 8.563 0 0 0-3.191 2.141c-.868.924-1.539 2.03-2.015 3.317-.475 1.288-.713 2.757-.713 4.408 0 2.156.42 4.03 1.259 5.626.84 1.595 2.001 2.827 3.484 3.695 1.512.867 3.303 1.301 5.374 1.301 1.54 0 2.925-.238 4.157-.714a8.86 8.86 0 0 0 3.148-2.14c.896-.924 1.582-2.044 2.058-3.36.476-1.315.713-2.784.713-4.408 0-2.183-.42-4.058-1.26-5.625-.839-1.595-2.014-2.827-3.525-3.695-1.484-.868-3.248-1.302-5.29-1.302zm25.904 0c-1.707 0-3.218.406-4.534 1.218a6.443 6.443 0 0 0-2.393 2.513v-1.505c0-.7-.182-1.232-.546-1.596-.364-.364-.882-.545-1.554-.545-.643 0-1.147.181-1.51.545-.364.364-.546.896-.546 1.596v16.751c0 .7.182 1.246.546 1.637.363.364.881.546 1.553.546 1.427 0 2.141-.727 2.141-2.183v-9.698c0-1.764.504-3.177 1.512-4.24 1.035-1.092 2.407-1.638 4.114-1.638 1.455 0 2.519.406 3.19 1.218.7.811 1.05 2.1 1.05 3.862v10.496c0 .7.182 1.246.546 1.637.364.365.895.546 1.595.546.672 0 1.19-.181 1.553-.546.364-.391.547-.937.547-1.637v-10.748c0-1.847-.266-3.372-.798-4.576-.532-1.231-1.33-2.14-2.393-2.729-1.064-.615-2.421-.924-4.073-.924zm43.075 0c-1.063 0-2.197.126-3.4.378-1.204.252-2.421.672-3.653 1.26-.447.169-.77.42-.965.755a2.318 2.318 0 0 0-.252 1.05c.028.336.14.658.335.966.196.28.463.462.798.546.336.085.742.018 1.218-.21 1.035-.504 2.029-.868 2.98-1.092.98-.252 1.918-.378 2.814-.378 1.54 0 2.644.364 3.316 1.092.671.7 1.008 1.833 1.008 3.4v1.092h-1.428c-3.023 0-5.43.196-7.221.588-1.763.363-3.037.993-3.82 1.889-.756.868-1.134 2.057-1.134 3.569 0 1.203.322 2.28.966 3.233.643.951 1.525 1.707 2.645 2.266 1.147.56 2.435.84 3.862.84 1.148 0 2.17-.196 3.065-.588a5.797 5.797 0 0 0 2.225-1.679c.362-.444.655-.936.881-1.476v1.476c0 .7.183 1.246.547 1.637.364.365.853.546 1.469.546.644 0 1.133-.181 1.469-.546.364-.391.546-.937.546-1.637v-10.748c0-1.903-.308-3.456-.924-4.66-.587-1.203-1.497-2.099-2.729-2.687-1.203-.588-2.742-.882-4.618-.882zm-247.986.082c-.672 0-1.19.197-1.553.588-.364.392-.546.951-.546 1.68v16.373c0 .728.182 1.302.546 1.722.363.392.881.588 1.553.588.7 0 1.232-.196 1.595-.588.364-.42.546-.994.546-1.722v-16.373c0-.728-.196-1.288-.587-1.68-.364-.392-.882-.588-1.554-.588zm135.494 0c-.56 0-1.021.126-1.385.378-.336.252-.546.602-.63 1.05-.084.42-.014.91.21 1.47l6.172 16.33c.252.644.588 1.12 1.007 1.428.448.28.966.42 1.554.42.588 0 1.091-.154 1.511-.462.448-.308.784-.784 1.008-1.428l4.788-13.02 4.826 13.063c.252.616.588 1.077 1.008 1.385.448.308.965.462 1.553.462.56 0 1.063-.155 1.511-.462.448-.308.784-.77 1.008-1.385l6.171-16.332c.196-.504.266-.966.21-1.386-.028-.448-.196-.811-.503-1.091-.28-.28-.7-.42-1.26-.42-.448 0-.854.111-1.218.336-.335.224-.615.658-.84 1.302l-5.12 14.284-5.124-14.368c-.167-.532-.433-.924-.797-1.176-.336-.252-.77-.378-1.301-.378-.532 0-.966.126-1.302.378-.336.252-.602.644-.797 1.176l-5.2 14.259-5.003-14.091c-.223-.672-.503-1.12-.84-1.344-.307-.252-.713-.378-1.217-.378zm-58.693.294c-.532 0-.937.141-1.217.42-.28.28-.42.686-.42 1.217 0 .504.14.91.42 1.218.28.28.685.42 1.217.42h9.855l-10.61 13.77c-.336.364-.56.756-.672 1.176-.085.392-.085.77 0 1.133.111.336.308.616.588.84.28.196.643.294 1.091.294h13.35c.532 0 .94-.14 1.22-.42.307-.308.461-.714.461-1.218 0-1.063-.56-1.595-1.68-1.595h-10.333l10.711-13.854c.336-.364.546-.742.63-1.134a2.04 2.04 0 0 0-.041-1.091c-.085-.337-.294-.616-.63-.84-.308-.224-.728-.336-1.26-.336zm-59.713 2.559c1.175 0 2.155.266 2.939.797.811.504 1.413 1.246 1.805 2.226.36.815.564 1.795.616 2.939h-11.422a8.635 8.635 0 0 1 .646-2.52c.476-1.091 1.16-1.93 2.057-2.518.923-.616 2.043-.924 3.359-.924zm87.38.086c1.176 0 2.156.266 2.94.798.811.504 1.413 1.246 1.805 2.225.36.815.564 1.795.616 2.939h-11.421a8.63 8.63 0 0 1 .645-2.52c.476-1.09 1.162-1.93 2.057-2.518.924-.616 2.043-.924 3.359-.924zm74.54.294c1.735 0 3.134.616 4.198 1.847 1.063 1.232 1.595 3.051 1.595 5.458 0 1.596-.252 2.94-.756 4.03-.475 1.064-1.147 1.876-2.014 2.436-.868.56-1.876.84-3.024.84-1.763 0-3.176-.616-4.24-1.848-1.035-1.26-1.553-3.079-1.553-5.458 0-1.595.238-2.939.714-4.03.475-1.091 1.147-1.903 2.015-2.435.867-.56 1.889-.84 3.064-.84zm-212.007 8.059h1.385v1.133c0 1.092-.238 2.058-.713 2.897a5.335 5.335 0 0 1-1.848 2.015c-.783.476-1.693.714-2.728.714-1.288 0-2.295-.322-3.023-.965-.728-.672-1.092-1.54-1.092-2.604 0-.811.238-1.44.714-1.889.504-.475 1.344-.812 2.52-1.008 1.175-.195 2.77-.293 4.785-.293zm283.798.086h1.386v1.133c0 1.092-.238 2.058-.714 2.897a5.338 5.338 0 0 1-1.847 2.016c-.784.475-1.694.713-2.73.713-1.287 0-2.294-.322-3.022-.965-.728-.672-1.091-1.54-1.091-2.603 0-.812.237-1.442.713-1.89.504-.475 1.344-.81 2.52-1.007 1.175-.196 2.77-.294 4.785-.294zm-374.696.577-14.546.021c-.71 0-1.28.57-1.28 1.28v2.562c0 .71.57 1.282 1.28 1.281l14.546-.02c.709 0 1.28-.572 1.28-1.282v-2.562c0-.71-.571-1.282-1.28-1.28zm5.123.021c-.71 0-1.28.57-1.28 1.28v2.562c0 .71.57 1.281 1.28 1.281h10.16v13.338a3.454 3.454 0 0 1-3.13 3.175c-1.407.034-5.594.018-7.03.018a1.28 1.28 0 0 0-1.281 1.28v2.562c0 .707.573 1.28 1.28 1.28h7.032c4.465-.19 8.083-3.828 8.258-8.297v-17.198a1.28 1.28 0 0 0-1.28-1.282zm-7.686 10.804-9.42.02c-.71 0-1.281.572-1.281 1.281v2.563c0 .71.57 1.282 1.28 1.28l9.421-.021c.71 0 1.28-.571 1.28-1.28v-2.563c0-.71-.57-1.282-1.28-1.28zm2.563 10.826-14.546.021c-.71 0-1.28.572-1.28 1.28v2.564c0 .71.57 1.281 1.28 1.28l14.546-.021c.709 0 1.28-.572 1.28-1.281v-2.562c0-.71-.571-1.282-1.28-1.281z" style="font-size:38.9389px;line-height:.9;font-family:Nunito;-inkscape-font-specification:&quot;Nunito, @wght=601&quot;;font-variation-settings:&quot;wght&quot;601;opacity:1;fill:#191c1f;fill-opacity:1;stroke-width:.951842;stroke-linejoin:round;paint-order:markers fill stroke" transform="matrix(1.00013 0 0 1.00013 0 -1302.316)"/></g></svg>