<?xml version="1.0" encoding="UTF-8" standalone="no"?>
<!-- Created with Inkscape (http://www.inkscape.org/) -->

<svg
   width="498.67609mm"
   height="124.40787mm"
   viewBox="0 0 498.67609 124.40787"
   version="1.1"
   id="svg2360"
   inkscape:version="1.2.2 (b0a8486541, 2022-12-01)"
   sodipodi:docname="banner-gh__.svg"
   xmlns:inkscape="http://www.inkscape.org/namespaces/inkscape"
   xmlns:sodipodi="http://sodipodi.sourceforge.net/DTD/sodipodi-0.dtd"
   xmlns="http://www.w3.org/2000/svg"
   xmlns:svg="http://www.w3.org/2000/svg">
  <sodipodi:namedview
     id="namedview2362"
     pagecolor="#ffffff"
     bordercolor="#000000"
     borderopacity="0.25"
     inkscape:showpageshadow="2"
     inkscape:pageopacity="0.0"
     inkscape:pagecheckerboard="0"
     inkscape:deskcolor="#d1d1d1"
     inkscape:document-units="mm"
     showgrid="false"
     inkscape:zoom="0.2102413"
     inkscape:cx="504.18257"
     inkscape:cy="451.86174"
     inkscape:window-width="1920"
     inkscape:window-height="1055"
     inkscape:window-x="0"
     inkscape:window-y="0"
     inkscape:window-maximized="1"
     inkscape:current-layer="layer1" />
  <defs
     id="defs2357" />
  <g
     inkscape:label="Layer 1"
     inkscape:groupmode="layer"
     id="layer1"
     transform="translate(-26.26788,55.911557)">
    <path
       id="rect4331"
       d="m 39.84898,-55.911557 c -7.5242,0 -13.5811,6.0571 -13.5811,13.58106 V 54.91525 c 0,7.52422 6.0569,13.58106 13.5811,13.58106 h 471.51394 c 7.52422,0 13.58106,-6.05684 13.58106,-13.58106 v -97.245217 c 0,-7.52422 -6.05684,-13.58106 -13.58106,-13.58106 H 39.84898 Z"
       style="fill:#25265c;fill-opacity:1;stroke:none;stroke-width:1.32292;stroke-linecap:round;stroke-linejoin:round;stroke-dasharray:none;stroke-opacity:1" />
    <text
       xml:space="preserve"
       style="font-style:normal;font-variant:normal;font-weight:normal;font-stretch:normal;font-size:7.74709px;font-family:'Gothic A1';-inkscape-font-specification:'Gothic A1, Normal';font-variant-ligatures:normal;font-variant-caps:normal;font-variant-numeric:normal;font-variant-east-asian:normal;fill:#dcdceb;fill-opacity:1;stroke:#00ff00;stroke-width:3.19618;stroke-linecap:round;stroke-linejoin:round;stroke-dasharray:none;paint-order:markers fill stroke"
       x="183.26883"
       y="37.756382"
       id="text1861"><tspan
         sodipodi:role="line"
         id="tspan1859"
         style="font-style:normal;font-variant:normal;font-weight:normal;font-stretch:normal;font-size:7.74709px;font-family:'Gothic A1';-inkscape-font-specification:'Gothic A1, Normal';font-variant-ligatures:normal;font-variant-caps:normal;font-variant-numeric:normal;font-variant-east-asian:normal;fill:#dcdceb;fill-opacity:1;stroke:none;stroke-width:3.19618"
         x="183.26883"
         y="37.756382">UX/UI designer, graphic designer and web developer</tspan></text>
    <path
       id="path1863"
       style="fill:#dcdceb;fill-opacity:1;stroke:none;stroke-width:3.19617;stroke-linecap:round;stroke-linejoin:round;stroke-dasharray:none;paint-order:markers fill stroke"
       d="m 384.28168,-26.9498 c -0.42751,0 -1.01031,0.2579 -1.2955,0.5729 -0.49963,0.5521 -0.47066,1.0186 0.79979,12.9264 1.23043,11.5319 1.35986,12.3884 1.95034,12.8665 0.83094,0.6729 1.58919,0.6479 2.31373,-0.077 0.53101,-0.531 0.56912,-0.808 0.38782,-2.8088 l -0.20099,-2.2195 0.84053,0.5323 c 0.46209,0.2927 1.76536,1.2311 2.89573,2.0857 2.87813,2.1759 4.61683,2.0839 4.39439,-0.2331 -0.0809,-0.8411 -0.45305,-1.2282 -3.04654,-3.1667 l -2.95431,-2.2082 2.15956,-2.0191 c 2.34704,-2.1937 2.66745,-3.0275 1.58166,-4.1133 -0.97276,-0.9728 -1.59814,-0.7127 -4.27303,1.777 -0.99918,0.93 -1.91721,1.6911 -2.03943,1.6911 -0.12215,0 -0.56295,-3.2633 -0.97989,-7.2517 -0.81821,-7.8276 -0.9783,-8.3547 -2.53386,-8.3547 z m -120.37145,0.1535 c -1.94529,-0.01 -2.56739,0.1166 -3.92197,0.7818 -1.82427,0.896 -4.01682,2.9225 -5.23996,4.8437 -1.12982,1.7747 -2.45157,6.0404 -2.86131,9.2353 -1.10556,8.6205 3.76267,14.6526 11.8906,14.7344 1.03944,0.011 2.6568,-0.1808 3.59515,-0.4251 2.0929,-0.5452 3.39448,-1.3242 4.3887,-2.6276 0.64196,-0.8416 0.79868,-1.4442 1.02336,-3.9259 0.14608,-1.6123 0.18946,-3.2375 0.0951,-3.612 -0.20659,-0.823 -1.30198,-1.3769 -2.2517,-1.1386 -0.98366,0.2469 -1.37163,1.3306 -1.37163,3.8334 0,1.1951 -0.1267,2.4087 -0.28111,2.697 -0.7159,1.3376 -4.73833,2.0498 -7.55089,1.3367 -2.38426,-0.6046 -3.90868,-1.7191 -5.01192,-3.664 -0.85879,-1.5141 -0.88336,-1.6617 -0.86936,-5.1711 0.0128,-3.2868 0.0994,-3.8683 0.95741,-6.4474 0.85903,-2.5798 1.1054,-2.9974 2.73204,-4.645 2.5537,-2.5868 4.50644,-3.0316 7.35159,-1.6748 0.8595,0.4099 0.92706,0.5357 0.76153,1.418 -0.33698,1.7962 1.20385,2.6308 3.07239,1.6646 1.03912,-0.5374 1.43878,-1.246 1.43878,-2.5486 0,-1.3647 -1.18952,-2.5776 -3.66399,-3.7345 -1.69124,-0.7908 -2.29917,-0.9228 -4.28313,-0.9303 z m -119.48626,1.2323 c -2.62439,-0.033 -4.051,0.5758 -5.60808,2.395 -1.96139,2.2914 -2.03359,2.7489 -2.14725,13.6144 -0.0994,9.5153 -0.0885,9.7502 0.49395,10.3321 0.69661,0.6967 1.41837,0.7576 2.20144,0.1857 0.53013,-0.3871 0.56974,-0.9337 0.7123,-9.8985 0.13304,-8.3704 0.21356,-9.6338 0.68366,-10.7221 0.76169,-1.7635 1.66626,-2.3793 3.49628,-2.3793 4.10736,0 6.10308,2.0514 6.51122,6.6929 0.21556,2.4526 0.74377,3.4224 1.86381,3.4224 1.40012,0 1.73382,-0.6293 1.89887,-3.581 0.12055,-2.1581 0.28191,-2.9324 0.74001,-3.546 1.1503,-1.5407 2.02221,-1.9595 4.31994,-2.0755 2.1205,-0.1071 2.16381,-0.095 3.1361,0.8772 1.7026,1.7025 1.90904,2.9993 1.90904,11.9769 0,5.3312 0.10814,8.1179 0.33306,8.6121 0.63538,1.3944 2.53121,1.3329 3.12545,-0.1016 0.25966,-0.6267 0.32001,-3.0082 0.2286,-9.0355 -0.13592,-8.9707 -0.30552,-10.0535 -1.98803,-12.7039 -2.16158,-3.4052 -6.57157,-4.3134 -10.87502,-2.2393 -1.1295,0.5221 -2.02494,1.1646 -2.74893,2.1349 l -1.33505,-1.3311 c -1.75047,-1.7456 -3.9884,-2.5922 -6.95137,-2.6298 z m 86.07869,1.6567 c -0.71062,-0.01 -1.4527,0.5075 -2.12011,1.4896 -0.86831,1.2777 -0.89416,1.4827 -0.29351,2.3403 0.72823,1.0396 2.17894,0.8717 3.27729,-0.3793 1.25092,-1.4247 1.19313,-2.5543 -0.16769,-3.2705 -0.22588,-0.119 -0.45921,-0.1783 -0.69598,-0.1801 z m -24.91903,1.2926 c -0.96573,0 -1.78057,1.1462 -1.52859,2.1501 0.312,1.2432 3.15083,2.6017 4.10534,1.9643 0.56567,-0.3776 1.01936,-1.5196 0.83485,-2.1009 -0.22947,-0.7234 -2.41531,-2.0135 -3.4116,-2.0135 z m 205.92074,6.0748 c -0.42807,0 -0.93299,0.1025 -1.12173,0.2224 -0.50683,0.3224 -0.99742,1.7929 -0.80259,2.4064 0.14527,0.4579 -0.0633,0.4112 -1.46712,-0.3274 -5.79395,-3.0478 -11.98226,2.869 -9.07892,8.6804 0.60689,1.2147 1.83787,2.4932 2.95904,3.073 2.18662,1.1307 5.68261,0.6219 7.29572,-1.0618 0.4528,-0.4726 0.91409,-0.8591 1.0256,-0.8591 0.1115,0 0.28583,0.4419 0.38725,0.9821 0.41166,2.1945 2.30469,3.2212 3.50142,1.8989 0.50995,-0.5636 0.51107,-0.6661 0.0369,-2.5288 -0.65988,-2.5913 -1.03729,-5.74 -1.04817,-8.7414 -0.0112,-2.829 -0.42616,-3.7518 -1.68724,-3.7447 z m -134.49159,0.3957 c -1.05914,-0.03 -1.8013,-0.022 -1.97067,0.032 -1.26373,0.4011 -1.32817,2.7612 -0.0863,3.1554 0.29161,0.092 1.99925,0.2864 3.79438,0.4307 1.79522,0.1443 3.33166,0.3293 3.41378,0.4115 0.082,0.082 -0.19091,0.7302 -0.60673,1.44 l -0.75697,1.2903 -1.14534,-0.2907 c -1.5073,-0.3826 -2.59541,0.2494 -2.59541,1.5077 0,0.8345 0.17801,1.0935 1.27069,1.8481 0.52429,0.362 0.49083,0.4813 -0.77226,2.7275 -1.73078,3.0776 -1.78249,3.2809 -1.06065,4.1985 0.59976,0.7625 0.63089,0.7676 4.26855,0.7372 2.01509,-0.017 5.00768,-0.1143 6.65001,-0.2167 2.49055,-0.1553 3.05342,-0.2795 3.39536,-0.7474 0.56807,-0.7776 0.51211,-1.5041 -0.16826,-2.1845 -0.5282,-0.5283 -0.96339,-0.578 -5.05762,-0.578 -2.46373,0 -4.47914,-0.075 -4.47914,-0.1654 0,-0.091 0.3429,-0.7494 0.76145,-1.4637 0.75337,-1.2855 0.7725,-1.2965 1.95034,-1.0882 1.60951,0.2845 2.2196,0.2221 2.71899,-0.2772 0.99967,-0.9997 0.044,-3.0747 -1.41621,-3.0747 -0.30024,0 -0.54646,-0.085 -0.54646,-0.1885 0,-0.1035 0.58537,-1.2029 1.30063,-2.443 1.42974,-2.4787 1.56485,-3.1738 0.76986,-3.9688 -0.44457,-0.4446 -1.38259,-0.5896 -5.75929,-0.893 -1.43741,-0.1 -2.81352,-0.1685 -3.87273,-0.1987 z m 21.3086,0.6193 c -3.18302,0.083 -5.46241,3.3501 -5.49058,8.2288 -0.0144,2.5143 0.55517,4.3483 1.80401,5.8072 1.68676,1.9707 2.79288,2.3307 6.7014,2.1812 1.82795,-0.07 3.78957,-0.2704 4.35885,-0.4454 1.41132,-0.4338 1.99724,-1.5163 1.39651,-2.5802 -0.48538,-0.8596 -0.71262,-0.8797 -5.46632,-0.4849 -3.39361,0.2819 -4.52038,-0.2663 -5.04802,-2.4549 -0.17266,-0.7159 -0.15496,-0.7231 1.91808,-0.7896 4.75537,-0.1527 7.44212,-3.0408 5.70453,-6.1324 -0.79011,-1.4059 -2.61501,-2.7003 -4.46265,-3.1656 -0.48764,-0.1228 -0.96117,-0.176 -1.41581,-0.1642 z m -77.6354,0.2105 c -0.51876,-0.046 -1.06354,-0.043 -1.62801,0.015 -3.40584,0.3515 -5.09941,2.6786 -5.06778,6.9639 0.0216,2.9529 0.46713,4.9306 1.42133,6.3147 1.81754,2.6363 6.06729,3.8606 8.90403,2.5649 1.51449,-0.6918 3.6126,-2.9753 3.6126,-3.9321 0,-0.8808 -0.93227,-1.8853 -1.75047,-1.8853 -0.33586,0 -1.10404,0.5591 -1.76392,1.2842 -1.32504,1.456 -2.28484,1.7788 -3.95407,1.3293 -1.25732,-0.3385 -2.64679,-1.722 -2.64679,-2.6355 0,-0.4724 0.21155,-0.556 1.40884,-0.556 2.80736,0 5.54654,-1.4752 6.28309,-3.3834 1.16768,-3.0259 -1.18688,-5.7567 -4.81885,-6.0799 z m 137.91458,0.3652 c -2.23154,-0.047 -4.50437,0.8406 -6.12109,2.6773 -5.5005,6.2489 1.44406,15.5222 9.14096,12.2061 2.5838,-1.1133 4.20933,-3.5883 4.39895,-6.698 0.14015,-2.2991 -0.21812,-3.5181 -1.545,-5.2558 -1.45175,-1.9013 -3.64229,-2.8826 -5.87382,-2.9296 z m -31.85473,0.1654 v 6e-4 c -0.21307,-0.022 -0.42407,0.076 -0.78458,0.2777 -0.70086,0.3922 -0.79027,0.6237 -0.86768,2.242 -0.10485,2.187 0.52573,5.9723 1.36267,8.1815 0.7532,1.988 2.2481,3.5861 3.78533,4.0467 1.45903,0.4371 3.828,-0.038 5.3545,-1.0737 l 1.05281,-0.7146 1.11316,1.0053 c 0.61218,0.553 1.60768,1.1327 2.21273,1.2882 0.60513,0.1554 1.36026,0.349 1.67811,0.4301 1.01759,0.2595 3.15611,-0.09 3.90164,-0.6373 v -6e-4 c 1.16495,-0.8556 1.95546,-2.2506 2.78399,-4.9154 1.60639,-5.1667 0.53373,-10.7899 -1.91024,-10.0142 -1.07874,0.3424 -1.50825,1.3559 -1.1792,2.7834 0.47818,2.074 0.31049,4.2816 -0.51356,6.7555 -0.72752,2.2618 -0.22677,2.3149 -2.46446,2.3034 -1.48232,-0.01 -1.77993,-0.1077 -2.3748,-0.7993 -0.86223,-1.0023 -1.29703,-2.6 -1.53987,-5.6566 -0.16298,-2.0517 -0.29409,-2.5006 -0.86423,-2.9623 -0.84655,-0.6855 -1.23868,-0.683 -2.09298,0.01 -0.6526,0.5297 -0.67837,0.6904 -0.59377,3.6973 0.0785,2.7989 0.024,3.2256 -0.49739,3.8886 -0.80315,1.0211 -2.84962,1.5458 -3.5516,0.9105 -0.86415,-0.782 -1.68788,-3.517 -2.05752,-6.8329 -0.32802,-2.9424 -0.4131,-3.2213 -1.15486,-3.7752 -0.36956,-0.2758 -0.58496,-0.4169 -0.7982,-0.4386 z m 47.84099,0.201 c -5.06131,0.045 -7.52648,4.3209 -6.36329,11.037 0.64163,3.7041 1.62112,4.7633 3.31068,3.5799 0.60849,-0.4262 0.65683,-0.6193 0.48778,-1.9508 -0.73512,-5.7879 -0.4885,-7.9392 0.99847,-8.7081 2.9063,-1.5029 4.99439,0.998 5.3128,6.3627 0.11422,1.9233 0.24181,2.3962 0.76257,2.8178 0.82781,0.6704 1.39499,0.6389 2.2048,-0.1219 0.80627,-0.7574 0.89352,-2.7465 0.25229,-5.7717 -0.98149,-4.6308 -3.52495,-7.2759 -6.9661,-7.2449 z m -62.39872,0.029 c -0.56623,-0.013 -1.12966,0.2133 -1.43487,0.683 -0.37395,0.5754 -0.34875,1.353 0.21797,6.7567 0.40149,3.8299 0.78515,6.281 1.02904,6.5749 0.49178,0.5925 2.15332,0.6095 2.63662,0.027 h 5.7e-4 c 0.43703,-0.5266 0.45432,-1.1096 0.14895,-4.9385 -0.28143,-2.3213 -0.57406,-2.5824 0.96188,-4.1184 0.93739,-0.9373 1.40877,-1.195 2.18903,-1.195 1.19425,0.1131 2.4009,0.9296 3.39024,0.1 0.66989,-0.6062 0.68173,-1.895 0.0217,-2.4916 -1.3649,-1.2351 -4.21636,-1.48 -6.09178,-0.5232 l -1.14975,0.5865 -0.46793,-0.7147 c -0.31681,-0.4834 -0.88568,-0.7342 -1.45191,-0.7468 z m -80.53505,0.6107 c -0.6498,0 -1.70244,0.9795 -1.70244,1.5845 0,0.2356 1.04039,5.1231 2.31205,10.8609 2.40506,10.8521 2.66112,12.8868 1.83956,14.6181 -0.61826,1.3028 -1.71678,1.8373 -3.77565,1.8368 -3.41906,-8e-4 -5.11838,-1.9616 -5.13662,-5.9281 -0.0112,-2.3497 -0.37293,-3.0306 -1.61217,-3.0306 -1.03736,0 -1.64633,0.6175 -1.88989,1.9164 -0.66013,3.5188 1.40243,8.2082 4.24877,9.6603 2.49777,1.2743 5.91521,1.381 8.23615,0.2574 1.47224,-0.7127 2.57668,-1.9316 3.39025,-3.7419 1.07458,-2.3909 0.8254,-4.6611 -1.80746,-16.4734 -2.45678,-11.0221 -2.64785,-11.5604 -4.10255,-11.5604 z m -37.69293,1.4806 c -0.84197,-0.037 -1.63328,0.033 -2.25907,0.2394 -3.38599,1.1175 -4.77515,7.0372 -2.45212,10.45 2.17885,3.2008 5.84885,4.6609 9.30304,3.7018 1.44503,-0.4013 3.65447,-2.4185 3.65447,-3.3366 0,-0.8186 -0.94092,-1.8419 -1.69396,-1.8419 -0.29601,0 -1.03305,0.3934 -1.63761,0.8738 -1.39316,1.1072 -2.21776,1.3102 -3.61765,0.8908 -2.49583,-0.7478 -3.90635,-2.7137 -3.59122,-5.0052 0.35219,-2.5605 1.57773,-3.0734 4.62194,-1.9344 0.94323,0.3529 1.90816,0.5322 2.31486,0.4301 0.87511,-0.2197 1.39596,-1.1593 1.16111,-2.0947 -0.30009,-1.1958 -3.27786,-2.2628 -5.80379,-2.3731 z m -10.6894,0.1914 c -0.49971,0 -1.00078,0.2051 -1.32151,0.6011 -0.47594,0.5879 -0.53726,0.5933 -1.60592,0.1468 -2.5894,-1.082 -5.86213,0.054 -7.70321,2.6733 -1.93041,2.7467 -1.10572,6.8645 1.77071,8.8436 1.69205,1.1641 4.256,1.441 6.25996,0.6756 1.23147,-0.4703 1.28926,-0.4668 1.86614,0.1101 0.71879,0.7187 1.66249,0.765 2.37865,0.1169 0.60297,-0.5456 0.64698,-1.5886 0.33818,-8.0268 -0.1464,-3.052 -0.30121,-4.1086 -0.66789,-4.5615 -0.31632,-0.3907 -0.81532,-0.5833 -1.31511,-0.5791 z m 23.56262,0.2004 c -0.48346,0.01 -0.95372,0.2997 -1.34464,0.8963 -0.40054,0.6115 -0.37413,0.8526 0.31392,2.8461 0.54894,1.5902 0.80212,3.0508 0.93699,5.4093 0.14792,2.5849 0.2908,3.3372 0.71583,3.7622 0.64964,0.6495 1.35242,0.6755 2.2008,0.081 0.58031,-0.4065 0.64258,-0.6924 0.64066,-2.9623 0,-3.1361 -0.42046,-5.7726 -1.24179,-7.8377 -0.57287,-1.4405 -1.41581,-2.2096 -2.22177,-2.1952 z m 91.74889,0.1507 c 1.26789,0 2.80176,1.2096 2.2477,1.7724 -0.48434,0.4919 -4.11783,0.73 -4.11783,0.2698 0,-0.1853 0.19883,-0.7203 0.44136,-1.1893 0.3578,-0.692 0.62706,-0.8529 1.42877,-0.8529 z m -78.74231,0.162 c 1.09739,0.01 2.30805,0.392 2.30805,0.968 0,0.9265 -2.49664,1.6939 -4.13032,1.2695 -0.57824,-0.1502 -0.44857,-1.0659 0.25574,-1.8068 0.29031,-0.3054 0.90801,-0.4357 1.56653,-0.4307 z m 185.10585,0.2715 c 1.15727,0 1.46719,0.1335 2.1912,0.9438 1.50209,1.6812 0.99405,4.0072 -1.06338,4.8668 -1.15799,0.4839 -1.17929,0.4837 -2.31886,-0.013 -1.99997,-0.8704 -2.47983,-3.1986 -1.00023,-4.8544 0.72392,-0.8103 1.03409,-0.9438 2.19127,-0.9438 z m -47.01927,0.1755 c 1.18201,-0.064 2.45237,0.2364 3.1137,0.8541 1.63992,1.5322 2.03494,3.689 0.9895,5.4037 -1.17592,1.9288 -3.65199,2.6304 -5.70734,1.6171 -2.7226,-1.3422 -2.88765,-5.717 -0.27712,-7.3567 0.4946,-0.3107 1.172,-0.4799 1.88126,-0.5182 z m -180.16285,2.9804 c 0.92707,-0.1105 1.90296,0.2324 2.6051,1.0669 2.33486,2.7746 -1.36626,6.4756 -4.14097,4.1409 -1.1078,-0.9322 -1.41125,-2.3245 -0.77498,-3.555 0.50595,-0.9785 1.38387,-1.5423 2.31085,-1.6528 z"
       sodipodi:nodetypes="sssssscssssccsssssscssscssscsssssscssssssccssscssssssssssscsssccssssssssssssssssscssssssccsssssssccsssssssssssssssssssssssssssssssssscssssssssssssssssssccssssscsssccsssccsssssssssscsssssssssssssssscccccscsssssssssssssssssssssssssssssssssssssssssssssscsssssssscssscssssssssssssssssss" />
  </g>
</svg>
