<svg xmlns="http://www.w3.org/2000/svg" xmlns:xlink="http://www.w3.org/1999/xlink" width="1884.76" height="470.203" viewBox="0 0 498.676 124.408"><defs><linearGradient xlink:href="#a" id="c" x1="-889.341" x2="-417.827" y1="83.69" y2="208.097" gradientUnits="userSpaceOnUse"/><linearGradient id="a"><stop offset="0" style="stop-color:#e1d4f3;stop-opacity:1"/><stop offset="1" style="stop-color:#d6bbff;stop-opacity:1"/></linearGradient><linearGradient xlink:href="#b" id="d" x1="-727.398" x2="-545.185" y1="-551.85" y2="-470.999" gradientTransform="matrix(1.56676 0 0 1.56676 370.424 974.67)" gradientUnits="userSpaceOnUse"/><linearGradient id="b"><stop offset="0" style="stop-color:#8d5fd3;stop-opacity:1"/><stop offset="1" style="stop-color:#60f;stop-opacity:1"/></linearGradient></defs><path d="M-889.34 83.69a13.551 13.551 0 0 0-13.582 13.58v97.246a13.551 13.551 0 0 0 13.581 13.581h471.514a13.55 13.55 0 0 0 13.581-13.58V97.27a13.55 13.55 0 0 0-13.58-13.581h-471.515z" style="opacity:1;fill:url(#c);fill-opacity:1;stroke:none;stroke-width:1.32292;stroke-linecap:round;stroke-linejoin:round;stroke-dasharray:none;stroke-opacity:1" transform="translate(902.922 -83.69)"/><path d="M-767.576 108.398c-.915 0-1.657.742-1.657 1.657v71.677c0 .913.74 1.653 1.654 1.654h3.316c.914 0 1.654-.74 1.654-1.654v-63.16l5.29 6.165a1.23 1.23 0 0 0 1.969-.14l1.94-3.037a2.228 2.228 0 0 0-.188-2.651l-7.937-9.254a3.597 3.597 0 0 0-2.73-1.257zm28.914 0c-.917 0-1.655.735-1.655 1.652v21.636a6.62 6.62 0 0 0-6.62 6.62h6.62v2.198c0 .917.738 1.655 1.655 1.655h3.315a1.65 1.65 0 0 0 1.654-1.655V110.05c0-.917-.738-1.652-1.654-1.652zm9.934 0c-.916 0-1.655.738-1.655 1.655v30.453c0 .917.739 1.655 1.655 1.655h14.617c.916 0 1.655-.738 1.655-1.655v-3.311c0-.917-.739-1.655-1.655-1.655h-9.65v-20.52h9.65c.916 0 1.655-.738 1.655-1.655v-3.311c0-.917-.739-1.656-1.655-1.656zm-16.946 9.802c-1.031 0-1.99.525-2.545 1.394l-11.221 17.559a1.655 1.655 0 0 0 .504 2.285l2.788 1.781c.77.493 1.793.267 2.286-.503l9.343-14.62c.582-.91.891-1.97.891-3.05V118.2zm53.73 2.141c-.463 0-.831.137-1.104.41-.274.253-.41.631-.41 1.136v19.576c0 .483.126.862.378 1.135.273.273.652.41 1.135.41.484 0 .841-.137 1.072-.41.252-.273.378-.652.378-1.135v-14.909l6.62 12.167c.169.294.357.525.568.693.21.147.483.22.82.22.336 0 .598-.074.787-.22.19-.147.38-.378.569-.693l6.556-12.179v14.921c0 .483.127.862.38 1.135.272.273.65.41 1.134.41.483 0 .84-.137 1.072-.41.252-.273.378-.652.378-1.135v-19.576c0-.505-.126-.883-.378-1.135-.253-.274-.61-.41-1.072-.41-.442 0-.778.083-1.01.252-.23.147-.45.42-.66.819l-7.742 14.502-7.77-14.502c-.21-.4-.44-.672-.693-.82-.231-.167-.567-.252-1.009-.252zm58.478.032c-.63 0-1.124.157-1.481.472-.337.295-.505.736-.505 1.324 0 .568.168 1.01.505 1.325.357.315.85.473 1.481.473.652 0 1.146-.158 1.483-.473.336-.315.503-.757.503-1.325 0-.588-.167-1.03-.503-1.324-.337-.315-.831-.472-1.483-.472zm24.716 0c-.63 0-1.124.157-1.481.472-.337.295-.505.736-.505 1.324 0 .568.168 1.01.505 1.325.357.315.85.473 1.481.473.63 0 1.114-.158 1.45-.473.358-.315.536-.757.536-1.325 0-.588-.178-1.03-.536-1.324-.336-.315-.82-.472-1.45-.472zm-51.606 6.746c-.8 0-1.65.095-2.554.284-.904.189-1.818.504-2.743.945-.336.126-.578.316-.725.568-.126.252-.19.515-.19.788.022.252.106.494.253.725.147.21.346.347.599.41.252.063.557.01.915-.158a10.805 10.805 0 0 1 2.237-.82 8.48 8.48 0 0 1 2.113-.283c1.156 0 1.986.272 2.49.819.505.525.756 1.377.756 2.554v.82h-1.07c-2.27 0-4.078.147-5.423.44-1.324.274-2.28.747-2.87 1.42-.567.65-.85 1.544-.85 2.68 0 .903.242 1.712.725 2.427.484.714 1.146 1.282 1.986 1.702.862.42 1.829.63 2.9.63.862 0 1.629-.147 2.301-.441a4.355 4.355 0 0 0 1.672-1.26c.271-.334.492-.704.662-1.11v1.11c0 .525.136.935.41 1.23.273.272.64.408 1.103.408.483 0 .85-.136 1.103-.409.273-.294.41-.704.41-1.23v-8.07c0-1.43-.231-2.596-.694-3.5a4.248 4.248 0 0 0-2.049-2.017c-.904-.441-2.06-.662-3.467-.662zm17.37 0c-1.177 0-2.249.189-3.215.567a6.763 6.763 0 0 0-2.429 1.545c-.651.672-1.156 1.503-1.513 2.49-.357.967-.535 2.06-.535 3.279 0 1.639.315 3.069.946 4.288a6.955 6.955 0 0 0 2.647 2.805c1.156.652 2.522.977 4.099.977.735 0 1.492-.105 2.27-.315a6.65 6.65 0 0 0 2.206-1.04c.273-.168.452-.379.536-.63.084-.253.095-.495.032-.726a1.126 1.126 0 0 0-.315-.63.921.921 0 0 0-.6-.347c-.251-.042-.525.021-.82.189a5.01 5.01 0 0 1-1.543.757c-.526.147-1.03.22-1.514.22-1.492 0-2.649-.483-3.468-1.45-.799-.988-1.198-2.343-1.198-4.067 0-.861.094-1.628.284-2.3.21-.673.515-1.23.914-1.672.4-.462.883-.809 1.45-1.04.588-.252 1.262-.378 2.018-.378.484 0 .988.084 1.514.252.525.147 1.04.4 1.544.756.294.169.568.243.82.222.252-.042.462-.148.63-.316.189-.19.315-.41.379-.662a1.214 1.214 0 0 0-.032-.725c-.084-.252-.263-.473-.536-.662a6.957 6.957 0 0 0-2.27-1.04 8.274 8.274 0 0 0-2.301-.347zm22.225 0c-1.45 0-2.743.336-3.878 1.008-1.135.673-2.028 1.608-2.68 2.806-.65 1.198-.976 2.596-.976 4.193 0 1.64.325 3.058.977 4.256a7.046 7.046 0 0 0 2.806 2.743c1.22.63 2.669.945 4.35.945.883 0 1.797-.115 2.743-.346.945-.252 1.776-.62 2.49-1.104.315-.21.536-.44.662-.693.127-.273.169-.536.127-.788a1.051 1.051 0 0 0-.347-.631c-.168-.168-.4-.263-.694-.284-.273-.021-.589.074-.946.284-.63.4-1.303.683-2.017.85a9.577 9.577 0 0 1-1.986.222c-1.66 0-2.932-.462-3.815-1.387-.733-.805-1.153-1.93-1.262-3.373h10.026c.42 0 .736-.084.946-.253.231-.189.346-.462.346-.82 0-1.176-.157-2.238-.472-3.183-.316-.946-.778-1.745-1.387-2.396a5.543 5.543 0 0 0-2.144-1.513c-.84-.358-1.797-.536-2.869-.536zm12.011.064c-.504 0-.904.136-1.198.41-.273.272-.41.671-.41 1.197v14.343c0 1.072-.251 1.861-.756 2.365-.483.526-1.25.82-2.3.883-.295.021-.527.115-.695.283-.189.19-.294.4-.316.631-.042.252-.01.494.095.725.084.232.252.42.505.568.231.147.535.21.914.189 1.282-.084 2.343-.336 3.184-.757a4.068 4.068 0 0 0 1.923-1.923c.441-.841.662-1.912.662-3.215V128.79c0-.526-.136-.925-.41-1.198-.273-.273-.672-.41-1.198-.41zm-24.716.063c-.504 0-.892.147-1.166.441-.273.294-.41.715-.41 1.261v12.295c0 .546.137.977.41 1.293.274.294.662.441 1.166.441.526 0 .925-.147 1.199-.441.273-.316.41-.747.41-1.293v-12.295c0-.547-.148-.967-.442-1.261-.273-.294-.662-.441-1.167-.441zm12.832 2.144c.882 0 1.617.2 2.206.599.61.378 1.062.934 1.356 1.67.27.612.424 1.348.462 2.207h-8.576a6.491 6.491 0 0 1 .485-1.892c.357-.82.872-1.45 1.544-1.891.694-.463 1.535-.693 2.523-.693zm-37.61 6.336h1.04v.85c0 .82-.178 1.546-.536 2.176a4.01 4.01 0 0 1-1.387 1.514c-.589.357-1.271.536-2.049.536-.967 0-1.724-.242-2.27-.726-.546-.504-.82-1.156-.82-1.954 0-.61.18-1.083.537-1.419.378-.357 1.008-.61 1.89-.757.883-.147 2.082-.22 3.595-.22zm-25.315 12.925c-1.682 0-3.195.263-4.54.789a9.015 9.015 0 0 0-3.373 2.3c-.904.988-1.597 2.187-2.08 3.595-.484 1.387-.726 2.953-.726 4.697 0 2.333.42 4.361 1.261 6.085.862 1.702 2.092 3.015 3.689 3.94 1.597.924 3.52 1.387 5.769 1.387a12.63 12.63 0 0 0 3.688-.536c1.177-.357 2.197-.872 3.058-1.545.316-.23.516-.493.6-.787.105-.316.115-.61.031-.884a1.266 1.266 0 0 0-1.198-1.04c-.294-.021-.63.084-1.009.316a8.34 8.34 0 0 1-2.427 1.166 9.169 9.169 0 0 1-2.648.379c-1.598 0-2.943-.327-4.036-.979-1.093-.672-1.923-1.639-2.49-2.9-.547-1.26-.82-2.794-.82-4.602 0-1.807.273-3.331.82-4.571.567-1.261 1.397-2.217 2.49-2.869 1.093-.672 2.438-1.01 4.036-1.01a9.17 9.17 0 0 1 2.648.38 6.73 6.73 0 0 1 2.3 1.134c.38.252.727.368 1.042.347.336-.021.61-.125.82-.315.21-.21.346-.462.41-.757a1.382 1.382 0 0 0-.064-.914c-.105-.336-.336-.62-.693-.85-.84-.631-1.84-1.115-2.996-1.452a12.47 12.47 0 0 0-3.561-.504zm118.48.064c-.504 0-.892.137-1.165.41-.273.273-.41.673-.41 1.198v19.42c0 .525.136.934.41 1.228.273.274.661.41 1.166.41 1.072 0 1.608-.546 1.608-1.639v-5.611h.063l6.305 6.116c.379.378.704.662.978.85.294.19.682.284 1.165.284.379 0 .695-.104.947-.315.252-.231.388-.514.41-.85.021-.337-.137-.673-.473-1.01l-6.064-6.035 5.496-5.44c.315-.336.473-.662.473-.977 0-.336-.115-.62-.347-.85-.23-.232-.567-.348-1.008-.348-.442 0-.8.095-1.072.284a6.86 6.86 0 0 0-.914.788l-5.896 5.863h-.063v-12.168c0-.525-.147-.925-.442-1.198-.273-.273-.662-.41-1.166-.41zm-173.762.04-18.798.029c-.918 0-1.656.738-1.656 1.655v3.311a1.65 1.65 0 0 0 1.656 1.655l18.798-.027c.917 0 1.656-.738 1.656-1.655v-3.312c0-.917-.74-1.656-1.656-1.655zm6.622.029c-.917 0-1.655.738-1.655 1.655v3.311c0 .917.738 1.655 1.655 1.655h13.13v17.238c-.188 2.194-1.858 3.888-4.044 4.104-1.82.044-7.23.021-9.088.021-.914 0-1.654.741-1.654 1.655v3.31c0 .914.74 1.656 1.654 1.656h9.088c5.77-.247 10.447-4.947 10.673-10.724V150.44c0-.915-.74-1.655-1.654-1.655zm98.662 6.674v.003h-.07c-1.409.105-2.565.483-3.468 1.134-.664.478-1.167 1.12-1.514 1.927v-1.36c0-.525-.136-.924-.41-1.198-.273-.273-.662-.41-1.166-.41-.483 0-.862.137-1.135.41-.273.274-.41.673-.41 1.199v12.578c0 .526.137.936.41 1.23.273.273.673.41 1.198.41.547 0 .946-.137 1.198-.41.274-.294.41-.704.41-1.23v-7.125c0-1.282.358-2.28 1.072-2.994.715-.736 1.754-1.177 3.12-1.324l.6-.03c.484-.064.84-.221 1.072-.474.23-.273.336-.63.314-1.072-.042-.441-.177-.767-.408-.977-.197-.197-.468-.293-.813-.287zm-18.481.036c-1.45 0-2.743.337-3.878 1.01-1.134.672-2.028 1.607-2.68 2.805-.651 1.198-.977 2.595-.977 4.193 0 1.639.326 3.058.978 4.256a7.044 7.044 0 0 0 2.805 2.742c1.219.63 2.67.947 4.351.947.883 0 1.797-.117 2.742-.348.946-.252 1.776-.62 2.49-1.102.316-.21.537-.442.663-.694.126-.273.168-.537.126-.789a1.052 1.052 0 0 0-.347-.63c-.168-.169-.399-.263-.693-.284-.273-.021-.588.073-.946.283-.63.4-1.303.684-2.017.852a9.574 9.574 0 0 1-1.986.22c-1.66 0-2.933-.462-3.816-1.386-.733-.805-1.152-1.93-1.262-3.373h10.027c.42 0 .735-.085.946-.253.23-.19.346-.462.346-.82 0-1.176-.157-2.238-.473-3.184-.315-.945-.777-1.744-1.387-2.396a5.542 5.542 0 0 0-2.144-1.513c-.84-.357-1.796-.536-2.868-.536zm56.097 0c-1.156 0-2.207.19-3.153.568a6.43 6.43 0 0 0-2.396 1.608c-.651.693-1.156 1.523-1.513 2.49-.357.967-.536 2.07-.536 3.31 0 1.618.315 3.027.946 4.225.63 1.198 1.503 2.122 2.617 2.774 1.134.651 2.48.977 4.035.977 1.156 0 2.196-.179 3.121-.536a6.651 6.651 0 0 0 2.364-1.607c.673-.694 1.188-1.534 1.545-2.522.357-.988.536-2.092.536-3.31 0-1.64-.315-3.048-.946-4.225-.63-1.198-1.513-2.123-2.648-2.774-1.114-.652-2.438-.978-3.972-.978zm19.45 0c-1.281 0-2.416.305-3.404.914a4.84 4.84 0 0 0-1.797 1.888v-1.13c0-.526-.136-.926-.41-1.199-.272-.273-.662-.41-1.167-.41-.483 0-.86.137-1.134.41-.273.273-.41.673-.41 1.198v12.579c0 .526.137.935.41 1.23.273.272.662.409 1.167.409 1.072 0 1.607-.546 1.607-1.639v-7.283c0-1.324.378-2.385 1.135-3.183.778-.82 1.808-1.23 3.09-1.23 1.093 0 1.891.305 2.395.915.526.61.788 1.575.788 2.9v7.881c0 .526.138.935.41 1.23.274.272.673.41 1.198.41.505 0 .894-.138 1.167-.41.273-.295.41-.704.41-1.23v-8.07c0-1.388-.2-2.533-.6-3.437-.399-.924-.998-1.607-1.796-2.049-.799-.462-1.818-.694-3.058-.694zm32.346 0c-.799 0-1.65.095-2.554.284-.903.19-1.818.505-2.743.946-.336.126-.577.316-.724.568-.126.252-.19.514-.19.787.022.253.105.494.252.725.147.21.347.347.6.41.251.064.557.012.914-.157a10.792 10.792 0 0 1 2.238-.82 8.487 8.487 0 0 1 2.112-.283c1.156 0 1.986.273 2.49.82.505.525.757 1.375.757 2.552v.82h-1.071c-2.27 0-4.078.147-5.423.442-1.324.273-2.28.745-2.869 1.418-.567.652-.85 1.545-.85 2.68 0 .904.24 1.713.724 2.427.483.715 1.145 1.283 1.986 1.703.862.42 1.83.63 2.901.63.862 0 1.628-.147 2.301-.441a4.352 4.352 0 0 0 1.671-1.261 4.5 4.5 0 0 0 .662-1.11v1.11c0 .526.137.935.41 1.23.273.272.64.41 1.103.41.483 0 .851-.138 1.103-.41.274-.295.41-.704.41-1.23v-8.07c0-1.43-.23-2.596-.693-3.5a4.25 4.25 0 0 0-2.05-2.017c-.904-.442-2.059-.663-3.467-.663zm-84.47.063c-.42 0-.767.095-1.04.285-.253.189-.41.451-.473.787-.064.315-.011.683.157 1.104l4.635 12.264c.189.483.44.84.756 1.072.336.21.725.314 1.167.314.441 0 .819-.115 1.134-.346.336-.231.589-.59.757-1.073l3.596-9.777 3.624 9.81c.189.462.44.808.756 1.04a2.01 2.01 0 0 0 1.167.346c.42 0 .798-.116 1.134-.347.336-.231.589-.577.757-1.04l4.634-12.263c.147-.378.2-.725.158-1.04a1.162 1.162 0 0 0-.379-.82c-.21-.21-.525-.315-.945-.315-.337 0-.641.084-.914.252-.253.168-.463.494-.631.977l-3.845 10.726-3.848-10.789c-.126-.4-.325-.693-.598-.882-.252-.19-.578-.284-.977-.284-.4 0-.725.094-.977.284-.253.189-.453.483-.6.882l-3.904 10.708-3.756-10.582c-.169-.504-.379-.84-.631-1.008-.231-.19-.536-.285-.914-.285zm-44.072.221c-.4 0-.704.105-.914.315-.21.21-.315.516-.315.915 0 .379.104.683.315.914.21.21.514.315.914.315h7.4l-7.968 10.34c-.252.274-.42.568-.504.884a1.936 1.936 0 0 0 0 .85c.084.253.23.463.44.631.211.147.484.22.82.22h10.026c.4 0 .704-.105.914-.314.231-.232.348-.536.348-.915 0-.798-.421-1.198-1.262-1.198h-7.759l8.042-10.403c.253-.273.41-.557.473-.852a1.533 1.533 0 0 0-.031-.82c-.063-.251-.22-.462-.473-.63-.231-.168-.546-.252-.945-.252zm20.775 1.986c.883 0 1.618.2 2.206.6.61.378 1.062.935 1.357 1.67.27.613.423 1.348.462 2.207h-8.576a6.468 6.468 0 0 1 .484-1.891c.358-.82.873-1.45 1.545-1.892.694-.462 1.534-.694 2.522-.694zm55.97.222c1.304 0 2.354.462 3.153 1.386.798.925 1.198 2.291 1.198 4.099 0 1.198-.19 2.207-.567 3.026-.358.799-.861 1.408-1.513 1.828-.651.42-1.408.631-2.27.631-1.324 0-2.386-.462-3.184-1.387-.778-.946-1.166-2.312-1.166-4.098 0-1.198.178-2.208.536-3.027.357-.82.861-1.429 1.513-1.828.651-.42 1.418-.63 2.3-.63zm-146.21 4.762-12.176.027c-.917 0-1.655.739-1.655 1.655v3.312a1.65 1.65 0 0 0 1.655 1.655l12.176-.028a1.65 1.65 0 0 0 1.654-1.654v-3.312a1.65 1.65 0 0 0-1.654-1.655zm200.119 1.353h1.04v.85c0 .82-.178 1.546-.535 2.176-.336.63-.8 1.136-1.388 1.514-.588.357-1.271.535-2.05.535-.966 0-1.722-.242-2.269-.725-.546-.504-.82-1.155-.82-1.954 0-.61.179-1.083.536-1.419.379-.357 1.01-.61 1.892-.756.882-.147 2.08-.221 3.594-.221zm-196.808 12.637v.001l-18.798.027c-.918 0-1.656.738-1.656 1.655v3.312a1.65 1.65 0 0 0 1.656 1.655l18.798-.027c.917 0 1.656-.739 1.656-1.655v-3.312c0-.917-.74-1.657-1.656-1.656z" style="font-style:normal;font-variant:normal;font-weight:400;font-stretch:normal;font-size:5.16032px;font-family:Nunito;-inkscape-font-specification:&quot;Nunito, @wght=601&quot;;font-variant-ligatures:normal;font-variant-caps:normal;font-variant-numeric:normal;font-variant-east-asian:normal;font-variation-settings:&quot;wght&quot;601;fill:url(#d);fill-opacity:1;stroke-width:.0207631;stroke-linejoin:round;paint-order:markers fill stroke" transform="translate(902.922 -83.69)"/></svg>