<svg xmlns="http://www.w3.org/2000/svg" width="1885.002" height="477.655" viewBox="0 0 498.74 126.38"><path d="M-459.796-98.427c-7.509-.016-13.599 6.075-13.582 13.583V14.37c-.017 7.508 6.073 13.599 13.581 13.582H11.78c7.508.018 13.599-6.073 13.582-13.581v-99.215c.018-7.509-6.073-13.6-13.581-13.583h-471.577z" style="fill:#f3f5f7;fill-opacity:1;stroke:none;stroke-width:1.39293;stroke-linecap:round;stroke-linejoin:round;stroke-dasharray:none;stroke-opacity:1" transform="translate(473.379 98.427)"/><g style="stroke-width:.654556"><path d="M-88.63-137.617c-.47 0-.837.117-1.102.352-.25.218-.375.546-.375.984 0 .422.125.75.375.984.265.235.633.352 1.102.352.468 0 .828-.117 1.078-.352.266-.234.398-.562.398-.984 0-.438-.132-.766-.398-.984-.25-.235-.61-.352-1.078-.352zm-41.143.14c-.422 0-.75.118-.985.352-.218.219-.328.54-.328.961v13.902c0 .422.11.75.328.985.235.219.563.328.985.328h4.524c1.375 0 2.587-.18 3.634-.54 1.047-.374 1.93-.906 2.649-1.593.734-.704 1.29-1.571 1.664-2.603.376-1.031.563-2.211.563-3.54 0-2.672-.742-4.711-2.227-6.118-1.47-1.422-3.563-2.134-6.283-2.134zm1.125 2.04h3.259c2.031 0 3.555.516 4.571 1.547 1.032 1.032 1.548 2.587 1.548 4.665 0 1.048-.126 1.962-.376 2.743-.25.782-.633 1.43-1.148 1.946-.516.516-1.157.906-1.923 1.172-.75.25-1.64.375-2.672.375h-3.26zm19.833 2.836c-1.078 0-2.04.25-2.883.75a5.337 5.337 0 0 0-1.993 2.087c-.484.891-.727 1.93-.727 3.118 0 1.22.243 2.274.727 3.165a5.238 5.238 0 0 0 2.086 2.04c.907.468 1.985.703 3.236.703.656 0 1.336-.086 2.039-.258a6.066 6.066 0 0 0 1.852-.82c.234-.157.399-.328.492-.516a.992.992 0 0 0 .094-.586.781.781 0 0 0-.258-.47c-.125-.124-.297-.194-.516-.21-.203-.016-.437.055-.703.21a4.871 4.871 0 0 1-1.5.634 6.27 6.27 0 0 1-1.477.187c-1.235 0-2.18-.343-2.837-1.031-.546-.6-.858-1.444-.94-2.532h7.457c.313 0 .547-.063.704-.188.156-.14.234-.343.234-.609 0-.875-.117-1.665-.352-2.368-.218-.703-.554-1.297-1.007-1.782a4.12 4.12 0 0 0-1.595-1.125c-.625-.265-1.336-.399-2.133-.399zm12.003 0c-.922 0-1.735.149-2.438.446-.703.281-1.25.688-1.641 1.219-.39.531-.586 1.157-.586 1.876 0 .797.25 1.453.75 1.969.5.515 1.235.875 2.204 1.078l2.227.446c.563.125.985.304 1.266.539.281.218.422.531.422.937 0 .5-.211.9-.633 1.196-.422.297-1.047.446-1.876.446a7.66 7.66 0 0 1-1.664-.188 7.12 7.12 0 0 1-1.758-.727.905.905 0 0 0-.586-.117.77.77 0 0 0-.446.258.926.926 0 0 0-.211.469 1.01 1.01 0 0 0 .094.516c.078.171.218.328.422.468.61.375 1.273.641 1.992.798.735.156 1.446.234 2.134.234 1.422 0 2.563-.313 3.422-.938.86-.625 1.29-1.477 1.29-2.555 0-.828-.266-1.485-.797-1.97-.516-.484-1.282-.828-2.298-1.03l-2.227-.446c-.531-.11-.922-.29-1.172-.54-.25-.25-.375-.57-.375-.96 0-.516.203-.923.61-1.22.422-.312 1.047-.469 1.875-.469a5.094 5.094 0 0 1 2.766.82c.22.11.414.157.586.141a.84.84 0 0 0 .469-.234.956.956 0 0 0 .235-.469.833.833 0 0 0-.024-.516.788.788 0 0 0-.399-.445 5.918 5.918 0 0 0-1.687-.774 7.136 7.136 0 0 0-1.946-.258zm17.137 0c-.766 0-1.47.141-2.11.423a4.568 4.568 0 0 0-1.617 1.148 5.558 5.558 0 0 0-1.032 1.782c-.234.688-.352 1.461-.352 2.321 0 1.14.211 2.141.633 3a4.895 4.895 0 0 0 1.782 1.993c.766.47 1.665.704 2.696.704.985 0 1.852-.25 2.603-.75a3.485 3.485 0 0 0 1.265-1.458v1.81c0 1.078-.273 1.89-.82 2.437-.547.563-1.368.844-2.462.844-.531 0-1.11-.07-1.735-.211-.61-.125-1.258-.375-1.945-.75-.203-.11-.399-.14-.586-.094a.907.907 0 0 0-.446.282c-.125.14-.21.304-.258.492a.913.913 0 0 0 .07.54c.079.187.235.343.47.468a6.92 6.92 0 0 0 2.133.844c.797.172 1.617.258 2.461.258 1.766 0 3.11-.454 4.033-1.36.922-.907 1.383-2.25 1.383-4.032v-9.448c0-.39-.102-.688-.305-.89-.203-.204-.492-.306-.867-.306-.36 0-.65.102-.868.305-.203.203-.304.5-.304.891v.895a3.399 3.399 0 0 0-1.22-1.387c-.734-.5-1.602-.75-2.602-.75zm15.684 0c-.953 0-1.798.227-2.532.68a3.702 3.702 0 0 0-1.36 1.421v-.858c0-.39-.102-.688-.305-.89-.187-.204-.469-.306-.844-.306-.36 0-.64.102-.844.305-.203.203-.304.5-.304.891v9.377c0 .376.101.673.304.891.204.204.493.305.868.305.797 0 1.195-.398 1.195-1.196v-5.439c0-1 .282-1.797.844-2.39.579-.594 1.344-.891 2.298-.891.813 0 1.407.226 1.782.68.39.453.586 1.171.586 2.156v5.884c0 .376.101.673.305.891.203.204.5.305.89.305.376 0 .664-.101.868-.305.203-.218.304-.515.304-.89v-6.026c0-1.031-.148-1.883-.445-2.555-.297-.688-.75-1.196-1.36-1.524-.594-.344-1.344-.516-2.25-.516zm-24.64.094c-.375 0-.663.11-.867.329-.203.218-.304.531-.304.937v9.143c0 .406.101.727.304.961.204.22.492.328.868.328.39 0 .687-.109.89-.328.204-.234.305-.555.305-.96v-9.144c0-.406-.109-.719-.328-.937-.203-.22-.492-.329-.867-.329zm-20.09 1.57c.656 0 1.203.15 1.641.446.453.282.789.696 1.008 1.243.2.469.315 1.024.344 1.665h-6.378c.057-.518.177-.986.36-1.407.266-.61.65-1.087 1.15-1.43.515-.344 1.14-.516 1.875-.516zm29.609.188c1.016 0 1.813.344 2.39 1.032.595.688.892 1.618.892 2.79 0 .781-.133 1.461-.399 2.04-.265.578-.64 1.023-1.125 1.336-.485.313-1.07.469-1.758.469-1 0-1.797-.344-2.391-1.032-.594-.687-.891-1.625-.891-2.813 0-.782.133-1.454.398-2.017.282-.578.665-1.023 1.15-1.335.484-.313 1.062-.47 1.734-.47zm23.584 6.916c-.453 0-.821.141-1.102.422-.282.266-.422.618-.422 1.055 0 .438.14.797.422 1.079.281.281.649.422 1.102.422.453 0 .812-.141 1.078-.422.266-.282.399-.641.399-1.079 0-.437-.133-.789-.4-1.055-.265-.28-.624-.422-1.077-.422z" style="font-size:23.4433px;font-family:Nunito;-inkscape-font-specification:&quot;Nunito, @wght=600&quot;;font-variation-settings:&quot;wght&quot;600;fill:#1aacff;fill-opacity:1;stroke-width:8.65925" transform="matrix(1.52775 0 0 1.52775 247.448 257.21)"/><path d="M10.847-137.64c-.375 0-.664.101-.867.304-.204.203-.305.5-.305.89v11.559c0 1.344.305 2.375.914 3.094.625.703 1.548 1.055 2.767 1.055.14 0 .289-.008.445-.024.156 0 .305-.008.445-.023.313-.047.54-.157.68-.329.14-.187.211-.445.211-.773 0-.36-.039-.594-.117-.703-.078-.125-.21-.18-.398-.164l-.329.047h-.375c-.61 0-1.078-.188-1.406-.563-.313-.39-.47-.977-.47-1.759v-11.416c0-.391-.109-.688-.328-.89-.203-.204-.492-.306-.867-.306zm-54.208.163c-.422 0-.75.118-.985.352-.219.219-.328.54-.328.961v13.902c0 .422.11.75.328.985.235.219.563.328.985.328h4.524c1.376 0 2.587-.18 3.634-.54 1.047-.374 1.93-.906 2.65-1.593.734-.704 1.289-1.571 1.664-2.603.375-1.031.562-2.211.562-3.54 0-2.672-.742-4.711-2.227-6.118-1.469-1.422-3.563-2.134-6.283-2.134zm1.125 2.04h3.259c2.032 0 3.555.516 4.571 1.547 1.032 1.032 1.547 2.587 1.547 4.665 0 1.048-.125 1.962-.375 2.743-.25.782-.633 1.43-1.149 1.946-.515.516-1.156.906-1.922 1.172-.75.25-1.64.375-2.672.375h-3.259zm19.833 2.836c-1.078 0-2.04.25-2.884.75a5.337 5.337 0 0 0-1.992 2.087c-.485.891-.727 1.93-.727 3.118 0 1.22.242 2.274.727 3.165a5.24 5.24 0 0 0 2.087 2.04c.906.468 1.984.703 3.234.703.657 0 1.337-.086 2.04-.258a6.066 6.066 0 0 0 1.852-.82c.235-.157.398-.328.492-.516a.993.993 0 0 0 .094-.586.78.78 0 0 0-.258-.47c-.125-.124-.297-.194-.515-.21-.204-.016-.438.055-.704.21-.469.298-.969.509-1.5.634a6.27 6.27 0 0 1-1.477.187c-1.235 0-2.18-.343-2.837-1.031-.546-.6-.859-1.444-.94-2.532h7.458c.312 0 .547-.063.703-.188.156-.14.234-.343.234-.609 0-.875-.117-1.665-.351-2.368-.22-.703-.555-1.297-1.009-1.782a4.12 4.12 0 0 0-1.594-1.125c-.625-.265-1.336-.399-2.133-.399zm24.412 0c-1.078 0-2.04.25-2.884.75a5.337 5.337 0 0 0-1.992 2.087c-.485.891-.727 1.93-.727 3.118 0 1.22.242 2.274.727 3.165a5.238 5.238 0 0 0 2.086 2.04c.906.468 1.985.703 3.235.703.657 0 1.337-.086 2.04-.258a6.066 6.066 0 0 0 1.852-.82c.235-.157.398-.328.492-.516a.993.993 0 0 0 .094-.586.78.78 0 0 0-.258-.47c-.125-.124-.297-.194-.515-.21-.204-.016-.438.055-.704.21-.469.298-.969.509-1.5.634a6.27 6.27 0 0 1-1.477.187c-1.235 0-2.18-.343-2.837-1.031-.546-.6-.859-1.444-.94-2.532H6.16c.312 0 .547-.063.703-.188.156-.14.234-.343.234-.609 0-.875-.117-1.665-.351-2.368-.22-.703-.555-1.297-1.009-1.782a4.12 4.12 0 0 0-1.594-1.125c-.625-.265-1.336-.399-2.133-.399zm19.692 0c-.86 0-1.64.141-2.344.423a4.782 4.782 0 0 0-1.782 1.195 5.403 5.403 0 0 0-1.125 1.852c-.266.719-.398 1.54-.398 2.462 0 1.203.234 2.25.703 3.141s1.117 1.579 1.945 2.063c.844.485 1.845.727 3.001.727.844 0 1.61-.133 2.298-.399a4.905 4.905 0 0 0 1.782-1.195 5.19 5.19 0 0 0 1.148-1.876c.266-.734.399-1.555.399-2.461 0-1.22-.235-2.266-.703-3.142a5.016 5.016 0 0 0-1.97-2.063c-.828-.484-1.813-.727-2.954-.727zm14.418 0c-1 0-1.868.258-2.602.774-.536.364-.941.82-1.22 1.367v-.898c0-.39-.1-.688-.304-.89-.203-.204-.492-.306-.867-.306-.36 0-.641.102-.844.305-.204.203-.305.5-.305.891v13.597c0 .391.101.688.305.891.203.203.492.305.867.305s.664-.102.867-.305c.22-.203.329-.5.329-.89v-5.039c.277.52.675.957 1.195 1.31.735.501 1.594.75 2.579.75 1.032 0 1.923-.234 2.673-.703.75-.484 1.328-1.172 1.735-2.063.422-.906.633-1.96.633-3.164 0-1.235-.211-2.29-.633-3.165-.407-.875-.993-1.555-1.759-2.04-.75-.484-1.633-.727-2.649-.727zm-50.93.047c-.343 0-.617.079-.82.235a.803.803 0 0 0-.352.586c-.03.25.016.516.14.797l3.916 9.096c.156.36.352.625.586.797.25.172.54.258.868.258.328 0 .617-.086.867-.258.25-.172.446-.438.586-.797l3.962-9.12c.125-.28.164-.539.117-.773a.861.861 0 0 0-.304-.586c-.157-.156-.376-.235-.657-.235-.328 0-.586.07-.774.211-.172.14-.328.383-.468.727l-3.28 7.92-3.214-7.92c-.14-.344-.297-.586-.47-.727-.171-.14-.405-.21-.702-.21zm-7.498 1.618c.656 0 1.203.148 1.64.445.454.282.79.696 1.009 1.243.2.469.315 1.024.344 1.665h-6.378c.057-.518.177-.986.36-1.407.266-.61.65-1.087 1.15-1.43.515-.344 1.14-.516 1.875-.516zm24.412 0c.656 0 1.203.148 1.64.445.454.282.79.696 1.009 1.243.2.469.315 1.024.344 1.665h-6.378c.057-.518.177-.986.36-1.407.266-.61.65-1.087 1.15-1.43.515-.344 1.14-.516 1.875-.516zm19.598.187c.97 0 1.751.344 2.345 1.032.594.688.89 1.704.89 3.048 0 .89-.14 1.64-.421 2.25-.266.61-.641 1.071-1.126 1.384-.484.312-1.047.468-1.688.468-.984 0-1.774-.352-2.367-1.055-.594-.703-.891-1.719-.891-3.047 0-.891.132-1.641.398-2.25.281-.61.664-1.063 1.149-1.36.484-.313 1.055-.47 1.711-.47zm13.832 0c.985 0 1.766.344 2.344 1.032.594.688.891 1.704.891 3.048 0 .89-.133 1.64-.398 2.25-.266.61-.641 1.071-1.126 1.384-.484.312-1.055.468-1.711.468-.969 0-1.75-.352-2.345-1.055-.593-.703-.89-1.719-.89-3.047 0-.891.133-1.641.399-2.25.265-.61.64-1.063 1.125-1.36.5-.313 1.07-.47 1.711-.47zm8.978 6.916c-.453 0-.82.141-1.101.423-.282.265-.423.617-.423 1.054 0 .438.141.797.423 1.079.28.281.648.422 1.101.422.454 0 .813-.141 1.079-.422.265-.282.398-.641.398-1.079 0-.437-.133-.789-.398-1.054-.266-.282-.625-.423-1.079-.423z" style="font-size:23.4433px;font-family:Nunito;-inkscape-font-specification:&quot;Nunito, @wght=600&quot;;font-variation-settings:&quot;wght&quot;600;fill:#005cfa;fill-opacity:1;stroke-width:8.65925" transform="matrix(1.52775 0 0 1.52775 247.448 257.21)"/><path d="M86.475-137.64c-.375 0-.664.101-.868.304-.203.203-.304.5-.304.89v11.559c0 1.344.304 2.375.914 3.094.625.703 1.547 1.055 2.766 1.055.14 0 .29-.008.445-.024.157 0 .305-.008.446-.023.312-.047.54-.157.68-.329.14-.187.21-.445.21-.773 0-.36-.038-.594-.117-.703-.078-.125-.21-.18-.398-.164l-.328.047h-.375c-.61 0-1.079-.188-1.407-.563-.312-.39-.469-.977-.469-1.759v-11.416c0-.391-.109-.688-.328-.89-.203-.204-.492-.306-.867-.306zm7.173.023c-.469 0-.836.117-1.101.352-.25.218-.376.546-.376.984 0 .422.126.75.376.984.265.235.632.352 1.101.352.47 0 .829-.117 1.079-.352.266-.234.398-.562.398-.984 0-.438-.132-.766-.398-.984-.25-.235-.61-.352-1.079-.352zm-36.97.14c-.422 0-.75.118-.984.352-.22.219-.329.54-.329.961v13.902c0 .422.11.75.329.985.234.219.562.328.984.328h4.525c1.375 0 2.587-.18 3.634-.539 1.047-.375 1.93-.907 2.649-1.594.734-.704 1.289-1.571 1.664-2.603.375-1.031.563-2.211.563-3.54 0-2.672-.743-4.711-2.227-6.118-1.47-1.422-3.564-2.134-6.283-2.134zm1.126 2.04h3.258c2.032 0 3.556.516 4.572 1.547 1.031 1.032 1.547 2.587 1.547 4.665 0 1.048-.125 1.962-.375 2.743-.25.782-.633 1.43-1.15 1.946-.515.516-1.156.906-1.922 1.172-.75.25-1.64.375-2.672.375h-3.258zm71.025 2.811-.052.002c-1.047.078-1.907.36-2.579.844-.5.36-.882.846-1.148 1.457v-1.035c0-.39-.102-.688-.305-.89-.188-.204-.47-.306-.844-.306-.36 0-.641.102-.844.305-.203.203-.305.5-.305.891v9.377c0 .376.102.673.305.891.203.203.5.305.89.305.407 0 .704-.102.891-.305.203-.218.305-.515.305-.89v-5.322c0-.954.266-1.704.797-2.25.532-.548 1.305-.868 2.321-.962l.446-.047c.36-.031.625-.14.797-.328.171-.203.242-.469.21-.797-.015-.328-.109-.57-.28-.727-.147-.147-.349-.217-.605-.213zm-51.193.025c-1.078 0-2.04.25-2.883.75a5.337 5.337 0 0 0-1.993 2.087c-.484.891-.726 1.93-.726 3.118 0 1.22.242 2.274.726 3.165a5.24 5.24 0 0 0 2.087 2.04c.906.468 1.985.703 3.235.703.656 0 1.336-.086 2.04-.258a6.066 6.066 0 0 0 1.852-.82c.234-.156.398-.328.492-.516a.993.993 0 0 0 .094-.586.78.78 0 0 0-.258-.47c-.125-.124-.297-.194-.516-.21-.203-.016-.438.055-.703.21a4.871 4.871 0 0 1-1.5.634 6.27 6.27 0 0 1-1.477.187c-1.235 0-2.181-.343-2.837-1.031-.547-.6-.86-1.444-.94-2.532h7.457c.313 0 .547-.063.703-.188.157-.14.235-.343.235-.609 0-.875-.118-1.665-.352-2.368-.219-.703-.555-1.297-1.008-1.782a4.12 4.12 0 0 0-1.594-1.125c-.626-.265-1.337-.399-2.134-.399zm37.45 0c-1.079 0-2.04.25-2.884.75a5.337 5.337 0 0 0-1.992 2.087c-.485.891-.727 1.93-.727 3.118 0 1.22.242 2.274.727 3.165a5.24 5.24 0 0 0 2.086 2.04c.907.468 1.985.703 3.235.703.657 0 1.337-.086 2.04-.258a6.066 6.066 0 0 0 1.852-.82c.234-.156.399-.328.492-.516a.992.992 0 0 0 .094-.586.78.78 0 0 0-.258-.47c-.125-.124-.297-.194-.516-.21-.203-.016-.437.055-.703.21a4.871 4.871 0 0 1-1.5.634 6.27 6.27 0 0 1-1.477.187c-1.235 0-2.18-.343-2.837-1.031-.546-.6-.859-1.444-.94-2.532h7.457c.313 0 .547-.063.704-.188.156-.14.234-.343.234-.609 0-.875-.117-1.665-.352-2.368-.218-.703-.555-1.297-1.008-1.782a4.118 4.118 0 0 0-1.594-1.125c-.625-.265-1.336-.399-2.133-.399zm-16.82.047c-.343 0-.617.079-.82.235a.802.802 0 0 0-.351.586c-.032.25.015.516.14.797l3.915 9.096c.156.36.352.625.586.797.25.172.54.258.868.258.328 0 .617-.086.867-.258.25-.172.445-.438.586-.797l3.962-9.12c.125-.28.164-.539.117-.773a.862.862 0 0 0-.305-.586c-.156-.156-.375-.235-.656-.235-.328 0-.586.07-.773.211-.172.14-.329.384-.47.727l-3.279 7.92-3.214-7.92c-.141-.343-.297-.586-.469-.727-.172-.14-.406-.21-.703-.21zm-4.618.047c-.375 0-.664.11-.867.329-.203.218-.305.531-.305.937v9.143c0 .406.102.727.305.961.203.22.492.328.867.328.391 0 .688-.109.891-.328.203-.234.305-.555.305-.96v-9.144c0-.406-.11-.719-.329-.937-.203-.22-.492-.329-.867-.329zm-15.918 1.57c.657 0 1.204.15 1.641.446.453.282.79.696 1.008 1.243.201.469.316 1.024.345 1.665h-6.378c.057-.518.177-.986.36-1.407.266-.61.648-1.087 1.149-1.43.515-.344 1.14-.516 1.875-.516zm37.45 0c.656 0 1.203.15 1.64.446.454.282.79.696 1.009 1.243.2.469.315 1.024.344 1.665h-6.377c.056-.518.176-.986.36-1.407.265-.61.648-1.087 1.149-1.43.515-.344 1.14-.516 1.875-.516zm16.946 7.104c-.453 0-.82.141-1.102.423-.281.265-.422.617-.422 1.054 0 .438.141.797.422 1.079.282.281.649.422 1.102.422.453 0 .813-.141 1.079-.422.265-.282.398-.641.398-1.079 0-.437-.133-.789-.398-1.054-.266-.282-.626-.423-1.079-.423z" style="font-size:23.4433px;font-family:Nunito;-inkscape-font-specification:&quot;Nunito, @wght=600&quot;;font-variation-settings:&quot;wght&quot;600;fill:#6700e6;fill-opacity:1;stroke-width:8.65925" transform="matrix(1.52775 0 0 1.52775 247.448 257.21)"/></g></svg>